<?xml version="1.0" encoding="utf-8"?>
<!-- Generator: Adobe Illustrator 23.0.4, SVG Export Plug-In . SVG Version: 6.00 Build 0)  -->
<svg version="1.1" id="レイヤー_1" xmlns="http://www.w3.org/2000/svg" xmlns:xlink="http://www.w3.org/1999/xlink" x="0px"
	 y="0px" viewBox="0 0 481 122.4" style="enable-background:new 0 0 481 122.4;" xml:space="preserve">
<style type="text/css">
	.st0{fill-rule:evenodd;clip-rule:evenodd;fill:#001A3E;}
	.st1{fill-rule:evenodd;clip-rule:evenodd;fill:#83A8FD;}
	.st2{fill-rule:evenodd;clip-rule:evenodd;fill:#A71F2D;}
	.st3{fill-rule:evenodd;clip-rule:evenodd;fill:#3969FC;}
	.st4{fill-rule:evenodd;clip-rule:evenodd;fill:#1D2F68;}
	.st5{fill-rule:evenodd;clip-rule:evenodd;fill:#D14A2B;}
</style>
<title>commander-visual</title>
<desc>Created with Sketch.</desc>
<g id="commander-visual">
	<g id="Group" transform="translate(0.000000, 8.000000)">
		<g id="Group-7-Copy" transform="translate(124.000000, 0.000000)">
			<path id="Combined-Shape-Copy-21" class="st0" d="M-13,17.1c0,0.1,0.1,0.1,0.1,0.1h7.3c0.1,0,0.1,0.1,0.1,0.1v5.2
				c0,0.1-0.1,0.1-0.1,0.1H-13h-5.1c-0.1,0-0.1-0.1-0.1-0.1V6V5.9l5-5.8C-13.1,0-13,0-13,0.2V17.1z M1.8,22.6c0,0.1-0.1,0.1-0.1,0.1
				h-5c-0.1,0-0.1-0.1-0.1-0.1V12.5v-0.1l5-5.8c0.1-0.1,0.2,0,0.2,0.1V22.6z M28.7,14.6l5.3,7.9c0.1,0.1,0,0.2-0.1,0.2h-5.5
				c0,0-0.1,0-0.1-0.1l-4.2-6.5C24,16,23.9,16,23.9,16.2v1v5.3c0,0.1-0.1,0.1-0.1,0.1h-5c-0.1,0-0.1-0.1-0.1-0.1V5.9V5.8l5-5.8
				c0,0,0.2,0,0.2,0.1v12.5c0,0.1,0.2,0.2,0.2,0.1l3.8-6.3L28,6.3h5.7c0.1,0.1,0.1,0.2,0.1,0.3l-5.1,7.9V14.6z M10.2,23
				c-3.4,0-5.6-1.2-6.8-3.6c-0.1-0.1,0-0.2,0.1-0.2l4.1-2.1c0.1,0,0.2,0,0.2,0.1c0.4,1.1,1.3,1.6,2.5,1.6c1.3,0,1.5-0.6,1.5-1
				c0-0.7-0.9-1-2.3-1.3c-2.3-0.6-5.4-1.4-5.4-5.1C4.1,8.7,6,6,10.2,6.1c2.9,0,5,1.2,6.2,3.5c0.1,0.1,0,0.2-0.1,0.2l-3.9,1.8
				c-0.1,0-0.1,0-0.2-0.1c-0.5-0.8-1.1-1.3-1.9-1.3S9,10.5,9,11.1c0,0.7,1,1,2.3,1.3c2.3,0.6,5.5,1.3,5.5,5.3S13.5,23,10.2,23z"/>
		</g>
	</g>
</g>
<g>
	<path d="M133.6,81.6h-16.2l-2.2,6.9h-10.9l14.9-43.7h12.7l14.9,43.7h-11L133.6,81.6z M130.6,72.2l-5.1-16.1l-5.1,16.1H130.6z"/>
	<path d="M147,72.8c0-9.3,7.1-16.5,16.6-16.5c6.1,0,11.4,3.2,14.1,8l-8.2,4.7c-1.1-2.2-3.3-3.5-6.1-3.5c-4.1,0-7.1,2.9-7.1,7.2
		s3,7.2,7.1,7.2c2.7,0,5.1-1.3,6.1-3.5l8.2,4.7c-2.7,4.9-8,8.1-14.1,8.1C154.1,89.3,147,82.2,147,72.8z"/>
	<path d="M212.9,57.2v31.2h-9.4v-2.9c-2.1,2.4-5.1,3.8-9.3,3.8c-8.2,0-14.9-7.2-14.9-16.5s6.7-16.5,14.9-16.5c4.2,0,7.2,1.4,9.3,3.8
		v-2.9H212.9z M203.5,72.8c0-4.7-3.1-7.6-7.4-7.6c-4.3,0-7.4,2.9-7.4,7.6s3.1,7.6,7.4,7.6C200.4,80.5,203.5,77.5,203.5,72.8z"/>
	<path d="M250.6,44.7v43.7h-9.4v-2.9c-2.1,2.4-5.1,3.8-9.3,3.8c-8.2,0-14.9-7.2-14.9-16.5s6.7-16.5,14.9-16.5c4.2,0,7.2,1.4,9.3,3.8
		V44.7H250.6z M241.2,72.8c0-4.7-3.1-7.6-7.4-7.6s-7.4,2.9-7.4,7.6s3.1,7.6,7.4,7.6S241.2,77.5,241.2,72.8z"/>
	<path d="M272,81c2.6,0,4.7-1,6-2.4l7.5,4.3c-3.1,4.2-7.7,6.4-13.6,6.4c-10.7,0-17.3-7.2-17.3-16.5s6.7-16.5,16.6-16.5
		c9.1,0,15.9,7.1,15.9,16.5c0,1.3-0.1,2.6-0.4,3.7h-22.2C265.7,79.8,268.6,81,272,81z M277.8,69.6c-1-3.6-3.8-4.9-6.6-4.9
		c-3.6,0-5.9,1.7-6.8,4.9H277.8z"/>
	<path d="M338.6,69.3v19.2h-9.4V70.1c0-3.1-1.5-5.1-4.5-5.1c-3.1,0-4.9,2.2-4.9,5.9v17.6h-9.4V70.1c0-3.1-1.5-5.1-4.5-5.1
		c-3.1,0-4.9,2.2-4.9,5.9v17.6h-9.2V57.2h9.4v2.9c1.4-2.1,4.2-3.7,8.4-3.7c3.7,0,6.4,1.5,8.2,4.1c1.7-2.5,4.6-4.1,9.1-4.1
		C334,56.4,338.6,61.5,338.6,69.3z"/>
	<path d="M373.5,57.2l-10.7,30.3c-3.5,9.9-9.1,13.9-17.8,13.4v-8.7c4.4,0,6.4-1.4,7.8-5.2l-12.4-29.8h10.3l6.9,19.1l5.9-19.1
		L373.5,57.2L373.5,57.2z"/>
</g>
<g>
	<path class="st1" d="M40.6,32.8L40.6,32.8c-5.5,0-9.9-4.5-9.9-9.9l0,0c0-5.5,4.5-9.9,9.9-9.9l0,0h9.9v19.9H40.6z"/>
	<path class="st2" d="M10.9,63.8L10.9,63.8c-5.5,0-9.9-4.5-9.9-9.9l0,0c0-5.5,4.5-9.9,9.9-9.9l0,0h9.9v19.9H10.9z"/>
	<polygon class="st3" points="1,32.8 20.9,32.8 10.9,12.9 	"/>
	<polygon class="st4" points="20.9,74.9 1,74.9 10.9,94.8 	"/>
	<polygon class="st5" points="60.3,32.8 80.2,32.8 70.3,12.9 	"/>
	<polygon class="st4" points="80.2,43.9 70.3,53.8 60.3,43.9 60.3,63.8 80.2,63.8 	"/>
	<rect x="30.7" y="43.9" class="st3" width="19.9" height="19.9"/>
</g>
</svg>
