<svg xmlns="http://www.w3.org/2000/svg" width="57" height="37"><path fill="#008BFF" fill-rule="evenodd" d="M32.542.034l1.932.518a1 1 0 0 1 .707 1.225l-9.058 33.807a1 1 0 0 1-1.225.707l-1.932-.517a1 1 0 0 1-.707-1.225L31.317.74a1 1 0 0 1 1.225-.707zM57 18.275a.916.916 0 0 1-.292.669l-13.612 13.54a.926.926 0 0 1-.672.291.926.926 0 0 1-.671-.29l-1.46-1.453a.916.916 0 0 1-.293-.668c0-.252.097-.475.292-.669l11.48-11.42-11.48-11.42A.916.916 0 0 1 40 6.188c0-.252.097-.474.292-.668l1.46-1.453a.926.926 0 0 1 .672-.29c.254 0 .477.096.672.29l13.612 13.541a.916.916 0 0 1 .292.668zm-57 0c0-.251.097-.474.292-.668l13.612-13.54a.926.926 0 0 1 .672-.292c.253 0 .477.097.671.291l1.46 1.453a.916.916 0 0 1 .293.668.916.916 0 0 1-.292.669l-11.48 11.42 11.48 11.42a.916.916 0 0 1 .292.668.916.916 0 0 1-.292.668l-1.46 1.453a.926.926 0 0 1-.672.29.926.926 0 0 1-.672-.29L.292 18.944A.916.916 0 0 1 0 18.275z"/></svg>