<?xml version="1.0" encoding="utf-8"?>
<!-- Generator: Adobe Illustrator 23.0.4, SVG Export Plug-In . SVG Version: 6.00 Build 0)  -->
<svg version="1.1" id="レイヤー_1" xmlns="http://www.w3.org/2000/svg" xmlns:xlink="http://www.w3.org/1999/xlink" x="0px"
	 y="0px" viewBox="0 0 238.3 97" style="enable-background:new 0 0 238.3 97;" xml:space="preserve">
<style type="text/css">
	.st0{opacity:0.3548;}
	.st1{fill-rule:evenodd;clip-rule:evenodd;fill:url(#SVGID_1_);fill-opacity:0.9;}
	.st2{fill-rule:evenodd;clip-rule:evenodd;fill:url(#SVGID_2_);}
	.st3{filter:url(#Adobe_OpacityMaskFilter);}
	.st4{fill-rule:evenodd;clip-rule:evenodd;fill:#FFFFFF;}
	.st5{mask:url(#mask-6_1_);fill:none;}
	.st6{filter:url(#Adobe_OpacityMaskFilter_1_);}
	.st7{opacity:0.1227;mask:url(#mask-6_2_);fill-rule:evenodd;clip-rule:evenodd;fill:url(#Fill-10_1_);enable-background:new    ;}
	.st8{fill-rule:evenodd;clip-rule:evenodd;fill:#001A3E;}
</style>
<title>core-visual</title>
<desc>Created with Sketch.</desc>
<g id="core-visual">
	<g id="Group">
		<g id="core" transform="translate(0.000000, 0.950980)">
			<g id="Page-1-Copy-7" class="st0">
				<g id="Clip-2">
					
						<linearGradient id="SVGID_1_" gradientUnits="userSpaceOnUse" x1="-56.3521" y1="464.3816" x2="-55.2044" y2="464.7756" gradientTransform="matrix(83.6863 0 0 -96.0213 4713.1177 44656.1211)">
						<stop  offset="0" style="stop-color:#0462F5"/>
						<stop  offset="1" style="stop-color:#00ECFF"/>
					</linearGradient>
					<polygon class="st1" points="0,24 0,72 41.8,96 83.7,72 83.7,24 41.8,0 					"/>
				</g>
			</g>
			<g id="Page-1-Copy-8" transform="translate(12.362745, 12.362745)">
				<g>
					
						<linearGradient id="SVGID_2_" gradientUnits="userSpaceOnUse" x1="-68.2306" y1="450.4166" x2="-67.5649" y2="451.1158" gradientTransform="matrix(58.8159 0 0 -70.1158 4022.6348 31641.1719)">
						<stop  offset="0" style="stop-color:#004AFF"/>
						<stop  offset="1" style="stop-color:#93F4FE"/>
					</linearGradient>
					<polygon class="st2" points="0,17.5 0,52.6 29.4,70.1 58.8,52.6 58.8,17.5 29.4,0 					"/>
				</g>
				<defs>
					<filter id="Adobe_OpacityMaskFilter" filterUnits="userSpaceOnUse" x="29.4" y="17.6" width="29.4" height="52.5">
						<feColorMatrix  type="matrix" values="1 0 0 0 0  0 1 0 0 0  0 0 1 0 0  0 0 0 1 0"/>
					</filter>
				</defs>
				<mask maskUnits="userSpaceOnUse" x="29.4" y="17.6" width="29.4" height="52.5" id="mask-6_1_">
					<g class="st3">
						<polygon id="path-5_1_" class="st4" points="0,17.5 0,52.6 29.4,70.1 58.8,52.6 58.8,17.5 29.4,0 						"/>
					</g>
				</mask>
				<polygon id="Fill-7" class="st5" points="29.4,35.2 29.4,70.1 58.8,52.5 58.8,17.6 				"/>
				<defs>
					<filter id="Adobe_OpacityMaskFilter_1_" filterUnits="userSpaceOnUse" x="0" y="17.3" width="29.4" height="52.5">
						<feColorMatrix  type="matrix" values="1 0 0 0 0  0 1 0 0 0  0 0 1 0 0  0 0 0 1 0"/>
					</filter>
				</defs>
				<mask maskUnits="userSpaceOnUse" x="0" y="17.3" width="29.4" height="52.5" id="mask-6_2_">
					<g class="st6">
						<polygon id="path-5_2_" class="st4" points="0,17.5 0,52.6 29.4,70.1 58.8,52.6 58.8,17.5 29.4,0 						"/>
					</g>
				</mask>
				
					<linearGradient id="Fill-10_1_" gradientUnits="userSpaceOnUse" x1="-65.5482" y1="448.9127" x2="-66.8484" y2="448.9883" gradientTransform="matrix(29.408 0 0 -52.5181 1982.8174 23623.8164)">
					<stop  offset="0" style="stop-color:#FFFFFF"/>
					<stop  offset="1" style="stop-color:#93F4FE"/>
				</linearGradient>
				<polygon id="Fill-10" class="st7" points="29.4,34.9 29.3,69.8 0,52.3 0,17.3 				"/>
			</g>
		</g>
	</g>
	<g id="Group-11" transform="translate(102.000000, 8.000000)">
		<path id="Combined-Shape-Copy-23" class="st8" d="M5.1,17.1c0,0.1,0.1,0.1,0.1,0.1h7.2c0.1,0,0.1,0.1,0.1,0.1v5.2
			c0,0.1-0.1,0.1-0.1,0.1H5.1h-5c-0.1,0-0.1-0.1-0.1-0.1V6c0,0,0-0.1,0-0.1l4.9-5.8C5,0,5.1,0,5.1,0.2V17.1z M19.6,22.6
			c0,0.1-0.1,0.1-0.1,0.1h-4.9c-0.1,0-0.1-0.1-0.1-0.1V12.5c0,0,0-0.1,0-0.1l4.9-5.8c0.1-0.1,0.2-0.1,0.2,0.1V22.6z M46,14.6
			l5.2,7.9c0.1,0.1,0,0.2-0.1,0.2h-5.4c0,0-0.1,0-0.1-0.1l-4.1-6.5c-0.1-0.1-0.2-0.1-0.2,0.1v1v5.3c0,0.1-0.1,0.1-0.1,0.1h-4.9
			c-0.1,0-0.1-0.1-0.1-0.1V5.9c0,0,0-0.1,0-0.1l4.9-5.8C41.1,0,41.3,0,41.3,0.1v12.5c0,0.1,0.2,0.2,0.2,0.1l3.7-6.3
			c0,0,0.1-0.1,0.1-0.1h5.6c0.1,0,0.2,0.1,0.1,0.2l-5,7.9C46,14.5,46,14.6,46,14.6z M27.9,23c-3.3,0-5.5-1.2-6.6-3.6
			c-0.1-0.1,0-0.2,0.1-0.2l4-2.1c0.1,0,0.2,0,0.2,0.1c0.4,1.1,1.3,1.6,2.4,1.6c1.3,0,1.5-0.6,1.5-1c0-0.7-0.9-1-2.2-1.3
			c-2.2-0.6-5.3-1.4-5.3-5.1c0-2.7,1.9-5.4,6-5.3c2.9,0,4.9,1.2,6.1,3.5c0.1,0.1,0,0.2-0.1,0.2l-3.9,1.8c-0.1,0-0.1,0-0.2-0.1
			c-0.5-0.8-1.1-1.3-1.9-1.3c-0.8,0-1.3,0.3-1.3,0.9c0,0.7,1,1,2.3,1.3c2.3,0.6,5.4,1.3,5.4,5.3S31.1,23,27.9,23z"/>
		<path id="Core" class="st8" d="M22.6,81.1C9.5,81.1,0,71.3,0,58.6S9.5,36,22.6,36c7.9,0,14.8,3.9,18.6,10l-8.6,5
			c-1.9-3.3-5.6-5.3-10-5.3c-7.7,0-12.6,5.1-12.6,12.9s5,12.9,12.6,12.9c4.4,0,8.2-2,10-5.3l8.6,5C37.4,77.2,30.5,81.1,22.6,81.1z
			 M61,81.1c-9.1,0-16.4-7.1-16.4-16.4S51.9,48.4,61,48.4s16.4,7.1,16.4,16.4S70.1,81.1,61,81.1z M61,72.1c4,0,7.1-2.9,7.1-7.3
			S65,57.5,61,57.5s-7.1,2.9-7.1,7.3S57,72.1,61,72.1z M92,54.8c1.2-4.2,5.4-6.1,9.3-6.1v10.5c-3.8-0.6-9.3,0.9-9.3,7.1v14h-9.3v-31
			H92V54.8z M114,68.5c1.2,3.2,4,4.3,7.4,4.3c2.5,0,4.7-1,6-2.4l7.4,4.3c-3,4.2-7.6,6.4-13.5,6.4c-10.6,0-17.2-7.1-17.2-16.4
			s6.7-16.4,16.5-16.4c9.1,0,15.7,7,15.7,16.4c0,1.3-0.1,2.5-0.4,3.7H114z M113.8,61.5h13.3c-1-3.6-3.8-4.9-6.6-4.9
			C117,56.6,114.6,58.4,113.8,61.5z"/>
	</g>
</g>
</svg>
