<svg xmlns="http://www.w3.org/2000/svg" width="230" height="230"><defs><linearGradient id="easy_setup_export-a" x1="100%" x2="2.681%" y1="2.762%" y2="4.36%"><stop offset="0%" stop-color="#0080FF"/><stop offset="100%" stop-color="#081C45"/></linearGradient><filter id="easy_setup_export-b" width="214.5%" height="215%" x="-57.2%" y="-57.5%" filterUnits="objectBoundingBox"><feGaussianBlur in="SourceGraphic" stdDeviation="21.149"/></filter><linearGradient id="easy_setup_export-c" x1="32.414%" x2="77.179%" y1="81.917%" y2="23.367%"><stop offset="0%" stop-color="#0080FF"/><stop offset="100%" stop-color="#081C45"/></linearGradient><linearGradient id="easy_setup_export-d" x1="100%" x2="-10.445%" y1="0%" y2="174.163%"><stop offset="0%" stop-color="#0080FF"/><stop offset="100%" stop-color="#081C45"/></linearGradient><linearGradient id="easy_setup_export-e" x1="19.476%" x2="86.047%" y1="88.413%" y2="18.496%"><stop offset="0%" stop-color="#FFF"/><stop offset="100%" stop-color="#93F4FE"/></linearGradient><linearGradient id="easy_setup_export-f" x1="100%" x2="0%" y1="69.358%" y2="29.359%"><stop offset="0%" stop-color="#004AFF"/><stop offset="100%" stop-color="#93F4FE"/></linearGradient><radialGradient id="easy_setup_export-g" r="43.489%" fx="50%" fy="50%"><stop offset="0%" stop-color="#009FFF"/><stop offset="100%" stop-color="#009FFF" stop-opacity="0"/></radialGradient></defs><g fill="none" fill-rule="evenodd"><ellipse cx="129.451" cy="134.464" fill="url(#easy_setup_export-a)" filter="url(#easy_setup_export-b)" opacity=".3" rx="55.428" ry="55.169"/><g transform="translate(46 50)"><polygon fill="url(#easy_setup_export-c)" points="68.5 32.5 137 72.705 137 89.795 68.5 130 0 89.795 0 72.705" opacity=".8"/><polygon fill="url(#easy_setup_export-d)" points="137 73.125 137 90.034 69.843 130 69.843 113.091" opacity=".8"/><polygon fill="url(#easy_setup_export-e)" points="68.5 0 137 40.205 137 57.295 68.5 97.5 0 57.295 0 40.205"/><polygon fill="url(#easy_setup_export-f)" points="137 40.625 137 57.534 69.843 97.5 69.843 80.591" opacity=".5"/></g><circle cx="115" cy="115" r="115" fill="url(#easy_setup_export-g)" opacity=".2"/></g></svg>