<?xml version="1.0" encoding="utf-8"?>
<!-- Generator: Adobe Illustrator 23.0.4, SVG Export Plug-In . SVG Version: 6.00 Build 0)  -->
<svg version="1.1" id="レイヤー_1" xmlns="http://www.w3.org/2000/svg" xmlns:xlink="http://www.w3.org/1999/xlink" x="0px"
	 y="0px" viewBox="0 0 360.7 97" style="enable-background:new 0 0 360.7 97;" xml:space="preserve">
<style type="text/css">
	.st0{opacity:0.3548;}
	.st1{fill-rule:evenodd;clip-rule:evenodd;fill:url(#SVGID_1_);fill-opacity:0.9;}
	.st2{fill-rule:evenodd;clip-rule:evenodd;fill:url(#SVGID_2_);fill-opacity:0.9;}
	.st3{filter:url(#Adobe_OpacityMaskFilter);}
	.st4{fill-rule:evenodd;clip-rule:evenodd;fill:#FFFFFF;}
	
		.st5{opacity:0.5695;mask:url(#mask-6_1_);fill-rule:evenodd;clip-rule:evenodd;fill:url(#Fill-7_1_);fill-opacity:0.8;enable-background:new    ;}
	.st6{filter:url(#Adobe_OpacityMaskFilter_1_);}
	
		.st7{opacity:0.5695;mask:url(#mask-6_2_);fill-rule:evenodd;clip-rule:evenodd;fill:url(#Fill-10_1_);fill-opacity:0.8;enable-background:new    ;}
	.st8{fill-rule:evenodd;clip-rule:evenodd;fill:url(#SVGID_3_);}
	.st9{fill-rule:evenodd;clip-rule:evenodd;fill:url(#SVGID_4_);}
	.st10{filter:url(#Adobe_OpacityMaskFilter_2_);}
	.st11{mask:url(#mask-11_1_);fill-rule:evenodd;clip-rule:evenodd;fill:url(#SVGID_5_);}
	.st12{filter:url(#Adobe_OpacityMaskFilter_3_);}
	.st13{opacity:0.3792;mask:url(#mask-11_2_);fill-rule:evenodd;clip-rule:evenodd;fill:url(#SVGID_6_);enable-background:new    ;}
	.st14{fill-rule:evenodd;clip-rule:evenodd;fill:url(#SVGID_7_);}
	.st15{filter:url(#Adobe_OpacityMaskFilter_4_);}
	.st16{opacity:0.6308;mask:url(#mask-16_1_);fill-rule:evenodd;clip-rule:evenodd;fill:url(#SVGID_8_);enable-background:new    ;}
	.st17{filter:url(#Adobe_OpacityMaskFilter_5_);}
	.st18{opacity:0.1006;mask:url(#mask-16_2_);fill-rule:evenodd;clip-rule:evenodd;fill:url(#SVGID_9_);enable-background:new    ;}
	.st19{fill-rule:evenodd;clip-rule:evenodd;fill:url(#SVGID_10_);}
	.st20{filter:url(#Adobe_OpacityMaskFilter_6_);}
	.st21{mask:url(#mask-21_1_);fill:none;}
	.st22{filter:url(#Adobe_OpacityMaskFilter_7_);}
	.st23{opacity:0.1227;mask:url(#mask-21_2_);fill-rule:evenodd;clip-rule:evenodd;fill:url(#SVGID_11_);enable-background:new    ;}
	.st24{fill-rule:evenodd;clip-rule:evenodd;fill:url(#SVGID_12_);}
	.st25{filter:url(#Adobe_OpacityMaskFilter_8_);}
	.st26{opacity:0.6308;mask:url(#mask-25_1_);fill-rule:evenodd;clip-rule:evenodd;fill:url(#SVGID_13_);enable-background:new    ;}
	.st27{filter:url(#Adobe_OpacityMaskFilter_9_);}
	.st28{opacity:0.6308;mask:url(#mask-25_2_);fill-rule:evenodd;clip-rule:evenodd;fill:url(#SVGID_14_);enable-background:new    ;}
	.st29{fill-rule:evenodd;clip-rule:evenodd;fill:#001A3E;}
</style>
<title>elements-visual</title>
<desc>Created with Sketch.</desc>
<g id="elements-visual">
	<g id="Group">
		<g id="Elements">
			<g id="core" class="st0">
				<g id="Page-1-Copy-7">
					<g id="Clip-2">
						
							<linearGradient id="SVGID_1_" gradientUnits="userSpaceOnUse" x1="-56.3588" y1="465.3705" x2="-55.211" y2="465.7646" gradientTransform="matrix(84.5149 0 0 -96.972 4760.3467 45194.1641)">
							<stop  offset="0" style="stop-color:#0462F5"/>
							<stop  offset="1" style="stop-color:#00ECFF"/>
						</linearGradient>
						<polygon class="st1" points="0,24.2 0,72.7 42.3,97 84.5,72.7 84.5,24.2 42.3,0 						"/>
					</g>
				</g>
			</g>
			<g id="Group-3" transform="translate(9.603960, 12.485149)">
				<g id="Page-1-Copy-6" transform="translate(17.453965, 0.937270)">
					<g>
						
							<linearGradient id="SVGID_2_" gradientUnits="userSpaceOnUse" x1="-81.8007" y1="447.9991" x2="-80.8255" y2="448.0228" gradientTransform="matrix(28.2162 0 0 -46.7227 2314.8171 20955.4453)">
							<stop  offset="0" style="stop-color:#0462F5"/>
							<stop  offset="1" style="stop-color:#00ECFF"/>
						</linearGradient>
						<polygon class="st2" points="0,8.1 0,38.7 14.1,46.8 28.2,38.7 28.2,8.1 14.1,0.1 						"/>
					</g>
					<defs>
						<filter id="Adobe_OpacityMaskFilter" filterUnits="userSpaceOnUse" x="14.2" y="8.1" width="14.1" height="38.7">
							<feColorMatrix  type="matrix" values="1 0 0 0 0  0 1 0 0 0  0 0 1 0 0  0 0 0 1 0"/>
						</filter>
					</defs>
					<mask maskUnits="userSpaceOnUse" x="14.2" y="8.1" width="14.1" height="38.7" id="mask-6_1_">
						<g class="st3">
							<polygon id="path-5_1_" class="st4" points="0,8.1 0,38.7 14.1,46.8 28.2,38.7 28.2,8.1 14.1,0.1 							"/>
						</g>
					</mask>
					
						<linearGradient id="Fill-7_1_" gradientUnits="userSpaceOnUse" x1="-79.085" y1="446.5137" x2="-80.1914" y2="446.0753" gradientTransform="matrix(14.0739 0 0 -38.6629 1140.1787 17284.4902)">
						<stop  offset="0" style="stop-color:#74F8F8;stop-opacity:0"/>
						<stop  offset="1" style="stop-color:#74F8F8"/>
					</linearGradient>
					<polygon id="Fill-7" class="st5" points="14.2,16.2 14.2,46.8 28.2,38.7 28.2,8.1 					"/>
					<defs>
						<filter id="Adobe_OpacityMaskFilter_1_" filterUnits="userSpaceOnUse" x="0" y="8.1" width="14.1" height="38.7">
							<feColorMatrix  type="matrix" values="1 0 0 0 0  0 1 0 0 0  0 0 1 0 0  0 0 0 1 0"/>
						</filter>
					</defs>
					<mask maskUnits="userSpaceOnUse" x="0" y="8.1" width="14.1" height="38.7" id="mask-6_2_">
						<g class="st6">
							<polygon id="path-5_2_" class="st4" points="0,8.1 0,38.7 14.1,46.8 28.2,38.7 28.2,8.1 14.1,0.1 							"/>
						</g>
					</mask>
					
						<linearGradient id="Fill-10_1_" gradientUnits="userSpaceOnUse" x1="-79.1038" y1="446.513" x2="-80.2102" y2="446.0746" gradientTransform="matrix(14.1398 0 0 -38.6612 1131.5635 17283.6914)">
						<stop  offset="0" style="stop-color:#74F8F8;stop-opacity:0"/>
						<stop  offset="1" style="stop-color:#74F8F8"/>
					</linearGradient>
					<polygon id="Fill-10" class="st7" points="14.1,16.2 14.1,46.8 0,38.7 0,8.1 					"/>
				</g>
				<g id="Page-1-Copy-9" transform="translate(36.283692, 30.282506)">
					<g>
						<g>
							
								<linearGradient id="SVGID_3_" gradientUnits="userSpaceOnUse" x1="-101.3445" y1="415.6083" x2="-99.8194" y2="414.5623" gradientTransform="matrix(28.2446 0 0 -31.8427 2849.0195 13228.7227)">
								<stop  offset="0" style="stop-color:#00457D"/>
								<stop  offset="1" style="stop-color:#001A56"/>
							</linearGradient>
							<polygon class="st8" points="0,8 0,23.9 14.1,31.8 28.2,23.9 28.2,8 14.1,0 							"/>
						</g>
						<g>
							
								<linearGradient id="SVGID_4_" gradientUnits="userSpaceOnUse" x1="-100.7777" y1="414.3735" x2="-100.0568" y2="415.3735" gradientTransform="matrix(28.2446 0 0 -31.8427 2849.0195 13228.7227)">
								<stop  offset="0" style="stop-color:#021755;stop-opacity:0"/>
								<stop  offset="1" style="stop-color:#0097FF"/>
							</linearGradient>
							<polygon class="st9" points="0,8 0,23.9 14.1,31.8 28.2,23.9 28.2,8 14.1,0 							"/>
						</g>
					</g>
					<defs>
						<filter id="Adobe_OpacityMaskFilter_2_" filterUnits="userSpaceOnUse" x="14.1" y="8" width="14.1" height="24">
							<feColorMatrix  type="matrix" values="1 0 0 0 0  0 1 0 0 0  0 0 1 0 0  0 0 0 1 0"/>
						</filter>
					</defs>
					<mask maskUnits="userSpaceOnUse" x="14.1" y="8" width="14.1" height="24" id="mask-11_1_">
						<g class="st10">
							<polygon id="path-10_1_" class="st4" points="0,8 0,23.9 14.1,31.8 28.2,23.9 28.2,8 14.1,0 							"/>
						</g>
					</mask>
					
						<linearGradient id="SVGID_5_" gradientUnits="userSpaceOnUse" x1="-96.6232" y1="410.8513" x2="-99.0614" y2="411.2624" gradientTransform="matrix(14.1223 0 0 -24.0322 1410.1321 9900.708)">
						<stop  offset="0" style="stop-color:#021755;stop-opacity:0"/>
						<stop  offset="1" style="stop-color:#0097FF"/>
					</linearGradient>
					<polygon class="st11" points="14.1,16.1 14.1,32 28.2,24 28.2,8 					"/>
					<defs>
						<filter id="Adobe_OpacityMaskFilter_3_" filterUnits="userSpaceOnUse" x="0" y="8" width="14.1" height="24">
							<feColorMatrix  type="matrix" values="1 0 0 0 0  0 1 0 0 0  0 0 1 0 0  0 0 0 1 0"/>
						</filter>
					</defs>
					<mask maskUnits="userSpaceOnUse" x="0" y="8" width="14.1" height="24" id="mask-11_2_">
						<g class="st12">
							<polygon id="path-10_2_" class="st4" points="0,8 0,23.9 14.1,31.8 28.2,23.9 28.2,8 14.1,0 							"/>
						</g>
					</mask>
					
						<linearGradient id="SVGID_6_" gradientUnits="userSpaceOnUse" x1="-99.094" y1="410.8975" x2="-97.2878" y2="411.4946" gradientTransform="matrix(14.1223 0 0 -24.0322 1396.0098 9900.708)">
						<stop  offset="0" style="stop-color:#021755;stop-opacity:0"/>
						<stop  offset="1" style="stop-color:#0097FF"/>
					</linearGradient>
					<polygon class="st13" points="14.1,16.1 14.1,32 0,24 0,8 					"/>
				</g>
				<g id="Page-1-Copy-10" transform="translate(36.283692, 10.927138)">
					<g>
						
							<linearGradient id="SVGID_7_" gradientUnits="userSpaceOnUse" x1="-100.1151" y1="434.5156" x2="-101.0044" y2="433.6047" gradientTransform="matrix(28.2162 0 0 -31.7393 2846.1211 13798.9697)">
							<stop  offset="0" style="stop-color:#FF6236"/>
							<stop  offset="1" style="stop-color:#C80039"/>
						</linearGradient>
						<polygon class="st14" points="0,8 0,23.9 14.1,31.8 28.2,23.9 28.2,8 14.1,0.1 						"/>
					</g>
					<defs>
						<filter id="Adobe_OpacityMaskFilter_4_" filterUnits="userSpaceOnUse" x="14.2" y="8" width="14.1" height="23.8">
							<feColorMatrix  type="matrix" values="1 0 0 0 0  0 1 0 0 0  0 0 1 0 0  0 0 0 1 0"/>
						</filter>
					</defs>
					<mask maskUnits="userSpaceOnUse" x="14.2" y="8" width="14.1" height="23.8" id="mask-16_1_">
						<g class="st15">
							<polygon id="path-15_1_" class="st4" points="0,8 0,23.9 14.1,31.8 28.2,23.9 28.2,8 14.1,0.1 							"/>
						</g>
					</mask>
					
						<linearGradient id="SVGID_8_" gradientUnits="userSpaceOnUse" x1="-97.6149" y1="430.7761" x2="-98.798" y2="430.067" gradientTransform="matrix(14.0739 0 0 -23.7924 1405.1863 10258.7979)">
						<stop  offset="0" style="stop-color:#FCBA85;stop-opacity:0"/>
						<stop  offset="1" style="stop-color:#FF2E52"/>
					</linearGradient>
					<polygon class="st16" points="14.2,16 14.2,31.8 28.2,23.8 28.2,8 					"/>
					<defs>
						<filter id="Adobe_OpacityMaskFilter_5_" filterUnits="userSpaceOnUse" x="0" y="8" width="14.1" height="23.8">
							<feColorMatrix  type="matrix" values="1 0 0 0 0  0 1 0 0 0  0 0 1 0 0  0 0 0 1 0"/>
						</filter>
					</defs>
					<mask maskUnits="userSpaceOnUse" x="0" y="8" width="14.1" height="23.8" id="mask-16_2_">
						<g class="st17">
							<polygon id="path-15_2_" class="st4" points="0,8 0,23.9 14.1,31.8 28.2,23.9 28.2,8 14.1,0.1 							"/>
						</g>
					</mask>
					
						<linearGradient id="SVGID_9_" gradientUnits="userSpaceOnUse" x1="-98.0807" y1="431.0879" x2="-98.4148" y2="430.1841" gradientTransform="matrix(14.1398 0 0 -23.7907 1397.8124 10258.0244)">
						<stop  offset="0" style="stop-color:#C8123D;stop-opacity:0"/>
						<stop  offset="1" style="stop-color:#11072C"/>
					</linearGradient>
					<polygon class="st18" points="14.1,16 14.1,31.8 0,23.9 0,8 					"/>
				</g>
				<g transform="translate(0.507211, 30.282506)">
					<g>
						
							<linearGradient id="SVGID_10_" gradientUnits="userSpaceOnUse" x1="-65.7338" y1="417.7099" x2="-65.0681" y2="418.4091" gradientTransform="matrix(46.9391 0 0 -43.4668 3093.1575 18193.6934)">
							<stop  offset="0" style="stop-color:#004AFF"/>
							<stop  offset="1" style="stop-color:#93F4FE"/>
						</linearGradient>
						<polygon class="st19" points="0,8.2 0,24.4 32.9,43.5 47,35.4 47,19.2 14.1,0.1 						"/>
					</g>
					<defs>
						<filter id="Adobe_OpacityMaskFilter_6_" filterUnits="userSpaceOnUse" x="32.9" y="19.2" width="14" height="24.3">
							<feColorMatrix  type="matrix" values="1 0 0 0 0  0 1 0 0 0  0 0 1 0 0  0 0 0 1 0"/>
						</filter>
					</defs>
					<mask maskUnits="userSpaceOnUse" x="32.9" y="19.2" width="14" height="24.3" id="mask-21_1_">
						<g class="st20">
							<polygon id="path-20_1_" class="st4" points="0,8.2 0,24.4 32.9,43.5 47,35.4 47,19.2 14.1,0.1 							"/>
						</g>
					</mask>
					<polygon class="st21" points="32.9,27.4 32.9,43.5 47,35.3 46.9,19.2 					"/>
					<defs>
						<filter id="Adobe_OpacityMaskFilter_7_" filterUnits="userSpaceOnUse" x="0" y="8.2" width="32.9" height="35.3">
							<feColorMatrix  type="matrix" values="1 0 0 0 0  0 1 0 0 0  0 0 1 0 0  0 0 0 1 0"/>
						</filter>
					</defs>
					<mask maskUnits="userSpaceOnUse" x="0" y="8.2" width="32.9" height="35.3" id="mask-21_2_">
						<g class="st22">
							<polygon id="path-20_2_" class="st4" points="0,8.2 0,24.4 32.9,43.5 47,35.4 47,19.2 14.1,0.1 							"/>
						</g>
					</mask>
					
						<linearGradient id="SVGID_11_" gradientUnits="userSpaceOnUse" x1="-63.5046" y1="416.0056" x2="-64.8049" y2="416.0812" gradientTransform="matrix(32.9429 0 0 -35.3061 2153.8381 14716.1738)">
						<stop  offset="0" style="stop-color:#FFFFFF"/>
						<stop  offset="1" style="stop-color:#93F4FE"/>
					</linearGradient>
					<polygon class="st23" points="32.9,27.3 32.9,43.5 0,24.4 0,8.2 					"/>
				</g>
				<g id="Page-1-Copy-8" transform="translate(0.507211, 10.302771)">
					<g>
						
							<linearGradient id="SVGID_12_" gradientUnits="userSpaceOnUse" x1="-65.0516" y1="437.7148" x2="-65.7507" y2="438.3806" gradientTransform="matrix(46.9391 0 0 -43.4668 3093.1575 19062.1484)">
							<stop  offset="0" style="stop-color:#FFFFFF"/>
							<stop  offset="1" style="stop-color:#93F4FE"/>
						</linearGradient>
						<polygon class="st24" points="0,8.2 0,24.4 32.9,43.5 47,35.4 47,19.2 14.1,0.1 						"/>
					</g>
					<defs>
						<filter id="Adobe_OpacityMaskFilter_8_" filterUnits="userSpaceOnUse" x="32.9" y="19.2" width="14" height="24.3">
							<feColorMatrix  type="matrix" values="1 0 0 0 0  0 1 0 0 0  0 0 1 0 0  0 0 0 1 0"/>
						</filter>
					</defs>
					<mask maskUnits="userSpaceOnUse" x="32.9" y="19.2" width="14" height="24.3" id="mask-25_1_">
						<g class="st25">
							<polygon id="path-24_1_" class="st4" points="0,8.2 0,24.4 32.9,43.5 47,35.4 47,19.2 14.1,0.1 							"/>
						</g>
					</mask>
					
						<linearGradient id="SVGID_13_" gradientUnits="userSpaceOnUse" x1="-63.1852" y1="430.8594" x2="-61.4849" y2="432.0146" gradientTransform="matrix(14.013 0 0 -24.3023 916.3696 10512.8281)">
						<stop  offset="0" style="stop-color:#FFFFFF;stop-opacity:0"/>
						<stop  offset="1" style="stop-color:#93F4FE"/>
					</linearGradient>
					<polygon class="st26" points="32.9,27.4 32.9,43.5 47,35.3 46.9,19.2 					"/>
					<defs>
						<filter id="Adobe_OpacityMaskFilter_9_" filterUnits="userSpaceOnUse" x="0" y="8.2" width="32.9" height="35.3">
							<feColorMatrix  type="matrix" values="1 0 0 0 0  0 1 0 0 0  0 0 1 0 0  0 0 0 1 0"/>
						</filter>
					</defs>
					<mask maskUnits="userSpaceOnUse" x="0" y="8.2" width="32.9" height="35.3" id="mask-25_2_">
						<g class="st27">
							<polygon id="path-24_2_" class="st4" points="0,8.2 0,24.4 32.9,43.5 47,35.4 47,19.2 14.1,0.1 							"/>
						</g>
					</mask>
					
						<linearGradient id="SVGID_14_" gradientUnits="userSpaceOnUse" x1="-65.7776" y1="435.9286" x2="-64.3418" y2="436.1477" gradientTransform="matrix(32.9429 0 0 -35.3061 2153.8381 15421.5801)">
						<stop  offset="0" style="stop-color:#FFFFFF"/>
						<stop  offset="1" style="stop-color:#93F4FE"/>
					</linearGradient>
					<polygon class="st28" points="32.9,27.3 32.9,43.5 0,24.4 0,8.2 					"/>
				</g>
			</g>
		</g>
	</g>
	<g id="Group-12" transform="translate(103.000000, 7.000000)">
		<path class="st29" d="M9.9,71.7h17.4v9.5H0V37.9h27v9.5h-17v7.2h15.5V64H9.9V71.7z M32.5,81.3V36h9.3v45.3H32.5z M57,69.5
			c1.2,3.2,4,4.3,7.4,4.3c2.5,0,4.7-1,6-2.4l7.4,4.3c-3,4.2-7.6,6.4-13.5,6.4c-10.6,0-17.2-7.1-17.2-16.4s6.7-16.4,16.5-16.4
			c9.1,0,15.7,7,15.7,16.4c0,1.3-0.1,2.5-0.4,3.7H57z M56.8,62.5h13.3c-1-3.6-3.8-4.9-6.6-4.9C60,57.6,57.7,59.4,56.8,62.5z
			 M119.3,49.4c7.1,0,11.8,5.1,11.8,12.8v19h-9.3V63c0-3.1-1.5-5.1-4.5-5.1c-3.1,0-4.8,2.2-4.8,5.8v17.5h-9.3V63
			c0-3.1-1.5-5.1-4.5-5.1c-3.1,0-4.8,2.2-4.8,5.8v17.5h-9.3v-31h9.3v2.9c1.4-2.1,4.2-3.7,8.3-3.7c3.7,0,6.4,1.5,8.1,4.1
			C112.1,51,114.9,49.4,119.3,49.4z M145.8,69.5c1.2,3.2,4,4.3,7.4,4.3c2.5,0,4.7-1,6-2.4l7.4,4.3c-3,4.2-7.6,6.4-13.5,6.4
			c-10.6,0-17.2-7.1-17.2-16.4s6.7-16.4,16.5-16.4c9.1,0,15.7,7,15.7,16.4c0,1.3-0.1,2.5-0.4,3.7H145.8z M145.6,62.5H159
			c-1-3.6-3.8-4.9-6.6-4.9C148.9,57.6,146.5,59.4,145.6,62.5z M191.6,49.4c6.3,0,11.6,4.5,11.6,12.8v19h-9.3V63.6
			c0-3.8-2.4-5.6-5.4-5.6c-3.4,0-5.8,2-5.8,6.4v16.9h-9.3v-31h9.3v2.9C184.4,50.9,187.6,49.4,191.6,49.4z M227.8,59.2h-6.4v11
			c0,2.7,2.3,2.9,6.4,2.7v8.4c-12.2,1.2-15.7-2.4-15.7-11.1v-11h-5v-8.9h5v-5.9l9.3-2.8v8.7h6.4V59.2z M242.5,59.3
			c0,3.5,15.3,1.2,15.3,12.6c0,7.1-6.2,10.2-12.9,10.2c-6.2,0-10.9-2.4-13.3-7.4l8.1-4.6c0.8,2.4,2.5,3.7,5.3,3.7
			c2.2,0,3.3-0.7,3.3-1.9c0-3.4-15.3-1.6-15.3-12.3c0-6.8,5.7-10.2,12.2-10.2c5,0,9.5,2.2,12.1,6.6l-7.9,4.3
			c-0.9-1.6-2.1-2.7-4.2-2.7C243.5,57.6,242.5,58.2,242.5,59.3z"/>
		<path id="Combined-Shape-Copy-24" class="st29" d="M5.1,17.1c0,0.1,0.1,0.1,0.1,0.1h7.2c0.1,0,0.1,0.1,0.1,0.1v5.2
			c0,0.1-0.1,0.1-0.1,0.1H5.1h-5c-0.1,0-0.1-0.1-0.1-0.1V6c0,0,0-0.1,0-0.1l4.9-5.8C5,0,5.1,0,5.1,0.2V17.1z M19.6,22.6
			c0,0.1-0.1,0.1-0.1,0.1h-4.9c-0.1,0-0.1-0.1-0.1-0.1V12.5c0,0,0-0.1,0-0.1l4.9-5.8c0.1-0.1,0.2-0.1,0.2,0.1V22.6z M46,14.6
			l5.2,7.9c0.1,0.1,0,0.2-0.1,0.2h-5.4c0,0-0.1,0-0.1-0.1l-4.1-6.5c-0.1-0.1-0.2-0.1-0.2,0.1v1v5.3c0,0.1-0.1,0.1-0.1,0.1h-4.9
			c-0.1,0-0.1-0.1-0.1-0.1V5.9c0,0,0-0.1,0-0.1l4.9-5.8C41.1,0,41.3,0,41.3,0.1v12.5c0,0.1,0.2,0.2,0.2,0.1l3.7-6.3
			c0,0,0.1-0.1,0.1-0.1h5.6c0.1,0,0.2,0.1,0.1,0.2l-5,7.9C46,14.5,46,14.6,46,14.6z M27.9,23c-3.3,0-5.5-1.2-6.6-3.6
			c-0.1-0.1,0-0.2,0.1-0.2l4-2.1c0.1,0,0.2,0,0.2,0.1c0.4,1.1,1.3,1.6,2.4,1.6c1.3,0,1.5-0.6,1.5-1c0-0.7-0.9-1-2.2-1.3
			c-2.2-0.6-5.3-1.4-5.3-5.1c0-2.7,1.9-5.4,6-5.3c2.9,0,4.9,1.2,6.1,3.5c0.1,0.1,0,0.2-0.1,0.2l-3.9,1.8c-0.1,0-0.1,0-0.2-0.1
			c-0.5-0.8-1.1-1.3-1.9-1.3c-0.8,0-1.3,0.3-1.3,0.9c0,0.7,1,1,2.3,1.3c2.3,0.6,5.4,1.3,5.4,5.3S31.1,23,27.9,23z"/>
	</g>
</g>
</svg>
