<svg xmlns="http://www.w3.org/2000/svg" width="230" height="230"><defs><linearGradient id="encryption_export-a" x1="100%" x2="2.681%" y1="2.762%" y2="4.36%"><stop offset="0%" stop-color="#0080FF"/><stop offset="100%" stop-color="#081C45"/></linearGradient><filter id="encryption_export-b" width="187.2%" height="187.6%" x="-43.6%" y="-43.8%" filterUnits="objectBoundingBox"><feGaussianBlur in="SourceGraphic" stdDeviation="16.292"/></filter><filter id="encryption_export-c" width="214.6%" height="215.2%" x="-57.3%" y="-57.6%" filterUnits="objectBoundingBox"><feGaussianBlur in="SourceGraphic" stdDeviation="16.292"/></filter><linearGradient id="encryption_export-d" x1="19.476%" x2="86.047%" y1="88.413%" y2="18.496%"><stop offset="0%" stop-color="#004AFF"/><stop offset="100%" stop-color="#93F4FE"/></linearGradient><linearGradient id="encryption_export-e" x1="90.544%" x2="14.661%" y1="88.741%" y2="0%"><stop offset="0%" stop-color="#004AFF"/><stop offset="100%" stop-color="#93F4FE"/></linearGradient><linearGradient id="encryption_export-f" x1="0%" y1="37.37%" y2="89.909%"><stop offset="0%" stop-color="#FFF"/><stop offset="100%" stop-color="#93F4FE"/></linearGradient><linearGradient id="encryption_export-g" x1="0%" x2="121.353%" y1="0%" y2="50%"><stop offset="0%" stop-color="#FFF"/><stop offset="100%" stop-color="#93F4FE"/></linearGradient><linearGradient id="encryption_export-h" x1="100%" x2="0%" y1="27.594%" y2="21.154%"><stop offset="0%" stop-color="#004AFF"/><stop offset="100%" stop-color="#93F4FE"/></linearGradient><linearGradient id="encryption_export-i" x1="107.77%" x2="20.584%" y1="28.533%" y2="50%"><stop offset="0%" stop-color="#004AFF"/><stop offset="100%" stop-color="#93F4FE"/></linearGradient><linearGradient id="encryption_export-j" x1="120.246%" x2="-11.13%" y1="100%" y2="-34.919%"><stop offset="0%" stop-color="#0080FF"/><stop offset="100%" stop-color="#081C45"/></linearGradient><linearGradient id="encryption_export-k" x1="11.587%" x2="81.504%" y1="19.476%" y2="86.047%"><stop offset="0%" stop-color="#FFF"/><stop offset="100%" stop-color="#93F4FE"/></linearGradient><linearGradient id="encryption_export-l" x1="16.509%" x2="88.931%" y1="62.634%" y2="-35.312%"><stop offset="0%" stop-color="#0080FF"/><stop offset="100%" stop-color="#081C45"/></linearGradient><linearGradient id="encryption_export-m" x1="7.563%" x2="116.685%" y1="120.789%" y2="39.914%"><stop offset="0%" stop-color="#0080FF"/><stop offset="100%" stop-color="#081C45"/></linearGradient><radialGradient id="encryption_export-n" r="43.489%" fx="50%" fy="50%"><stop offset="0%" stop-color="#009FFF"/><stop offset="100%" stop-color="#009FFF" stop-opacity="0"/></radialGradient></defs><g fill="none" fill-rule="evenodd"><ellipse cx="118.465" cy="142.776" fill="url(#encryption_export-a)" filter="url(#encryption_export-b)" opacity=".3" rx="56.073" ry="55.776"/><ellipse cx="58.663" cy="119.377" fill="url(#encryption_export-a)" filter="url(#encryption_export-c)" opacity=".4" rx="42.663" ry="42.437"/><g fill="url(#encryption_export-d)" opacity=".799" transform="translate(94.497 157.719)"><polygon points="12.209 0 24.418 7.117 24.418 21.352 12.209 28.47 0 21.352 0 7.117"/><polygon points="12.209 14.913 24.418 8.134 24.418 21.691 12.209 28.47"/></g><g fill="url(#encryption_export-e)" opacity=".799" transform="translate(82.288 39.772)"><polygon points="54.041 0 108.082 31.181 108.082 93.544 54.041 124.725 0 93.544 0 31.181"/><polygon points="108.082 93.544 54.041 124.725 0 93.544 0 31.181"/><polygon points="108.082 31.181 108.082 93.544 54.041 124.725 54.041 62.362"/></g><g transform="translate(110.776 68.242)"><polygon fill="url(#encryption_export-f)" points="8.139 0 16.279 4.576 16.279 13.727 8.139 18.302 0 13.727 0 4.576"/><polygon fill="url(#encryption_export-g)" points="8.139 0 16.279 4.576 8.139 9.151 0 4.576"/></g><g transform="translate(84.323 94.678)"><polygon fill="url(#encryption_export-d)" points="25.552 0 51.104 14.743 51.104 44.23 25.552 58.973 0 44.23 0 14.743" opacity=".7"/><path fill="url(#encryption_export-h)" d="M45.902 17.745v29.487l-20.35 11.741V29.487l20.35-11.742z" opacity=".7"/><path fill="url(#encryption_export-i)" d="M45.889 17.752L25.552 29.487 0 14.743 20.337 3.01l25.552 14.743z" opacity=".7"/><polygon fill="url(#encryption_export-j)" points="45.952 47.191 45.872 66.277 29.309 56.825"/></g><g fill="url(#encryption_export-k)" transform="translate(47.696 96.712)"><polygon points="14.244 0 28.487 8.134 28.487 24.403 14.244 32.537 0 24.403 0 8.134"/><polygon points="14.244 16.268 28.487 8.134 28.487 24.403 14.244 32.537 0 24.403 0 8.134"/></g><g opacity=".8" transform="translate(41.592 135.35)"><polygon fill="url(#encryption_export-l)" points="20.348 0 40.696 11.62 40.696 34.861 20.348 46.481 0 34.861 0 11.62"/><polygon fill="url(#encryption_export-m)" points="20.348 23.241 40.696 11.62 40.696 34.861 20.348 46.481 0 34.861 0 11.62"/></g><circle cx="115" cy="115" r="115" fill="url(#encryption_export-n)" opacity=".05"/></g></svg>