<svg xmlns="http://www.w3.org/2000/svg" width="230" height="230"><defs><linearGradient id="error_handling_export-a" x1="19.476%" x2="86.047%" y1="88.413%" y2="18.496%"><stop offset="0%" stop-color="#004AFF"/><stop offset="100%" stop-color="#93F4FE"/></linearGradient><linearGradient id="error_handling_export-b" x1="-48.8%" y1="50%" y2="50%"><stop offset="0%" stop-color="#004AFF"/><stop offset="100%" stop-color="#93F4FE"/></linearGradient><linearGradient id="error_handling_export-c" x1="19.476%" x2="86.047%" y1="88.413%" y2="18.496%"><stop offset="0%" stop-color="#FFF"/><stop offset="100%" stop-color="#93F4FE"/></linearGradient><linearGradient id="error_handling_export-d" x1="100%" x2="0%" y1="69.358%" y2="29.359%"><stop offset="0%" stop-color="#004AFF"/><stop offset="100%" stop-color="#93F4FE"/></linearGradient><radialGradient id="error_handling_export-e" cx="47.868%" cy="48.164%" r="38.377%" fx="47.868%" fy="48.164%"><stop offset="0%" stop-color="#009FFF"/><stop offset="100%" stop-color="#009FFF" stop-opacity="0"/></radialGradient></defs><g fill="none" fill-rule="evenodd"><g opacity=".8" transform="translate(30.246 98.734)"><polygon fill="url(#error_handling_export-a)" points="50.158 18.911 100.315 47.909 100.315 58.625 50.158 87.623 0 58.625 0 47.909"/><polygon fill="url(#error_handling_export-b)" points="100.315 47.909 100.315 58.625 50.158 87.623 50.158 76.906"/></g><g opacity=".5" transform="translate(99.377 77.932)"><polygon fill="url(#error_handling_export-a)" points="50.905 0 101.062 28.997 101.062 39.714 50.905 68.711 .747 39.714 .747 28.997"/><polygon fill="url(#error_handling_export-b)" points="101.062 28.997 101.062 39.714 50.905 68.711 50.905 57.995"/></g><g transform="translate(75.573 42)"><polygon fill="url(#error_handling_export-c)" points="50.158 0 100.315 28.997 100.315 68.081 50.158 97.079 0 68.081 0 28.997"/><polygon fill="url(#error_handling_export-d)" points="100.315 28.997 100.315 68.081 50.158 97.079 50.158 57.995" opacity=".5"/></g><circle cx="115" cy="115" r="115" fill="url(#error_handling_export-e)" opacity=".3"/></g></svg>