<svg xmlns="http://www.w3.org/2000/svg" width="230" height="230"><defs><linearGradient id="independence_export-a" x1="19.476%" x2="86.047%" y1="88.413%" y2="18.496%"><stop offset="0%" stop-color="#004AFF"/><stop offset="100%" stop-color="#93F4FE"/></linearGradient><linearGradient id="independence_export-b" x1="100%" x2="0%" y1="69.358%" y2="29.359%"><stop offset="0%" stop-color="#004AFF"/><stop offset="100%" stop-color="#93F4FE"/></linearGradient><linearGradient id="independence_export-c" x1="19.476%" x2="86.047%" y1="88.413%" y2="18.496%"><stop offset="0%" stop-color="#FFF"/><stop offset="100%" stop-color="#93F4FE"/></linearGradient><radialGradient id="independence_export-d" r="35.716%" fx="50%" fy="50%" gradientTransform="matrix(0 1 -1.23009 0 1.115 0)"><stop offset="0%" stop-color="#009FFF"/><stop offset="100%" stop-color="#009FFF" stop-opacity="0"/></radialGradient></defs><g fill="none" fill-rule="evenodd"><g transform="translate(6 48)"><polygon fill="url(#independence_export-a)" points="49.226 .011 91.857 24.671 91.857 73.991 49.226 98.651 6.595 73.991 6.595 24.671" opacity=".799"/><polygon fill="url(#independence_export-b)" points="91.857 24.671 91.857 73.991 49.226 98.651 49.226 49.331" opacity=".799"/><polygon fill="url(#independence_export-c)" points="168.774 2.36 211.405 27.02 211.405 76.34 168.774 101 126.143 76.34 126.143 27.02"/><polygon fill="url(#independence_export-a)" points="107.828 35.24 150.459 59.9 150.459 109.22 107.828 133.88 65.197 109.22 65.197 59.9" opacity=".7"/></g><circle cx="115" cy="115" r="115" fill="url(#independence_export-d)" opacity=".35"/></g></svg>