<?xml version="1.0" encoding="utf-8"?>
<!-- Generator: Adobe Illustrator 23.0.4, SVG Export Plug-In . SVG Version: 6.00 Build 0)  -->
<svg version="1.1" id="Layer_1" xmlns="http://www.w3.org/2000/svg" xmlns:xlink="http://www.w3.org/1999/xlink" x="0px" y="0px"
	 viewBox="0 0 481 97" style="enable-background:new 0 0 481 97;" xml:space="preserve">
<style type="text/css">
	.st0{fill:#FFFFFF;}
	.st1{fill:#001A3E;}
	.st2{opacity:0.1046;}
	.st3{opacity:0.7998;fill:url(#Fill-4_3_);enable-background:new    ;}
	.st4{opacity:0.7998;fill:#001049;enable-background:new    ;}
	.st5{fill:url(#Fill-21-Copy_2_);}
	.st6{opacity:0.7998;fill:url(#sd_4_);enable-background:new    ;}
	.st7{fill:url(#path-24_2_);}
	.st8{fill:url(#Combined-Shape_2_);}
	.st9{fill:url(#path-29_3_);}
	.st10{fill:url(#path-29_4_);}
	.st11{fill:url(#sd_5_);}
	.st12{enable-background:new    ;}
</style>
<g id="Clip-5_1_">
</g>
<g>
	<polygon class="st0" points="55.5,19.6 0.7,51.5 0.7,59.1 36.3,80.4 91,48.4 91,40.9 	"/>
	<g id="commander-visual_1_">
		<g id="Group_1_" transform="translate(124.000000, 8.000000)">
			<g id="Group-7-Copy_1_">
				<path id="Combined-Shape-Copy-21_1_" class="st1" d="M-14,15.4c0,0.1,0.1,0.1,0.1,0.1h6.8c0.1,0,0.1,0,0.1,0.1v4.8
					c0,0.1,0,0.1-0.1,0.1H-14h-4.7c-0.1,0-0.1,0-0.1-0.1V4.9c0,0,0,0,0-0.1l4.6-5.4c0.1-0.1,0.2,0,0.2,0.1C-14-0.5-14,15.4-14,15.4z
					 M-0.2,20.5c0,0,0,0.1-0.1,0.1H-5c-0.1,0-0.1,0-0.1-0.1V11c0,0,0,0,0-0.1l4.6-5.4c0.1-0.1,0.2,0,0.2,0.1v14.9H-0.2z M24.8,13
					l5,7.4c0,0.1,0,0.2-0.1,0.2h-5.2h-0.1l-3.9-6.1c-0.1-0.1-0.2,0-0.2,0.1v1v5c0,0.1,0,0.1-0.1,0.1h-4.6c-0.1,0-0.1,0-0.1-0.1V4.9
					c0,0,0,0,0-0.1l4.6-5.4c0.1-0.1,0.2,0,0.2,0.1v11.7c0,0.1,0.1,0.2,0.2,0.1L24,5.4c0,0,0,0,0.1,0h5.3c0.1,0,0.1,0.1,0.1,0.2
					L24.8,13C24.8,12.9,24.8,13,24.8,13z M7.6,20.9c-3.1,0-5.2-1.1-6.3-3.4c0-0.1,0-0.1,0-0.2l3.8-2c0.1,0,0.1,0,0.2,0.1
					c0.4,1,1.2,1.5,2.3,1.5C8.8,16.9,9,16.4,9,16c0-0.6-0.9-0.9-2.1-1.2c-2.1-0.6-5-1.3-5-4.7c0-2.5,1.8-5,5.7-5
					c2.7,0,4.7,1.1,5.8,3.2c0,0.1,0,0.1,0,0.2l-3.7,1.7H9.6C9.2,9.4,8.6,9,7.8,9C7,8.9,6.6,9.3,6.6,9.8c0,0.7,1,0.9,2.1,1.2
					c2.2,0.5,5.1,1.2,5.1,4.9S10.6,20.9,7.6,20.9z"/>
			</g>
		</g>
		<g id="Group-15-Copy_1_" transform="translate(11.000000, 21.000000)">
			<g id="Group-14-Copy-2_1_" transform="translate(49.000000, 33.500000) scale(-1, 1) translate(-49.000000, -33.500000) ">
				<g id="Page-1-Copy-3_1_" class="st2">
					<g id="Group-6_1_" transform="translate(0.160463, 0.000000)">
						<g id="Clip-5_2_">
						</g>
						
							<linearGradient id="Fill-4_3_" gradientUnits="userSpaceOnUse" x1="-251.8039" y1="-879.0775" x2="-246.7336" y2="-883.2543" gradientTransform="matrix(96.8666 0 0 65.2386 24404.8086 57351.3086)">
							<stop  offset="0" style="stop-color:#004AFF"/>
							<stop  offset="1" style="stop-color:#93F4FE"/>
						</linearGradient>
						<polygon id="Fill-4_2_" class="st3" points="17.8,19.9 17.8,27.4 72.5,59.4 108.1,38.1 108.1,30.5 53.4,-1.4 						"/>
						<polygon id="Fill-4_1_" class="st4" points="108.1,38.1 72.5,59.4 17.8,27.4 17.8,19.9 72.5,51.9 108.1,30.6 						"/>
					</g>
					<g id="Group-20_1_" transform="translate(58.568834, 34.343471)">
						<g id="Group-16_1_" transform="translate(0.000000, 6.258857)">
							<g id="Clip-15_1_">
							</g>
						</g>
					</g>
					<g id="Group-23_1_" transform="translate(6.578965, 3.691121)">
						<g id="Clip-22_1_">
						</g>
					</g>
				</g>
				
					<linearGradient id="Fill-21-Copy_2_" gradientUnits="userSpaceOnUse" x1="-252.3287" y1="-877.933" x2="-251.3558" y2="-877.006" gradientTransform="matrix(75.6211 0 0 44.6252 19141.0469 39203.5938)">
					<stop  offset="0" style="stop-color:#00335D"/>
					<stop  offset="1" style="stop-color:#001A56"/>
				</linearGradient>
				<polygon id="Fill-21-Copy_1_" class="st5" points="26.6,21 55.3,3.8 97.1,27.9 67.8,45.4 				"/>
				
					<linearGradient id="sd_4_" gradientUnits="userSpaceOnUse" x1="-303.1047" y1="-855.1" x2="-298.0344" y2="-859.2769" gradientTransform="matrix(6.3637 0 0 3.8068 2011.639 3292.7368)">
					<stop  offset="0" style="stop-color:#004AFF"/>
					<stop  offset="1" style="stop-color:#93F4FE"/>
				</linearGradient>
				<path id="sd_3_" class="st6" d="M88.2,40.2c-0.4,0.3-1,0.6-1.8,0.7c-1.1,0.1-2.2-0.1-2.9-0.6c-0.3-0.2-0.5-0.5-0.5-0.8
					c-0.1-0.5,0.2-1,0.7-1.4c0.5-0.3,1.1-0.6,1.9-0.7c1.2-0.1,2.2,0.1,2.8,0.5c0.3,0.2,0.4,0.4,0.5,0.7C89,39.2,88.8,39.8,88.2,40.2
					z"/>
			</g>
			<g id="Group-2_2_" transform="translate(39.000000, 20.000000)">
				<g id="sd_2_">
					<g>
						
							<linearGradient id="path-24_2_" gradientUnits="userSpaceOnUse" x1="-446.6902" y1="-873.4678" x2="-447.5589" y2="-872.5991" gradientTransform="matrix(23.8395 0 0 13.7915 10656.6318 12044.2148)">
							<stop  offset="0" style="stop-color:#7192B9"/>
							<stop  offset="1" style="stop-color:#3A5E89"/>
						</linearGradient>
						<path id="path-24_1_" class="st7" d="M5.7,7.6C4.1,8.8,1.8,9.7-0.9,10c-4.2,0.5-8.3-0.4-10.7-2c-1.1-0.8-1.8-1.8-2-2.9
							c-0.3-1.9,0.8-3.8,2.8-5.2c1.7-1.3,4.2-2.1,7.1-2.5C0.5-3,4.5-2.3,6.7-0.6C7.6,0.1,8.3,1,8.5,2.1C8.8,4,7.8,6.1,5.7,7.6z"/>
					</g>
					
						<linearGradient id="Combined-Shape_2_" gradientUnits="userSpaceOnUse" x1="-413.3022" y1="-869.9097" x2="-412.3996" y2="-870.8122" gradientTransform="matrix(7.1059 0 0 10.0115 2939.0564 8717.1279)">
						<stop  offset="0" style="stop-color:#17499B"/>
						<stop  offset="1" style="stop-color:#3C7FB4"/>
					</linearGradient>
					<path id="Combined-Shape_1_" class="st8" d="M4.7,8.3C4.5,8.1,4.2,8,4,7.8C2.9,7,2.1,6.1,2,4.9C1.7,3.1,2.8,1.2,4.7-0.2
						C5.1-0.5,5.6-0.8,6-1c0.2,0.1,0.5,0.3,0.7,0.5C7.6,0.1,8.3,1,8.5,2.1c0.4,2-0.7,4-2.7,5.5C5.4,7.8,5.1,8.1,4.7,8.3z"/>
				</g>
				<g id="Fill-6_1_">
					<g>
						
							<linearGradient id="path-29_3_" gradientUnits="userSpaceOnUse" x1="-418.6609" y1="-857.1608" x2="-418.3913" y2="-856.4606" gradientTransform="matrix(8.0842 0 0 4.1754 3377.1235 3583.5366)">
							<stop  offset="0" style="stop-color:#08061E"/>
							<stop  offset="1" style="stop-color:#001A55"/>
						</linearGradient>
						<polygon id="path-29_2_" class="st9" points="-6.3,8.4 -11.2,4.5 -3.7,4.5 						"/>
					</g>
					<g>
						
							<linearGradient id="path-29_4_" gradientUnits="userSpaceOnUse" x1="-418.3346" y1="-856.6879" x2="-418.8829" y2="-857.0306" gradientTransform="matrix(8.0842 0 0 4.1754 3377.1235 3583.5366)">
							<stop  offset="0" style="stop-color:#FFFFFF"/>
							<stop  offset="1" style="stop-color:#93F4FE"/>
						</linearGradient>
						<polygon id="path-29_1_" class="st10" points="-6.3,8.4 -11.2,4.5 -3.7,4.5 						"/>
					</g>
				</g>
				
					<linearGradient id="sd_5_" gradientUnits="userSpaceOnUse" x1="-414.0711" y1="-856.9019" x2="-414.7638" y2="-856.187" gradientTransform="matrix(7.3263 0 0 4.1754 3036.1685 3580.5894)">
					<stop  offset="0" style="stop-color:#FF6236"/>
					<stop  offset="1" style="stop-color:#C80039"/>
				</linearGradient>
				<path id="sd_1_" class="st11" d="M3.5,4.8C3,5.2,2.3,5.5,1.4,5.6C0.1,5.7-1.2,5.5-1.9,5c-0.3-0.2-0.6-0.5-0.6-0.9
					C-2.6,3.5-2.3,3-1.7,2.5c0.5-0.4,1.3-0.6,2.2-0.7C1.8,1.7,3,1.9,3.7,2.4C4,2.6,4.2,2.8,4.3,3.2C4.4,3.8,4.1,4.4,3.5,4.8z"/>
			</g>
		</g>
	</g>
	<g class="st12">
		<path class="st1" d="M145,79.2h-10V58.1l-9.5,15.7h-1l-9.4-15.7v21h-10V40h10l10,16.7l10-16.7h10v39.2H145z"/>
		<path class="st1" d="M149.5,65.2c0-8.3,6.7-14.8,14.9-14.8c8.3,0,14.9,6.4,14.9,14.8S172.7,80,164.4,80
			C156.2,79.9,149.5,73.5,149.5,65.2z M170.1,65.2c0-3.5-2.4-5.8-5.6-5.8c-3.2,0-5.6,2.3-5.6,5.8s2.4,5.8,5.6,5.8
			C167.7,71,170.1,68.6,170.1,65.2z"/>
		<path class="st1" d="M213.8,65.2c0,8.4-5.6,14.8-13.1,14.8c-3.6,0-6.1-1.2-7.9-3.4v2.6h-9.3V40h9.3v13.8c1.8-2.1,4.4-3.4,7.9-3.4
			C208.1,50.4,213.8,56.8,213.8,65.2z M204.4,65.2c0-3.6-2.4-6.1-5.9-6.1s-5.9,2.5-5.9,6.1s2.4,6.1,5.9,6.1
			C202,71.3,204.4,68.8,204.4,65.2z"/>
		<path class="st1" d="M217.1,43.5c0-2.9,2.5-5.3,5.4-5.3s5.4,2.4,5.4,5.3s-2.5,5.4-5.4,5.4S217.1,46.4,217.1,43.5z M217.8,51.2h9.3
			v28h-9.3V51.2z"/>
		<path class="st1" d="M232.5,38.3h9.3v40.8h-9.3V38.3z"/>
		<path class="st1" d="M261.6,72c2,0,3.7-0.7,5.1-2l6.7,4.7c-2.8,3.5-7,5.2-12,5.2c-9.7,0-15.7-6.4-15.7-14.7
			c0-8.4,6.1-14.8,14.9-14.8c8.4,0,14.4,6.3,14.4,14.7c0,1.2-0.1,2.3-0.4,3.5h-19.3C256.4,71.3,258.9,72,261.6,72z M265.9,62.2
			c-0.8-2.9-3-3.9-5.3-3.9c-2.7,0-4.7,1.3-5.5,3.9H265.9z"/>
	</g>
</g>
</svg>
