<svg xmlns="http://www.w3.org/2000/svg" width="230" height="230"><defs><linearGradient id="modular_export-a" x1="100%" x2="2.681%" y1="2.762%" y2="4.36%"><stop offset="0%" stop-color="#0080FF"/><stop offset="100%" stop-color="#081C45"/></linearGradient><linearGradient id="modular_export-b" x1="87.529%" x2="50%" y1="77.494%" y2="3.803%"><stop offset="0%" stop-color="#0080FF"/><stop offset="100%" stop-color="#0054FF" stop-opacity="0"/></linearGradient><linearGradient id="modular_export-c" x1="55.611%" x2="55.611%" y1="195.842%" y2="50%"><stop offset="0%" stop-color="#004AFF"/><stop offset="100%" stop-color="#93F4FE"/></linearGradient><linearGradient id="modular_export-d" x1="18.391%" x2="55.611%" y1="89.933%" y2="31.058%"><stop offset="0%" stop-color="#004AFF"/><stop offset="100%" stop-color="#93F4FE"/></linearGradient><linearGradient id="modular_export-e" x1="50.009%" x2="50.009%" y1="116.775%" y2="-9.271%"><stop offset="0%" stop-color="#14FFFFFF82FFFFFF28"/><stop offset="47.24%" stop-color="#0080FF"/><stop offset="100%" stop-color="#081C45"/></linearGradient><linearGradient id="modular_export-f" x1="11.587%" x2="81.504%" y1="19.476%" y2="86.047%"><stop offset="0%" stop-color="#FFF"/><stop offset="100%" stop-color="#93F4FE"/></linearGradient><linearGradient id="modular_export-g" x1="10.435%" x2="59.576%" y1="118.248%" y2="5.401%"><stop offset="0%" stop-color="#0080FF"/><stop offset="100%" stop-color="#081C45" stop-opacity="0"/></linearGradient><linearGradient id="modular_export-h" x1="70.791%" x2="12.671%" y1="94.128%" y2="14.106%"><stop offset="0%" stop-color="#004AFF"/><stop offset="100%" stop-color="#93F4FE"/></linearGradient><radialGradient id="modular_export-i" r="39.306%" fx="50%" fy="50%"><stop offset="0%" stop-color="#009FFF"/><stop offset="100%" stop-color="#009FFF" stop-opacity="0"/></radialGradient></defs><g fill="none" fill-rule="evenodd"><g transform="translate(43 33)"><polygon fill="url(#modular_export-a)" points="71.313 0 142.627 40.806 142.627 122.419 71.313 163.226 0 122.419 0 40.806" opacity=".7"/><polygon fill="url(#modular_export-b)" points="39.054 67.511 66.3 83.263 66.3 114.768 39.054 130.521 11.807 114.768 11.807 83.263" opacity=".7"/><polygon fill="url(#modular_export-c)" points="39.054 67.511 66.3 83.263 39.054 99.016 11.807 83.263" opacity=".799"/><polygon fill="url(#modular_export-d)" points="39.054 131.103 39.054 99.016 11.807 83.263 11.807 114.768" opacity=".799"/><polygon fill="url(#modular_export-e)" points="71.189 23.404 92.426 35.781 92.426 60.535 71.189 72.912 49.952 60.535 49.952 35.781"/><polygon fill="url(#modular_export-d)" points="71.189 48.158 71.189 72.912 49.952 60.535 49.952 35.781" opacity=".799"/><polygon fill="url(#modular_export-f)" points="71.189 23.854 92.426 36.231 71.189 48.608 49.952 36.231"/><polygon fill="url(#modular_export-f)" points="103.639 63.871 134.778 81.874 134.778 117.88 103.639 135.882 72.5 117.88 72.5 81.874"/><polygon fill="url(#modular_export-g)" points="104.722 100.397 104.722 136.403 135.997 119.262 135.997 82.5" opacity=".7"/><path fill="url(#modular_export-h)" d="M142.627 122.46v.055l-71.314 40.807L0 122.515V40.902l.183-.104 142.444 81.661z" opacity=".4"/></g><circle cx="115" cy="115" r="115" fill="url(#modular_export-i)" opacity=".3"/></g></svg>