<svg xmlns="http://www.w3.org/2000/svg" width="41" height="46" viewBox="0 0 41 46">
  <path fill="#008BFF" d="M27.416,18.354 C27.692,18.492 27.876,18.814 27.784,19.09 L27.784,26.91 C27.784,27.278 27.6,27.554 27.324,27.738 L27.048,27.922 L20.838,31.51 L20.562,31.648 C20.424,31.74 20.24,31.786 20.102,31.786 C19.964,31.786 19.78,31.74 19.642,31.648 L19.366,31.51 L13.156,27.922 L12.88,27.784 C12.604,27.6 12.42,27.278 12.42,26.956 L12.42,19.136 C12.42,18.768 12.604,18.492 12.88,18.308 L13.156,18.17 L19.412,14.582 L19.688,14.398 C19.826,14.306 19.964,14.26 20.148,14.26 C20.286,14.26 20.47,14.306 20.608,14.398 L20.884,14.582 L27.14,18.216 L27.416,18.354 Z M39.744,11.362 C40.02,11.546 40.204,11.822 40.204,12.19 L40.204,16.284 C40.204,16.652 40.02,16.928 39.744,17.112 L39.514,17.25 L36.432,19.044 L36.202,19.182 C36.064,19.274 35.926,19.32 35.742,19.32 C35.604,19.32 35.42,19.274 35.282,19.182 L35.052,19.044 L32.016,17.296 L31.74,17.158 C31.464,16.974 31.28,16.652 31.28,16.33 L31.28,12.236 C31.28,11.868 31.464,11.592 31.74,11.408 L31.97,11.27 L35.052,9.476 L35.282,9.338 C35.42,9.246 35.604,9.2 35.742,9.2 C35.88,9.2 36.064,9.246 36.202,9.338 L36.432,9.476 L39.468,11.224 L39.744,11.362 Z M24.104,38.088 C24.426,38.226 24.61,38.548 24.564,38.87 L24.564,42.964 C24.564,43.332 24.38,43.608 24.104,43.792 L23.874,43.93 L20.838,45.678 L20.562,45.816 C20.424,45.908 20.24,45.954 20.102,45.954 C19.964,45.954 19.78,45.908 19.642,45.816 L19.366,45.678 L16.33,43.93 L16.1,43.792 C15.824,43.608 15.64,43.286 15.64,42.964 L15.64,38.87 C15.64,38.502 15.824,38.226 16.1,38.042 L16.33,37.904 L19.366,36.156 L19.642,36.018 C19.78,35.926 19.918,35.88 20.102,35.88 C20.24,35.88 20.424,35.926 20.562,36.018 L20.838,36.202 L23.874,37.95 L24.104,38.088 Z M39.744,29.302 C40.02,29.486 40.204,29.808 40.204,30.176 L40.204,34.27 C40.204,34.638 40.02,34.914 39.744,35.098 L39.468,35.236 L36.432,36.984 L36.202,37.122 C36.064,37.214 35.926,37.26 35.742,37.26 C35.604,37.26 35.42,37.214 35.282,37.122 L35.052,36.984 L31.97,35.19 L31.74,35.052 C31.464,34.868 31.28,34.546 31.28,34.224 L31.28,30.13 C31.28,29.762 31.464,29.486 31.74,29.302 L32.016,29.164 L35.098,27.416 L35.328,27.278 C35.466,27.186 35.604,27.14 35.788,27.14 C35.926,27.14 36.11,27.186 36.248,27.278 L36.478,27.416 L39.514,29.164 L39.744,29.302 Z M8.464,29.302 C8.74,29.486 8.924,29.808 8.878,30.084 L8.878,34.178 C8.878,34.546 8.694,34.822 8.418,35.006 L8.188,35.144 L5.106,36.938 L4.922,37.076 C4.784,37.168 4.646,37.214 4.462,37.214 C4.324,37.214 4.14,37.168 4.002,37.076 L3.726,36.938 L0.736,35.19 L0.46,35.052 C0.184,34.868 0,34.546 0,34.224 L0,30.13 C0,29.762 0.184,29.486 0.46,29.302 L0.69,29.164 L3.772,27.416 L4.048,27.278 C4.186,27.186 4.37,27.14 4.508,27.14 C4.646,27.14 4.83,27.186 4.968,27.278 L5.152,27.416 L8.188,29.164 L8.464,29.302 Z M16.0610446,7.866 C15.7850446,7.728 15.6010446,7.406 15.6470446,7.13 L15.6470446,3.036 C15.6470446,2.668 15.8310446,2.392 16.1070446,2.208 L16.3370446,2.07 L19.3270446,0.322 L19.6030446,0.138 C19.7410446,0.046 19.8790446,0 20.0630446,0 C20.2010446,0 20.3850446,0.046 20.5230446,0.138 L20.7990446,0.276 L23.8350446,2.024 L24.0650446,2.162 C24.3410446,2.346 24.5250446,2.668 24.5250446,2.99 L24.5250446,7.084 C24.5250446,7.452 24.3410446,7.728 24.0650446,7.912 L23.8350446,8.05 L20.7990446,9.798 L20.5230446,9.936 C20.3850446,10.028 20.2010446,10.074 20.0630446,10.074 C19.9250446,10.074 19.7410446,10.028 19.6030446,9.936 L19.3270446,9.752 L16.2910446,8.004 L16.0610446,7.866 Z M0.46,17.112 C0.184,16.974 0,16.652 0,16.33 L0,12.236 C0,11.868 0.184,11.592 0.46,11.408 L0.736,11.27 L3.772,9.476 L4.002,9.338 C4.14,9.246 4.278,9.2 4.462,9.2 C4.6,9.2 4.784,9.246 4.922,9.338 L5.152,9.476 L8.234,11.27 L8.464,11.408 C8.74,11.592 8.924,11.914 8.924,12.236 L8.924,16.33 C8.924,16.698 8.74,16.974 8.464,17.158 L8.188,17.296 L5.152,19.044 L4.922,19.182 C4.784,19.274 4.646,19.32 4.462,19.32 C4.324,19.32 4.14,19.274 4.002,19.182 L3.772,19.044 L0.69,17.25 L0.46,17.112 Z M27.6382099,17.7826216 L30.391724,16.1889835 C30.391724,16.4697548 30.391724,16.7220626 30.391724,16.945907 C30.391724,17.2816737 30.5880857,17.5559243 30.9031698,17.8141699 C31.113226,17.9863336 31.540532,18.2420916 32.1850879,18.581444 L28.5785895,20.8384688 C28.5785895,19.7266312 28.5785895,19.0678292 28.5785895,18.862063 C28.5785895,18.5534136 28.350063,18.3045332 28.1316247,18.1032672 C27.9953578,17.9783265 27.8308863,17.8714446 27.6382099,17.7826216 Z M12.5216445,17.6486645 C12.3289682,17.7374875 12.1644966,17.8443694 12.0282298,17.9693101 C11.8097915,18.1705761 11.5812649,18.4194565 11.5812649,18.7281059 L11.5812649,20.7045117 L7.97476656,18.4474869 C8.61932247,18.1081346 9.04662848,17.8523765 9.2566846,17.6802128 C9.57176877,17.4219672 9.76813049,17.1477166 9.76813049,16.81195 L9.76813049,16.0550264 L12.5216445,17.6486645 Z M18.5813703,32.108525 C19.1696407,32.4364693 19.5365063,32.636435 19.6819672,32.7084222 C19.9001584,32.8164029 20.292963,32.8309073 20.5315502,32.7084222 C20.6906084,32.6267655 21.0405484,32.4267997 21.5813703,32.108525 L21.5813703,35.6218706 C21.0144491,35.2836426 20.6645091,35.0773176 20.5315502,35.0028954 C20.3321119,34.8912622 19.9214978,34.8913585 19.6819672,35.0028954 C19.5222801,35.0772534 19.1554145,35.2835784 18.5813703,35.6218706 L18.5813703,32.108525 Z"/>
</svg>
