<svg xmlns="http://www.w3.org/2000/svg" xmlns:xlink="http://www.w3.org/1999/xlink" width="230" height="230"><defs><radialGradient id="node.js_export-a" r="42.982%" fx="50%" fy="50%"><stop offset="0%" stop-color="#009FFF"/><stop offset="100%" stop-color="#009FFF" stop-opacity="0"/></radialGradient><path id="node.js_export-b" d="M75.294.993l65.144 37.723a6.477 6.477 0 0 1 3.232 5.606v75.48a6.477 6.477 0 0 1-3.232 5.606l-65.144 37.724a6.477 6.477 0 0 1-6.492 0L3.658 125.408a6.477 6.477 0 0 1-3.231-5.605V44.322a6.477 6.477 0 0 1 3.231-5.606L68.802.993a6.477 6.477 0 0 1 6.492 0z"/><linearGradient id="node.js_export-d" x1="50%" x2="24.391%" y1="6.268%" y2="88.563%"><stop offset="0%" stop-color="#0080FF"/><stop offset="100%" stop-color="#0054FF" stop-opacity="0"/></linearGradient><linearGradient id="node.js_export-e" x1="19.476%" x2="86.047%" y1="88.413%" y2="18.496%"><stop offset="0%" stop-color="#004AFF"/><stop offset="100%" stop-color="#93F4FE"/></linearGradient><linearGradient id="node.js_export-f" x1="19.476%" x2="86.047%" y1="88.413%" y2="18.496%"><stop offset="0%" stop-color="#FFF"/><stop offset="100%" stop-color="#93F4FE"/></linearGradient><linearGradient id="node.js_export-g" x1="24.498%" x2="47.584%" y1="97.146%" y2="52.144%"><stop offset="0%"/><stop offset="100%" stop-color="#07326D" stop-opacity="0"/></linearGradient><filter id="node.js_export-h" width="127.1%" height="115.6%" x="-13.6%" y="-7.8%" filterUnits="objectBoundingBox"><feGaussianBlur in="SourceGraphic" stdDeviation="3.239"/></filter><filter id="node.js_export-i" width="113.6%" height="111.7%" x="-6.8%" y="-5.9%" filterUnits="objectBoundingBox"><feGaussianBlur in="SourceGraphic" stdDeviation="3.239"/></filter><linearGradient id="node.js_export-j" x1="100%" x2="2.681%" y1="2.762%" y2="4.36%"><stop offset="0%" stop-color="#0080FF"/><stop offset="100%" stop-color="#081C45"/></linearGradient><radialGradient id="node.js_export-k" r="38.803%" fx="50%" fy="50%"><stop offset="0%" stop-color="#009FFF"/><stop offset="100%" stop-color="#009FFF" stop-opacity="0"/></radialGradient></defs><g fill="none" fill-rule="evenodd"><circle cx="138.916" cy="83.916" r="67.916" fill="url(#node.js_export-a)" opacity=".098"/><g transform="translate(43.414 31.406)"><mask id="node.js_export-c" fill="#fff"><use xlink:href="#node.js_export-b"/></mask><g mask="url(#node.js_export-c)"><g transform="translate(-3.364 -.887)"><polygon fill="url(#node.js_export-d)" points="75.412 0 147.034 41.475 147.034 124.424" opacity=".7"/><polygon fill="url(#node.js_export-e)" points="75.412 165.899 3.791 124.424 3.791 41.475" opacity=".703"/><polygon fill="url(#node.js_export-f)" points="147.034 41.475 147.034 124.424 75.412 165.899"/><polygon fill="url(#node.js_export-g)" points="74.852 6.186 3.23 130.61 3.23 47.661" filter="url(#node.js_export-h)" opacity=".5"/><polygon fill="url(#node.js_export-f)" points="75.412 0 3.791 124.424 3.791 41.475" opacity=".504"/><polygon fill="url(#node.js_export-g)" points="72.048 5.624 143.67 130.048 72.048 171.523 .427 47.098" filter="url(#node.js_export-i)" opacity=".5"/><polygon fill="url(#node.js_export-j)" points="75.412 0 147.034 124.424 75.412 165.899 3.791 41.475" opacity=".7"/><polygon fill="url(#node.js_export-j)" points="75.412 0 147.034 124.424 75.412 165.899 3.791 41.475" opacity=".7"/></g></g></g><circle cx="115" cy="115" r="115" fill="url(#node.js_export-k)" opacity=".35"/></g></svg>