<svg xmlns="http://www.w3.org/2000/svg" xmlns:xlink="http://www.w3.org/1999/xlink" width="230" height="230"><defs><radialGradient id="open_source_export-a" cx="46.913%" cy="45.473%" r="43.971%" fx="46.913%" fy="45.473%"><stop offset="0%" stop-color="#009FFF"/><stop offset="100%" stop-color="#009FFF" stop-opacity="0"/></radialGradient><linearGradient id="open_source_export-b" x1="11.587%" x2="81.504%" y1="19.476%" y2="86.047%"><stop offset="0%" stop-color="#FFF"/><stop offset="100%" stop-color="#93F4FE"/></linearGradient><linearGradient id="open_source_export-c" x1="74.742%" x2="23.003%" y1="11.698%" y2="90.306%"><stop offset="0%" stop-color="#0080FF"/><stop offset="100%" stop-color="#081C45" stop-opacity="0"/></linearGradient><linearGradient id="open_source_export-e" x1="19.476%" x2="86.047%" y1="88.413%" y2="18.496%"><stop offset="0%" stop-color="#004AFF"/><stop offset="100%" stop-color="#93F4FE"/></linearGradient><ellipse id="open_source_export-d" cx="32.404" cy="32.002" rx="31.602" ry="31.58"/><linearGradient id="open_source_export-f" x1="74.279%" x2="6.461%" y1="62.81%" y2="33.287%"><stop offset="0%" stop-color="#004AFF"/><stop offset="100%" stop-color="#93F4FE"/></linearGradient><radialGradient id="open_source_export-h" r="42.982%" fx="50%" fy="50%" gradientTransform="matrix(.3487 .93408 -.93724 .34752 .794 -.14)"><stop offset="0%" stop-color="#009FFF"/><stop offset="100%" stop-color="#009FFF" stop-opacity="0"/></radialGradient></defs><g fill="none" fill-rule="evenodd"><circle cx="115" cy="115" r="115" fill="url(#open_source_export-a)" opacity=".201"/><path fill="url(#open_source_export-b)" d="M82.158 172.549c-18.045-11.947-29.951-32.474-29.951-55.791 0-36.887 29.796-66.79 66.552-66.79 36.756 0 66.553 29.903 66.553 66.79 0 22.308-10.898 42.062-27.643 54.192l-13.485-24.552c8.14-7.016 13.297-17.42 13.297-29.033 0-21.126-17.065-38.252-38.117-38.252-21.05 0-38.116 17.126-38.116 38.252 0 12.248 5.736 23.151 14.659 30.152L82.158 172.55z"/><ellipse cx="121.211" cy="115.588" fill="url(#open_source_export-c)" opacity=".25" rx="75.517" ry="75.772" transform="rotate(30 121.211 115.588)"/><g transform="translate(19.895 47.078)"><mask id="open_source_export-g" fill="#fff"><use xlink:href="#open_source_export-d"/></mask><use fill="url(#open_source_export-e)" opacity=".6" xlink:href="#open_source_export-d"/><path fill="url(#open_source_export-f)" d="M23.805-.833a31.415 31.415 0 0 0-4.653 16.504c0 17.44 14.149 31.58 31.602 31.58a31.61 31.61 0 0 0 9.453-1.438C54.648 54.858 44.658 60.89 33.258 60.89c-17.453 0-31.602-14.139-31.602-31.58 0-14.15 9.314-26.127 22.15-30.143z" mask="url(#open_source_export-g)" opacity=".1" transform="rotate(77 30.931 30.029)"/></g><ellipse cx="143.547" cy="69.133" fill="url(#open_source_export-h)" opacity=".098" rx="62.656" ry="62.867"/></g></svg>