<svg xmlns="http://www.w3.org/2000/svg" width="230" height="230"><defs><radialGradient id="scalability_export-a" r="42.982%" fx="50%" fy="50%" gradientTransform="scale(.99533 1) rotate(69.441 .501 .502)"><stop offset="0%" stop-color="#009FFF"/><stop offset="100%" stop-color="#009FFF" stop-opacity="0"/></radialGradient><linearGradient id="scalability_export-b" x1="100%" x2="2.681%" y1="2.762%" y2="4.36%"><stop offset="0%" stop-color="#0080FF"/><stop offset="100%" stop-color="#081C45"/></linearGradient><linearGradient id="scalability_export-c" x1="50.009%" x2="50.009%" y1="116.775%" y2="-9.271%"><stop offset="0%" stop-color="#14FFFFFF82FFFFFF28"/><stop offset="47.24%" stop-color="#0080FF"/><stop offset="100%" stop-color="#081C45"/></linearGradient><linearGradient id="scalability_export-d" x1="19.476%" x2="86.047%" y1="88.413%" y2="18.496%"><stop offset="0%" stop-color="#004AFF"/><stop offset="100%" stop-color="#93F4FE"/></linearGradient><linearGradient id="scalability_export-e" x1="11.587%" x2="81.504%" y1="19.476%" y2="86.047%"><stop offset="0%" stop-color="#FFF"/><stop offset="100%" stop-color="#93F4FE"/></linearGradient><radialGradient id="scalability_export-f" r="41.364%" fx="50%" fy="50%"><stop offset="0%" stop-color="#009FFF"/><stop offset="100%" stop-color="#009FFF" stop-opacity="0"/></radialGradient></defs><g fill="none" fill-rule="evenodd"><ellipse cx="152.416" cy="150.656" fill="url(#scalability_export-a)" opacity=".098" rx="60.54" ry="60.257"/><g transform="translate(40 29)"><g fill="url(#scalability_export-b)" opacity=".3"><polygon points="75 0 150 43.125 150 129.375 75 172.5 0 129.375 0 43.125"/><polygon points="150 129.375 75 172.5 0 129.375 0 43.125"/></g><g fill="url(#scalability_export-c)" opacity=".7" transform="translate(22.5 25)"><polygon points="52.5 0 105 30 105 90 52.5 120 0 90 0 30"/><polygon points="52.5 60 105 30 105 90 52.5 120"/><polygon points="52.5 0 105 30 52.5 60 0 30"/></g><g fill="url(#scalability_export-d)" opacity=".799" transform="translate(42.5 47.5)"><polygon points="32.5 0 65 19.375 65 58.125 32.5 77.5 0 58.125 0 19.375"/><polygon points="32.5 38.75 65 19.375 65 58.125 32.5 77.5"/></g><g fill="url(#scalability_export-e)" transform="translate(57.5 65)"><polygon points="17.5 0 35 10 35 30 17.5 40 0 30 0 10"/><polygon points="17.5 20 35 10 35 30 17.5 40 0 30 0 10"/></g><polygon fill="url(#scalability_export-b)" points="150 129.375 75 172.5 0 129.375 0 43.125" opacity=".1"/></g><circle cx="115" cy="115" r="115" fill="url(#scalability_export-f)" opacity=".2"/></g></svg>