<?xml version="1.0" encoding="utf-8"?>
<!-- Generator: Adobe Illustrator 23.0.4, SVG Export Plug-In . SVG Version: 6.00 Build 0)  -->
<svg version="1.1" id="レイヤー_1" xmlns="http://www.w3.org/2000/svg" xmlns:xlink="http://www.w3.org/1999/xlink" x="0px"
	 y="0px" viewBox="0 0 251.1 58" style="enable-background:new 0 0 251.1 58;" xml:space="preserve">
<style type="text/css">
	.st0{fill:#FFFFFF;}
</style>
<path class="st0" d="M17.1,53.6c0,0-0.1,0.1-0.2,0.1h-4.3c-0.1,0-0.1,0-0.2-0.1L0.1,39.1c0-0.1,0-0.2,0-0.2L15.7,11
	c0.1-0.1,0.3-0.1,0.3,0l4.4,7.8c0,0,0,0.1,0,0.2L9.8,37.8c0,0.1,0,0.2,0,0.2l6.3,7.3c0,0,0.1,0.1,0.2,0.1h7.4c0.2,0,0.3,0.2,0.2,0.3
	L17.1,53.6z M21.8,0.1C21.9,0,22,0,22.1,0.1l21.7,38.6c0,0.1,0,0.2,0,0.2L31.3,53.6c0,0-0.1,0.1-0.2,0.1H20.9
	c-0.2,0-0.3-0.2-0.2-0.3l6.8-8L34,38c0.1-0.1,0.1-0.2,0-0.2L21.9,16.2l-4.6-8.1c0,0,0-0.1,0-0.2L21.8,0.1z M62.6,42.8
	c0,0.1,0.1,0.2,0.2,0.2h10.9c0.1,0,0.2,0.1,0.2,0.2v7.7c0,0.1-0.1,0.2-0.2,0.2h-11H55c-0.1,0-0.2-0.1-0.2-0.2V26.2c0,0,0-0.1,0-0.1
	l7.4-8.6c0.1-0.2,0.3-0.1,0.3,0.1V42.8z M84.5,50.8c0,0.1-0.1,0.2-0.2,0.2H77c-0.1,0-0.2-0.1-0.2-0.2V35.9c0,0,0-0.1,0-0.1l7.4-8.6
	c0.1-0.2,0.3-0.1,0.3,0.1V50.8z M124.4,39.1l7.9,11.7c0.1,0.1,0,0.3-0.2,0.3h-8.2c0,0-0.1,0-0.2-0.1l-6.2-9.7
	c-0.1-0.2-0.3-0.1-0.3,0.1V43v7.9c0,0.1-0.1,0.2-0.2,0.2h-7.4c-0.1,0-0.2-0.1-0.2-0.2V26.2c0,0,0-0.1,0-0.1l7.4-8.6
	c0.1-0.2,0.3-0.1,0.3,0.1v18.5c0,0.2,0.2,0.3,0.3,0.1l5.6-9.4c0,0,0.1-0.1,0.2-0.1h8.5c0.2,0,0.2,0.2,0.2,0.3l-7.6,11.7
	C124.3,38.9,124.3,39,124.4,39.1z M97,51.5c-5,0-8.3-1.7-10-5.3c-0.1-0.1,0-0.2,0.1-0.3l6-3.2c0.1,0,0.2,0,0.3,0.1
	c0.6,1.6,1.9,2.4,3.6,2.4c1.9,0,2.3-0.8,2.3-1.5c0-1-1.4-1.4-3.4-1.9c-3.4-0.9-8-2.1-8-7.5c0-3.9,2.8-7.9,9.1-7.9
	c4.3,0,7.4,1.7,9.2,5.1c0.1,0.1,0,0.2-0.1,0.3l-5.8,2.7c-0.1,0-0.2,0-0.2-0.1c-0.7-1.2-1.7-1.9-2.9-1.9c-1.2,0-1.9,0.5-1.9,1.3
	c0,1.1,1.5,1.4,3.4,1.9c3.5,0.8,8.2,1.9,8.2,7.8S101.8,51.5,97,51.5z"/>
<path class="st0" d="M148,46.8l4.8-2.8c0.8,1.4,1.6,2.1,3.4,2.1c2.4,0,3.2-1.4,3.2-2.9V26.8h5.5v16.5c0,5.3-3.7,8.3-8.7,8.3
	C152.4,51.5,149.6,49.9,148,46.8z"/>
<path class="st0" d="M186.9,33.7V51h-5.2v-1.6c-1.1,1.3-2.8,2.1-5.2,2.1c-4.5,0-8.3-4-8.3-9.2c0-5.2,3.7-9.2,8.3-9.2
	c2.3,0,4,0.8,5.2,2.1v-1.6H186.9z M181.8,42.4c0-2.6-1.7-4.2-4.1-4.2c-2.4,0-4.1,1.6-4.1,4.2s1.7,4.2,4.1,4.2
	C180,46.6,181.8,45,181.8,42.4z"/>
<path class="st0" d="M209.5,42.4c0,5.2-3.7,9.2-8.3,9.2c-2.3,0-4-0.8-5.2-2.1V58h-5.2V33.7h5.2v1.6c1.1-1.3,2.8-2.1,5.2-2.1
	C205.8,33.2,209.5,37.2,209.5,42.4z M204.3,42.4c0-2.6-1.7-4.2-4.1-4.2c-2.4,0-4.1,1.6-4.1,4.2s1.7,4.2,4.1,4.2
	C202.6,46.6,204.3,45,204.3,42.4z"/>
<path class="st0" d="M230.6,33.7V51h-5.2v-1.6c-1.1,1.3-2.8,2.1-5.2,2.1c-4.5,0-8.3-4-8.3-9.2c0-5.2,3.7-9.2,8.3-9.2
	c2.3,0,4,0.8,5.2,2.1v-1.6H230.6z M225.4,42.4c0-2.6-1.7-4.2-4.1-4.2c-2.4,0-4.1,1.6-4.1,4.2s1.7,4.2,4.1,4.2
	C223.6,46.6,225.4,45,225.4,42.4z"/>
<path class="st0" d="M251,40.4V51h-5.2v-9.9c0-2.1-1.4-3.2-3-3.2c-1.9,0-3.2,1.1-3.2,3.6V51h-5.2V33.7h5.2v1.6
	c0.9-1.3,2.7-2.1,5-2.1C248,33.2,251,35.7,251,40.4z"/>
</svg>
