<?xml version="1.0" encoding="utf-8"?>
<!-- Generator: Adobe Illustrator 24.0.1, SVG Export Plug-In . SVG Version: 6.00 Build 0)  -->
<svg version="1.1" id="レイヤー_1" xmlns="http://www.w3.org/2000/svg" xmlns:xlink="http://www.w3.org/1999/xlink" x="0px"
	 y="0px" viewBox="0 0 359 258" style="enable-background:new 0 0 359 258;" xml:space="preserve">
<style type="text/css">
	.st0{fill:#FFFFFF;}
</style>
<g transform="translate(59 60)">
	<path class="st0" d="M-9.9,112.8l17.8-20C8.2,92.5,8,92,7.5,92h-19.6c-0.1,0-0.3-0.1-0.4-0.2l-16.6-18.6c-0.1-0.2-0.2-0.4-0.1-0.6
		l27.8-47.7c0.1-0.2,0.1-0.4,0-0.5L-12.9,4.6c-0.2-0.3-0.7-0.3-0.9,0l-41.1,70.6c-0.1,0.2-0.1,0.4,0,0.6l33,37.1
		c0.1,0.1,0.2,0.2,0.4,0.2h11.2C-10.2,113-10,112.9-9.9,112.8z"/>
	<path class="st0" d="M2.3-23L-9.3-3.2c-0.1,0.2-0.1,0.4,0,0.5l12,20.6l31.8,54.6c0.1,0.2,0.1,0.4-0.1,0.6L17.6,91.9l-17.9,20.2
		c-0.3,0.3-0.1,0.8,0.4,0.8h26.8c0.1,0,0.3-0.1,0.4-0.2l33-37.1c0.1-0.2,0.2-0.4,0.1-0.6L3.1-23C3-23.4,2.5-23.4,2.3-23z
		 M109.8,85.2V21.6c0-0.5-0.6-0.7-0.9-0.3L89.5,43c-0.1,0.1-0.1,0.2-0.1,0.3v62.4c0,0.3,0.2,0.5,0.5,0.5h19.9h29.1
		c0.3,0,0.5-0.2,0.5-0.5V86.2c0-0.3-0.2-0.5-0.5-0.5h-28.6C110.1,85.7,109.8,85.5,109.8,85.2z M167.6,105.7V46.1
		c0-0.5-0.6-0.7-0.9-0.3l-19.4,21.7c-0.1,0.1-0.1,0.2-0.1,0.3v37.9c0,0.3,0.2,0.5,0.5,0.5h19.4C167.4,106.2,167.6,105.9,167.6,105.7
		z M272.6,75.8c-0.1-0.2-0.1-0.4,0-0.6l19.9-29.6c0.2-0.3,0-0.8-0.4-0.8h-22.3c-0.2,0-0.3,0.1-0.4,0.2l-14.7,23.8
		c-0.3,0.4-0.9,0.2-0.9-0.3v-47c0-0.5-0.6-0.7-0.9-0.3l-19.4,21.7c-0.1,0.1-0.1,0.2-0.1,0.3v62.5c0,0.3,0.2,0.5,0.5,0.5h19.4
		c0.3,0,0.5-0.2,0.5-0.5v-20v-3.9c0-0.5,0.6-0.7,0.9-0.3L271,106c0.1,0.1,0.3,0.2,0.4,0.2H293c0.4,0,0.6-0.5,0.4-0.8L272.6,75.8z
		 M200.5,107.4c12.6,0,26-5.3,26-20.1S214.1,69.7,205,67.6c-5-1.2-9-2.1-9-4.8c0-2.1,1.9-3.4,5-3.4c3.2,0,5.8,1.6,7.6,4.7
		c0.1,0.2,0.4,0.3,0.6,0.2l15.4-6.9c0.3-0.1,0.4-0.4,0.2-0.7c-4.7-8.6-12.9-13-24.3-13c-16.5-0.1-24,10-24,20
		c0,13.7,12.2,16.8,21.1,19.1c5.2,1.3,8.9,2.3,8.9,4.9c0,1.7-1,3.8-6,3.8c-4.6,0-7.9-2-9.6-6c-0.1-0.3-0.4-0.4-0.7-0.3l-15.9,8
		c-0.3,0.1-0.4,0.4-0.2,0.7C178.6,103,187.3,107.4,200.5,107.4z"/>
</g>
<g>
	<path class="st0" d="M50.8,206.2c0,2.3-1.9,3.9-4.2,3.9H41v-13.2h5.2c2.3,0,4.2,1.4,4.2,3.8c0,1.1-0.4,2-1.1,2.5
		C50.1,203.7,50.8,204.8,50.8,206.2z M43.9,199.6v2.3H46c0.7,0,1.1-0.4,1.1-1.2c0-0.7-0.4-1.2-1.1-1.2L43.9,199.6L43.9,199.6z
		 M47.6,205.9c0-0.8-0.4-1.2-1.2-1.2h-2.5v2.5h2.5C47.2,207.2,47.6,206.6,47.6,205.9z"/>
	<path class="st0" d="M52.1,196.2H55v13.7h-2.9V196.2z"/>
	<path class="st0" d="M56.5,205.3c0-2.8,2.2-5,5-5s5,2.2,5,5s-2.2,5-5,5C58.8,210.3,56.5,208,56.5,205.3z M63.7,205.3
		c0-1.3-1-2.2-2.2-2.2s-2.2,0.9-2.2,2.2s1,2.2,2.2,2.2S63.7,206.6,63.7,205.3z"/>
	<path class="st0" d="M67.7,205.3c0-2.8,2.1-5,5-5c1.9,0,3.4,1,4.2,2.4l-2.4,1.4c-0.3-0.7-1-1.1-1.9-1.1c-1.2,0-2.1,0.9-2.1,2.2
		s0.9,2.2,2.1,2.2c0.8,0,1.6-0.4,1.9-1.1l2.4,1.4c-0.8,1.4-2.4,2.4-4.2,2.4C69.8,210.3,67.7,208,67.7,205.3z"/>
	<path class="st0" d="M83.9,210l-3-4.2v4.2H78v-13.2h2.9v7.9l2.9-4.1h3.3l-3.4,4.8l3.5,4.8h-3.3V210z"/>
	<path class="st0" d="M87.1,205.3c0-2.8,2.1-5,5-5c1.9,0,3.4,1,4.2,2.4l-2.4,1.4c-0.3-0.7-1-1.1-1.9-1.1c-1.2,0-2.1,0.9-2.1,2.2
		s0.9,2.2,2.1,2.2c0.8,0,1.6-0.4,1.9-1.1l2.4,1.4c-0.8,1.4-2.4,2.4-4.2,2.4C89.3,210.3,87.1,208,87.1,205.3z"/>
	<path class="st0" d="M106.6,204.2v5.8h-2.9v-5.4c0-1.2-0.8-1.7-1.7-1.7c-1,0-1.8,0.6-1.8,2v5.1h-2.9v-13.2h2.9v4.7
		c0.6-0.7,1.4-1.1,2.7-1.1C104.9,200.3,106.6,201.6,106.6,204.2z"/>
	<path class="st0" d="M118.2,200.5v9.4h-2.9V209c-0.7,0.7-1.6,1.1-2.8,1.1c-2.4,0-4.5-2.2-4.5-5s2-5,4.5-5c1.2,0,2.2,0.4,2.8,1.1
		v-0.9h2.9V200.5z M115.3,205.3c0-1.4-1-2.3-2.2-2.3c-1.3,0-2.2,0.9-2.2,2.3c0,1.4,1,2.3,2.2,2.3
		C114.5,207.6,115.3,206.7,115.3,205.3z"/>
	<path class="st0" d="M120,198.1c0-0.9,0.8-1.7,1.7-1.7s1.7,0.8,1.7,1.7s-0.8,1.7-1.7,1.7S120,199,120,198.1z M120.3,200.5h2.9v9.4
		h-2.9V200.5z"/>
	<path class="st0" d="M134.3,204.2v5.8h-2.9v-5.4c0-1.2-0.8-1.7-1.7-1.7c-1,0-1.8,0.6-1.8,2v5.1H125v-9.4h2.9v0.9
		c0.6-0.7,1.4-1.1,2.7-1.1C132.6,200.3,134.3,201.6,134.3,204.2z"/>
	<path class="st0" d="M148.7,207.9h-4.9l-0.7,2.1h-3.3l4.5-13.2h3.9l4.5,13.2h-3.3L148.7,207.9z M147.8,205l-1.6-4.9l-1.6,4.9H147.8
		z"/>
	<path class="st0" d="M163.9,205.3c0,2.8-2,5-4.5,5c-1.2,0-2.2-0.4-2.8-1.1v4.7h-2.9v-13.2h2.9v0.9c0.7-0.7,1.6-1.1,2.8-1.1
		C161.9,200.3,163.9,202.5,163.9,205.3z M161,205.3c0-1.4-1-2.3-2.2-2.3c-1.3,0-2.2,0.9-2.2,2.3c0,1.4,1,2.3,2.2,2.3
		C160.1,207.6,161,206.7,161,205.3z"/>
	<path class="st0" d="M175.6,205.3c0,2.8-2,5-4.5,5c-1.2,0-2.2-0.4-2.8-1.1v4.7h-2.9v-13.2h2.9v0.9c0.7-0.7,1.6-1.1,2.8-1.1
		C173.6,200.3,175.6,202.5,175.6,205.3z M172.8,205.3c0-1.4-1-2.3-2.2-2.3c-1.3,0-2.2,0.9-2.2,2.3c0,1.4,1,2.3,2.2,2.3
		C171.9,207.6,172.8,206.7,172.8,205.3z"/>
	<path class="st0" d="M177.3,196.2h2.9v13.7h-2.9V196.2z"/>
	<path class="st0" d="M181.8,198.1c0-0.9,0.8-1.7,1.7-1.7s1.7,0.8,1.7,1.7s-0.8,1.7-1.7,1.7S181.8,199,181.8,198.1z M182.2,200.5
		h2.9v9.4h-2.9V200.5z"/>
	<path class="st0" d="M186.6,205.3c0-2.8,2.1-5,5-5c1.9,0,3.4,1,4.2,2.4l-2.4,1.4c-0.3-0.7-1-1.1-1.9-1.1c-1.2,0-2.1,0.9-2.1,2.2
		s0.9,2.2,2.1,2.2c0.8,0,1.6-0.4,1.9-1.1l2.4,1.4c-0.8,1.4-2.4,2.4-4.2,2.4C188.7,210.3,186.6,208,186.6,205.3z"/>
	<path class="st0" d="M206.4,200.5v9.4h-2.9V209c-0.7,0.7-1.6,1.1-2.8,1.1c-2.4,0-4.5-2.2-4.5-5s2-5,4.5-5c1.2,0,2.2,0.4,2.8,1.1
		v-0.9h2.9V200.5z M203.7,205.3c0-1.4-1-2.3-2.2-2.3s-2.2,0.9-2.2,2.3c0,1.4,1,2.3,2.2,2.3C202.7,207.6,203.7,206.7,203.7,205.3z"/>
	<path class="st0" d="M212.1,203.3v3.3c0,0.8,0.7,0.9,2,0.8v2.5c-3.7,0.3-4.8-0.8-4.8-3.3v-3.3h-1.6v-2.8h1.6v-1.8l2.9-0.9v2.7h2
		v2.8H212.1L212.1,203.3z"/>
	<path class="st0" d="M215.4,198.1c0-0.9,0.8-1.7,1.7-1.7c0.9,0,1.7,0.8,1.7,1.7s-0.8,1.7-1.7,1.7
		C216.2,199.7,215.4,199,215.4,198.1z M215.6,200.5h2.9v9.4h-2.9V200.5z"/>
	<path class="st0" d="M220,205.3c0-2.8,2.2-5,5-5s5,2.2,5,5s-2.2,5-5,5C222.3,210.3,220,208,220,205.3z M227.3,205.3
		c0-1.3-1-2.2-2.2-2.2s-2.2,0.9-2.2,2.2s1,2.2,2.2,2.2C226.4,207.5,227.3,206.6,227.3,205.3z"/>
	<path class="st0" d="M240.8,204.2v5.8h-2.9v-5.4c0-1.2-0.8-1.7-1.7-1.7c-1,0-1.8,0.6-1.8,2v5.1h-2.9v-9.4h2.9v0.9
		c0.6-0.7,1.4-1.1,2.7-1.1C239.1,200.3,240.8,201.6,240.8,204.2z"/>
	<path class="st0" d="M257.2,201.3c0,2.5-2,4.5-4.7,4.5h-2v4.1h-3v-13.2h5C255.1,196.7,257.2,198.8,257.2,201.3z M254.1,201.3
		c0-1-0.7-1.7-1.6-1.7h-2v3.4h2C253.4,203.1,254.1,202.3,254.1,201.3z"/>
	<path class="st0" d="M258.5,196.2h2.9v13.7h-2.9V196.2z"/>
	<path class="st0" d="M273.1,200.5v9.4h-2.9V209c-0.7,0.7-1.6,1.1-2.8,1.1c-2.4,0-4.5-2.2-4.5-5s2-5,4.5-5c1.2,0,2.2,0.4,2.8,1.1
		v-0.9h2.9V200.5z M270.2,205.3c0-1.4-1-2.3-2.2-2.3s-2.2,0.9-2.2,2.3c0,1.4,1,2.3,2.2,2.3S270.2,206.7,270.2,205.3z"/>
	<path class="st0" d="M278.8,203.3v3.3c0,0.8,0.7,0.9,2,0.8v2.5c-3.7,0.3-4.8-0.8-4.8-3.3v-3.3h-1.6v-2.8h1.6v-1.8l2.9-0.9v2.7h2
		v2.8H278.8L278.8,203.3z"/>
	<path class="st0" d="M285.3,200.5h1.8v2.8h-1.8v6.8h-2.9v-6.8h-1.2v-2.8h1.2c0-2.7,1.4-4.2,4.5-4v2.8
		C286,199.2,285.3,199.5,285.3,200.5z"/>
	<path class="st0" d="M287.3,205.3c0-2.8,2.2-5,5-5s5,2.2,5,5s-2.2,5-5,5S287.3,208,287.3,205.3z M294.5,205.3c0-1.3-1-2.2-2.2-2.2
		s-2.2,0.9-2.2,2.2s1,2.2,2.2,2.2S294.5,206.6,294.5,205.3z"/>
	<path class="st0" d="M304.6,200.4v3.2c-1.2-0.2-2.9,0.3-2.9,2.1v4.2h-2.9v-9.4h2.9v1.7C302.2,201,303.4,200.4,304.6,200.4z"/>
	<path class="st0" d="M320.1,204.2v5.8h-2.9v-5.5c0-1-0.4-1.6-1.3-1.6c-1,0-1.4,0.7-1.4,1.8v5.3h-2.9v-5.5c0-1-0.4-1.6-1.3-1.6
		c-1,0-1.4,0.7-1.4,1.8v5.3H306v-9.4h2.9v0.9c0.4-0.7,1.2-1.1,2.5-1.1c1.1,0,2,0.4,2.4,1.2c0.6-0.8,1.4-1.2,2.8-1.2
		C318.7,200.3,320.1,201.8,320.1,204.2z"/>
</g>
</svg>
