<?xml version="1.0" encoding="utf-8"?>
<!-- Generator: Adobe Illustrator 25.2.1, SVG Export Plug-In . SVG Version: 6.00 Build 0)  -->
<svg version="1.0" id="レイヤー_1" xmlns="http://www.w3.org/2000/svg" xmlns:xlink="http://www.w3.org/1999/xlink" x="0px"
	 y="0px" width="600px" height="400px" viewBox="0 0 600 400" style="enable-background:new 0 0 600 400;" xml:space="preserve">
<style type="text/css">
	.st0{opacity:0.3;}
	.st1{fill:#4070F4;}
	.st2{opacity:0.13;}
	.st3{fill:#0C152E;}
</style>
<g class="st0">
	<circle class="st1" cx="482.771" cy="651.059" r="212.675"/>
</g>
<g class="st2">
	<g>
		<path class="st3" d="M471.718,438.716c-3.254,0-6.501-0.838-9.402-2.51l-56.149-32.418c-5.801-3.351-9.402-9.588-9.402-16.284
			v-64.836c0-6.691,3.601-12.929,9.402-16.28l56.149-32.418c5.801-3.349,13.007-3.338,18.801,0l56.149,32.418
			c5.798,3.348,9.402,9.585,9.402,16.28v64.836c0,6.699-3.604,12.936-9.402,16.284l-56.149,32.418
			C478.22,437.878,474.965,438.716,471.718,438.716z M471.714,279.083c-1.929,0-3.861,0.499-5.585,1.493l-56.149,32.418
			c-3.448,1.988-5.589,5.697-5.589,9.674v64.836c0,3.981,2.141,7.689,5.589,9.678l56.149,32.418c3.444,1.988,7.723,1.988,11.175,0
			l56.149-32.418c3.448-1.988,5.589-5.697,5.589-9.678v-64.836c0-3.977-2.141-7.686-5.589-9.674l-56.149-32.418
			C475.58,279.582,473.647,279.083,471.714,279.083z"/>
		<path class="st3" d="M329.441,438.716c-3.251,0-6.502-0.838-9.402-2.51l-56.149-32.418c-5.798-3.348-9.399-9.588-9.399-16.284
			v-64.836c0-6.695,3.601-12.932,9.399-16.28l56.149-32.418c5.801-3.344,13.003-3.344,18.804,0l56.149,32.418
			c5.798,3.348,9.398,9.585,9.398,16.28v64.836c0,6.695-3.601,12.936-9.398,16.284l-56.149,32.418
			C335.942,437.878,332.692,438.716,329.441,438.716z M329.441,279.083c-1.933,0-3.865,0.499-5.589,1.493l-56.149,32.418
			c-3.444,1.988-5.585,5.697-5.585,9.674v64.836c0,3.981,2.141,7.689,5.585,9.678l56.149,32.418c3.448,1.988,7.73,1.988,11.178,0
			l56.149-32.418c3.444-1.988,5.585-5.697,5.585-9.678v-64.836c0-3.977-2.141-7.686-5.585-9.674l-56.149-32.418
			C333.306,279.582,331.374,279.083,329.441,279.083z"/>
		<path class="st3" d="M301.535,393.117c0,8.342-6.115,10.259-13.683,5.889l-16.007-9.242c-0.99-0.571-1.792-1.837-1.792-2.827
			v-43.501c0-0.99,0.802-1.329,1.792-0.757l14.797,8.543c7.387,4.265,13.38,13.039,13.38,21.178c0,3.227-0.953,5.352-2.584,6.495
			c-0.525,0.368-0.454,1.424,0.171,2.365C300.023,384.898,301.535,389.024,301.535,393.117z M279.74,359.12v4.757
			c0,0.99,0.802,2.255,1.792,2.827l5.11,2.95c2.179,1.258,3.693,0.383,3.693-2.04c0-2.421-1.452-5.008-3.693-6.302l-5.11-2.95
			C280.542,357.791,279.74,358.13,279.74,359.12z M291.848,386.718c0-2.624-1.573-5.416-3.996-6.815l-6.32-3.649
			c-0.99-0.571-1.792-0.232-1.792,0.757v5.429c0,0.99,0.802,2.255,1.792,2.827l6.32,3.649
			C290.275,390.315,291.848,389.341,291.848,386.718z"/>
		<path class="st3" d="M519.68,387.905l-13.039,7.528c-0.8,0.462-1.503,1.397-1.723,2.293l-1.376,5.596
			c-0.22,0.896-0.923,1.832-1.723,2.293l-6.821,3.938c-1.205,0.696-2.066,0.028-1.714-1.327l13.313-51.188
			c0.231-0.886,0.926-1.802,1.714-2.257l9.7-5.6c0.788-0.455,1.483-0.342,1.714,0.278l13.311,35.816
			c0.352,0.948-0.509,2.61-1.714,3.306l-6.821,3.938c-0.8,0.462-1.503,0.338-1.723-0.304l-1.376-4.008
			C521.182,387.568,520.479,387.444,519.68,387.905z M517.468,376.807l-2.585-7.51c-0.497-1.443-2.948-0.028-3.445,1.989
			l-2.585,10.495c-0.329,1.335,0.531,1.98,1.723,1.292l5.17-2.985C516.937,379.401,517.797,377.763,517.468,376.807z"/>
		<path class="st1" d="M400.581,315.504c-3.254,0-6.501-0.838-9.402-2.51l-56.149-32.418c-5.798-3.348-9.402-9.587-9.402-16.285
			v-64.836c0-6.695,3.604-12.934,9.402-16.282l56.149-32.418c5.801-3.353,13.007-3.342,18.801,0l56.149,32.418
			c5.801,3.349,9.402,9.588,9.402,16.282v64.836c0,6.695-3.601,12.934-9.402,16.285l-56.149,32.418
			C407.083,314.666,403.828,315.504,400.581,315.504z M400.578,155.867c-1.929,0-3.861,0.497-5.585,1.491l-56.149,32.42
			c-3.448,1.988-5.589,5.697-5.589,9.676v64.836c0,3.982,2.141,7.691,5.589,9.68l56.149,32.418c3.448,1.988,7.727,1.988,11.175,0
			l56.149-32.418c3.448-1.988,5.589-5.699,5.589-9.68v-64.836c0-3.977-2.141-7.686-5.589-9.676l-56.149-32.418
			C404.443,156.364,402.51,155.867,400.578,155.867z"/>
		<path class="st1" d="M366.537,271.181v6.774c0,0.99-0.802,1.329-1.792,0.757l-21.238-12.262c-0.99-0.571-1.792-1.837-1.792-2.827
			v-43.501c0-0.99,0.802-1.329,1.792-0.757l6.103,3.523c0.99,0.571,1.792,1.837,1.792,2.827v33.143c0,0.99,0.802,2.255,1.792,2.827
			l11.55,6.669C365.735,268.926,366.537,270.191,366.537,271.181z"/>
	</g>
</g>
</svg>
