<?xml version="1.0" encoding="utf-8"?>
<!-- Generator: Adobe Illustrator 24.0.1, SVG Export Plug-In . SVG Version: 6.00 Build 0)  -->
<svg version="1.1" id="レイヤー_1" xmlns="http://www.w3.org/2000/svg" xmlns:xlink="http://www.w3.org/1999/xlink" x="0px"
	 y="0px" viewBox="0 0 221.8 36.2" style="enable-background:new 0 0 221.8 36.2;" xml:space="preserve">
<style type="text/css">
	.st0{fill:#05112A;}
</style>
<g>
	<g>
		<path class="st0" d="M12,36.1l4.7-5.3c0.1-0.1,0-0.2-0.1-0.2h-5.2c0,0-0.1,0-0.1,0l-4.4-5c0,0,0-0.1,0-0.2l7.4-12.6
			c0,0,0-0.1,0-0.1l-3.1-5.3c-0.1-0.1-0.2-0.1-0.2,0L0,26.1c0,0,0,0.1,0,0.2l8.8,9.8c0,0,0.1,0,0.1,0L12,36.1
			C11.9,36.2,11.9,36.2,12,36.1"/>
		<path class="st0" d="M15.2,0.1l-3.1,5.3c0,0,0,0.1,0,0.1l3.2,5.5l8.4,14.5c0,0,0,0.1,0,0.2l-4.5,5h0L14.5,36
			c-0.1,0.1,0,0.2,0.1,0.2h7.1c0,0,0.1,0,0.1,0l8.8-9.8c0,0,0-0.1,0-0.2L15.4,0.1C15.4,0,15.3,0,15.2,0.1"/>
	</g>
	<g>
		<path class="st0" d="M38.5,23.2c0-6.6,4.9-11.6,11.6-11.6c4.1,0,7.6,2,9.6,5.2l-4.4,2.6c-1-1.7-2.9-2.7-5.2-2.7
			c-4,0-6.5,2.6-6.5,6.6s2.6,6.6,6.5,6.6c2.3,0,4.2-1,5.2-2.7l4.4,2.6c-1.9,3.2-5.5,5.2-9.6,5.2C43.3,34.8,38.5,29.8,38.5,23.2z"/>
		<path class="st0" d="M61.4,26.4c0-4.8,3.8-8.4,8.5-8.4c4.7,0,8.5,3.7,8.5,8.4s-3.8,8.4-8.5,8.4C65.2,34.8,61.4,31.1,61.4,26.4z
			 M73.5,26.4c0-2.3-1.6-3.8-3.7-3.8c-2.1,0-3.7,1.5-3.7,3.8s1.6,3.8,3.7,3.8C71.9,30.1,73.5,28.6,73.5,26.4z"/>
		<path class="st0" d="M104.9,24.6v9.8h-4.8V25c0-1.6-0.8-2.6-2.3-2.6c-1.6,0-2.5,1.1-2.5,3v9h-4.8V25c0-1.6-0.8-2.6-2.3-2.6
			c-1.6,0-2.5,1.1-2.5,3v9H81V18.4h4.8v1.5c0.7-1.1,2.1-1.9,4.3-1.9c1.9,0,3.3,0.8,4.2,2.1c0.9-1.3,2.4-2.1,4.6-2.1
			C102.5,18,104.9,20.6,104.9,24.6z"/>
		<path class="st0" d="M132.1,24.6v9.8h-4.8V25c0-1.6-0.8-2.6-2.3-2.6c-1.6,0-2.5,1.1-2.5,3v9h-4.8V25c0-1.6-0.8-2.6-2.3-2.6
			c-1.6,0-2.5,1.1-2.5,3v9h-4.8V18.4h4.8v1.5c0.7-1.1,2.1-1.9,4.3-1.9c1.9,0,3.3,0.8,4.2,2.1c0.9-1.3,2.4-2.1,4.6-2.1
			C129.7,18,132.1,20.6,132.1,24.6z"/>
		<path class="st0" d="M151.8,18.4v15.9H147v-1.5c-1.1,1.2-2.6,1.9-4.8,1.9c-4.2,0-7.6-3.7-7.6-8.4s3.4-8.4,7.6-8.4
			c2.1,0,3.7,0.7,4.8,1.9v-1.5H151.8z M147,26.4c0-2.4-1.6-3.9-3.8-3.9c-2.2,0-3.8,1.5-3.8,3.9s1.6,3.9,3.8,3.9
			C145.4,30.3,147,28.8,147,26.4z"/>
		<path class="st0" d="M170.6,24.6v9.8h-4.8v-9.1c0-2-1.2-2.9-2.8-2.9c-1.8,0-3,1-3,3.3v8.7h-4.8V18.4h4.8v1.5
			c0.9-1.2,2.5-1.9,4.6-1.9C167.8,18,170.6,20.2,170.6,24.6z"/>
		<path class="st0" d="M190.2,12v22.3h-4.8v-1.5c-1.1,1.2-2.6,1.9-4.8,1.9c-4.2,0-7.6-3.7-7.6-8.4s3.4-8.4,7.6-8.4
			c2.1,0,3.7,0.7,4.8,1.9V12H190.2z M185.5,26.4c0-2.4-1.6-3.9-3.8-3.9c-2.2,0-3.8,1.5-3.8,3.9s1.6,3.9,3.8,3.9
			C183.9,30.3,185.5,28.8,185.5,26.4z"/>
		<path class="st0" d="M201.8,30.5c1.3,0,2.4-0.5,3.1-1.2l3.8,2.2c-1.6,2.2-3.9,3.3-7,3.3c-5.5,0-8.8-3.7-8.8-8.4s3.4-8.4,8.5-8.4
			c4.7,0,8.1,3.6,8.1,8.4c0,0.7-0.1,1.3-0.2,1.9H198C198.6,29.9,200.1,30.5,201.8,30.5z M204.8,24.7c-0.5-1.8-1.9-2.5-3.4-2.5
			c-1.8,0-3,0.9-3.5,2.5H204.8z"/>
		<path class="st0" d="M221.8,18.1v5.4c-2-0.3-4.8,0.5-4.8,3.6v7.2h-4.8V18.4h4.8v2.8C217.7,19.1,219.8,18.1,221.8,18.1z"/>
	</g>
</g>
</svg>
