<?xml version="1.0" encoding="utf-8"?>
<!-- Generator: Adobe Illustrator 24.0.1, SVG Export Plug-In . SVG Version: 6.00 Build 0)  -->
<svg version="1.1" id="レイヤー_1" xmlns="http://www.w3.org/2000/svg" xmlns:xlink="http://www.w3.org/1999/xlink" x="0px"
	 y="0px" viewBox="0 0 172 36.2" style="enable-background:new 0 0 172 36.2;" xml:space="preserve">
<style type="text/css">
	.st0{fill:#05112A;}
</style>
<g>
	<g>
		<path class="st0" d="M12,36.1l4.7-5.3c0.1-0.1,0-0.2-0.1-0.2h-5.2c0,0-0.1,0-0.1,0l-4.4-5c0,0,0-0.1,0-0.2l7.4-12.6
			c0,0,0-0.1,0-0.1l-3.1-5.3c-0.1-0.1-0.2-0.1-0.2,0L0,26.1c0,0,0,0.1,0,0.2l8.8,9.8c0,0,0.1,0,0.1,0L12,36.1
			C11.9,36.2,11.9,36.2,12,36.1"/>
		<path class="st0" d="M15.2,0.1l-3.1,5.3c0,0,0,0.1,0,0.1l3.2,5.5l8.4,14.5c0,0.1,0,0.1,0,0.2l-4.5,5h0L14.5,36
			c-0.1,0.1,0,0.2,0.1,0.2h7.1c0,0,0.1,0,0.1,0l8.8-9.8c0,0,0-0.1,0-0.2L15.4,0.1C15.4,0,15.3,0,15.2,0.1"/>
	</g>
	<g>
		<path class="st0" d="M53.4,29.4v4.9h-14V12h13.9v4.9h-8.8v3.7h8v4.8h-8v4H53.4z"/>
		<path class="st0" d="M56.2,11.1h4.8v23.3h-4.8V11.1z"/>
		<path class="st0" d="M72.6,30.5c1.3,0,2.4-0.5,3.1-1.2l3.8,2.2c-1.6,2.2-3.9,3.3-7,3.3c-5.5,0-8.8-3.7-8.8-8.4s3.4-8.4,8.5-8.4
			c4.7,0,8.1,3.6,8.1,8.4c0,0.7-0.1,1.3-0.2,1.9H68.7C69.3,30,70.8,30.5,72.6,30.5z M75.5,24.7c-0.5-1.8-1.9-2.5-3.4-2.5
			c-1.8,0-3,0.9-3.5,2.5H75.5z"/>
		<path class="st0" d="M106.9,24.6v9.8h-4.8V25c0-1.6-0.8-2.6-2.3-2.6c-1.6,0-2.5,1.1-2.5,3v9h-4.8V25c0-1.6-0.8-2.6-2.3-2.6
			c-1.6,0-2.5,1.1-2.5,3v9h-4.8V18.4h4.8v1.5c0.7-1.1,2.1-1.9,4.3-1.9c1.9,0,3.3,0.8,4.2,2.1c0.9-1.3,2.4-2.1,4.6-2.1
			C104.5,18,106.9,20.6,106.9,24.6z"/>
		<path class="st0" d="M118.3,30.5c1.3,0,2.4-0.5,3.1-1.2l3.8,2.2c-1.6,2.2-3.9,3.3-7,3.3c-5.5,0-8.8-3.7-8.8-8.4s3.4-8.4,8.5-8.4
			c4.7,0,8.1,3.6,8.1,8.4c0,0.7-0.1,1.3-0.2,1.9h-11.3C115,30,116.5,30.5,118.3,30.5z M121.2,24.7c-0.5-1.8-1.9-2.5-3.4-2.5
			c-1.8,0-3,0.9-3.5,2.5H121.2z"/>
		<path class="st0" d="M144,24.6v9.8h-4.8v-9.1c0-2-1.2-2.9-2.8-2.9c-1.8,0-3,1-3,3.3v8.7h-4.8V18.4h4.8v1.5
			c0.9-1.2,2.5-1.9,4.6-1.9C141.2,18,144,20.3,144,24.6z"/>
	</g>
	<g>
		<path class="st0" d="M153.3,23v5.6c0,1.4,1.2,1.5,3.3,1.4v4.3c-6.3,0.6-8.1-1.2-8.1-5.7V23H146v-4.6h2.6v-3l4.8-1.4v4.5h3.3V23
			H153.3z"/>
		<path class="st0" d="M172,29.6c0,3.7-3.2,5.2-6.6,5.2c-3.2,0-5.6-1.2-6.9-3.8l4.1-2.4c0.4,1.2,1.3,1.9,2.7,1.9
			c1.1,0,1.7-0.4,1.7-1c0-1.8-7.8-0.8-7.8-6.3c0-3.5,2.9-5.2,6.3-5.2c2.6,0,4.9,1.1,6.2,3.4l-4.1,2.2c-0.4-0.8-1.1-1.4-2.1-1.4
			c-0.8,0-1.3,0.3-1.3,0.9C164.1,24.9,172,23.7,172,29.6z"/>
	</g>
</g>
</svg>
