<svg id="Layer_1" data-name="Layer 1" xmlns="http://www.w3.org/2000/svg" xmlns:xlink="http://www.w3.org/1999/xlink" viewBox="0 0 475 256"><defs><clipPath id="clip-path"><rect x="31.22" y="0.15" width="429.76" height="216.02" style="fill:none"/></clipPath><clipPath id="clip-path-2"><rect x="249.12" y="128.52" width="211.86" height="178.05" style="fill:none"/></clipPath><clipPath id="clip-path-4"><rect id="SVGID" x="259.14" y="60.44" width="211.86" height="178.05" style="fill:none"/></clipPath></defs><rect x="54.99" y="62.24" width="101.67" height="121.7" style="fill:#fff"/><path d="M156.91,184.19H54.74V62H156.91Zm-101.67-.5H156.41V62.49H55.24Z" style="fill:#0c152e"/><rect x="64.87" y="97.68" width="79.36" height="0.5" style="fill:#0c152e"/><rect x="64.87" y="115.37" width="79.36" height="0.5" style="fill:#0c152e"/><rect x="64.87" y="133.05" width="79.36" height="0.5" style="fill:#0c152e"/><rect x="64.87" y="150.74" width="79.36" height="0.5" style="fill:#0c152e"/><rect x="64.87" y="76.6" width="23.46" height="0.41" style="fill:#0c152e"/><rect x="64.87" y="81.6" width="23.46" height="0.41" style="fill:#0c152e"/><rect x="134.87" y="76.6" width="9" height="0.41" style="fill:#0c152e"/><rect x="134.87" y="81.6" width="9" height="0.41" style="fill:#0c152e"/><path d="M105.75,170a11.77,11.77,0,0,0,.7-4.59.38.38,0,0,0-.75,0c-.3,2.43-.13,7,3.49,6.72,1.45-.11,2.56-1.51,3.43-2.52a22.25,22.25,0,0,0,3-4.61l-.68-.09c.66,2.2,1.75,5.11,4.47,5.29,2.48.16,3.85-2.38,4.69-4.31l-.59.07c4.18,3.4,9.65,2.55,14.55,1.6.47-.09.27-.81-.2-.72-4.59.89-9.88,1.8-13.82-1.41a.39.39,0,0,0-.59.08c-.68,1.56-1.7,3.83-3.68,3.94-2.53.15-3.53-2.83-4.11-4.74a.38.38,0,0,0-.68-.09,19.45,19.45,0,0,1-4.35,6,2.42,2.42,0,0,1-4-.81c-.67-1.31-.42-3-.25-4.36h-.75a11.13,11.13,0,0,1-.67,4.39c-.17.45.55.65.72.2Z" style="fill:#0c152e"/><path d="M83.46,197.9l-8.4-5.68a.74.74,0,0,0-.85,0l-8.4,5.68a.76.76,0,0,1-1.19-.63V171.11a.76.76,0,0,1,.76-.76h18.5a.76.76,0,0,1,.76.76v26.16A.76.76,0,0,1,83.46,197.9Z" style="fill:#05dd8f"/><rect x="130.38" y="91.15" width="73.16" height="27.21" style="fill:#05dd8f"/><line x1="140.32" y1="101.39" x2="192.31" y2="101.39" style="fill:none;stroke:#0c152e;stroke-miterlimit:10;stroke-width:0.5px"/><line x1="140.32" y1="108.39" x2="192.31" y2="108.39" style="fill:none;stroke:#0c152e;stroke-miterlimit:10;stroke-width:0.5px"/><rect x="14.72" y="121.95" width="45.82" height="20.55" style="fill:#f7e36d"/><line x1="20.94" y1="129.68" x2="53.51" y2="129.68" style="fill:none;stroke:#0c152e;stroke-miterlimit:10;stroke-width:0.5px"/><line x1="20.94" y1="134.97" x2="53.51" y2="134.97" style="fill:none;stroke:#0c152e;stroke-miterlimit:10;stroke-width:0.5px"/><g id="Houses_clip" data-name="Houses + clip"><g style="clip-path:url(#clip-path)"><g id="HOUSES"><g style="clip-path:url(#clip-path-2)"><rect x="263.7" y="148.28" width="117.67" height="68.1" style="fill:#fff"/><g style="clip-path:url(#clip-path-2)"><path d="M381.36,216.6H263.48a.22.22,0,0,1-.21-.21V148.28a.22.22,0,0,1,.21-.21H381.36a.22.22,0,0,1,.22.21v68.11a.22.22,0,0,1-.22.21m-117.66-.43H381.15V148.5H263.7Z" style="fill:#0c152e"/><rect x="381.36" y="148.28" width="32.46" height="68.1" style="fill:#dfe6f2"/><path d="M414,216.6H381.15V148.07H414Zm-32.46-.43h32V148.5h-32Z" style="fill:#0c152e"/><rect x="281.15" y="173.11" width="22.4" height="18.46" style="fill:#dfe6f2"/><path d="M303.76,191.78H280.94V172.89h22.82Zm-22.4-.43h22v-18h-22Z" style="fill:#131b3a"/><rect x="285.29" y="173.11" width="18.26" height="18.46" style="fill:#f7e36d"/><path d="M303.76,191.78H285.08V172.89h18.68Zm-18.26-.43h17.83v-18H285.5Z" style="fill:#131b3a"/></g></g><rect x="334.12" y="167.23" width="30.93" height="48.94" style="fill:none;stroke:#0c152e;stroke-miterlimit:10;stroke-width:0.5px"/><rect x="337.21" y="186.82" width="2.23" height="15.04" style="fill:none;stroke:#0c152e;stroke-miterlimit:10;stroke-width:0.5px"/><path d="M260.55,205c2.27-3.15,3.95-1.79,4.89-.33a32.28,32.28,0,0,0-5.21,10.83h-.82C259.16,214.43,257.59,209.1,260.55,205Z" style="fill:#2bd67b"/><path d="M266.3,206.42l-3.57,9.06h-2.5a32.28,32.28,0,0,1,5.21-10.83A8.88,8.88,0,0,1,266.3,206.42Z" style="fill:#0c152e"/><path d="M264.1,216.49s10.27-5.65,6.78-11.41-9.2,5.74-10.65,11.41" style="fill:#2bd67b"/><path d="M262.94,215.05s-5.05-11.29-7.51-9.54-2.83,8.71,2.52,11.17" style="fill:#2bd67b"/><path d="M284.66,216.48a4.3,4.3,0,0,0-4.29-4.31h-3.18a4.3,4.3,0,0,0-4.3,4.3h11.77Z" style="fill:#fff"/><path d="M284.66,216.6H272.89a.12.12,0,0,1-.12-.12,4.43,4.43,0,0,1,4.42-4.44h3.18a4.44,4.44,0,0,1,4.42,4.43h0A.12.12,0,0,1,284.66,216.6ZM273,216.35h11.51a4.18,4.18,0,0,0-4.16-4.06h-3.18A4.18,4.18,0,0,0,273,216.35Z" style="fill:#0c152e"/><path d="M279,216.47a7.56,7.56,0,0,0-7.55-7.57h-5.6a7.56,7.56,0,0,0-7.55,7.57H279Z" style="fill:#fff"/><path d="M279,216.6H258.3a.12.12,0,0,1-.13-.12,7.7,7.7,0,0,1,7.68-7.71h5.6a7.71,7.71,0,0,1,7.68,7.7h0A.12.12,0,0,1,279,216.6Zm-20.58-.25h20.46a7.45,7.45,0,0,0-7.43-7.33h-5.6A7.45,7.45,0,0,0,258.42,216.35Z" style="fill:#0c152e"/><g style="clip-path:url(#clip-path-4)"><rect x="273.72" y="80.21" width="97.67" height="68.1" style="fill:#fff"/><g style="clip-path:url(#clip-path-4)"><path d="M371.39,148.52H273.51a.21.21,0,0,1-.21-.21V80.21a.21.21,0,0,1,.21-.21h97.88a.21.21,0,0,1,.21.21v68.1a.21.21,0,0,1-.21.21m-97.67-.42h97.46V80.42H273.72Z" style="fill:#0c152e"/><rect x="371.39" y="80.21" width="52.46" height="68.1" style="fill:#dfe6f2"/><path d="M424.06,148.52H371.18V80h52.88Zm-52.46-.42h52V80.42h-52Z" style="fill:#0c152e"/><rect x="293.17" y="105.03" width="58.4" height="18.46" style="fill:#dfe6f2"/><path d="M351.78,123.7H293V104.82h58.82Zm-58.4-.43h58v-18h-58Z" style="fill:#131b3a"/><rect x="297.31" y="105.03" width="54.26" height="18.46" style="fill:#f7e36d"/><path d="M351.78,123.7H297.1V104.82h54.68Zm-54.26-.43h53.84v-18H297.52Z" style="fill:#131b3a"/></g><rect x="273.36" y="148.52" width="107.79" height="5.39" style="fill:#dfe6f2"/></g><polygon points="371.18 85.92 273.75 85.45 273.75 80.21 371.18 80.43 371.18 85.92" style="fill:#dfe6f2"/><polyline points="239.14 238.49 239.14 60.44 451 60.44" style="fill:none"/><polyline points="239.14 238.49 239.14 60.44 451 60.44" style="fill:none"/><polyline points="263.72 80.09 263.72 11.98 361.39 11.98 361.39 80.09" style="fill:#fff"/><path d="M263.3,80.09V12a.21.21,0,0,1,.21-.21H381.39a.22.22,0,0,1,.21.21V80.09" style="fill:#0c152e"/><polyline points="381.61 80.13 381.19 12.24 263.73 12.24 263.73 79.7" style="fill:#fff"/><polyline points="381.39 80.09 381.39 11.98 413.85 11.98 413.85 80.09" style="fill:#dfe6f2"/><polyline points="381.18 80.3 381.18 11.77 414.06 11.77 414.06 80.3" style="fill:#0c152e"/><polyline points="413.64 79.87 413.64 12.2 381.6 12.2 381.6 79.87" style="fill:#dfe6f2"/><rect x="275.17" y="36.81" width="38.4" height="18.46" style="fill:#dfe6f2"/><path d="M313.78,55.48H275V36.59h38.82Zm-38.4-.43h38V37h-38Z" style="fill:#131b3a"/><rect x="279.31" y="36.81" width="34.26" height="18.46" style="fill:#f7e36d"/><path d="M313.78,55.48H279.1V36.59h34.68Zm-34.26-.43h33.84V37H279.52Z" style="fill:#131b3a"/><polyline id="SVGID-3" data-name="SVGID" points="249.14 170.26 249.14 -7.78 461 -7.78" style="fill:none"/><polyline id="SVGID-4" data-name="SVGID" points="249.14 170.26 249.14 -7.78 461 -7.78" style="fill:none"/><rect x="329.17" y="36.81" width="38.4" height="18.46" style="fill:#dfe6f2"/><path d="M367.78,55.48H329V36.59h38.82Zm-38.4-.43h38V37h-38Z" style="fill:#131b3a"/><rect x="333.31" y="36.81" width="34.26" height="18.46" style="fill:#f7e36d"/><path d="M367.78,55.48H333.1V36.59h34.68Zm-34.26-.43h33.84V37H333.52Z" style="fill:#131b3a"/><g id="Big_Plant" data-name="Big Plant"><rect x="276.62" y="57.4" width="21.76" height="1" style="fill:#dfe6f2"/><path d="M287.11,54.22c.52-.12.47-.65.36-1a2.52,2.52,0,0,1-1.65-.16l-.05.18C285.88,53.39,286.41,54.37,287.11,54.22Z" style="fill:#2bd67b"/><path d="M287.31,52.79l-1.32-.3-.17.54a2.52,2.52,0,0,0,1.65.16A3.11,3.11,0,0,0,287.31,52.79Z" style="fill:#0c152e"/><path d="M285.93,52.44s1.14-2.07,1.76-.84-1.1,1.8-1.91,1.76" style="fill:#2bd67b"/><path d="M286.82,51.55c.12-.94-.17-1-.41-1a12.22,12.22,0,0,1-.64,2.75l.07.15A3,3,0,0,0,286.82,51.55Z" style="fill:#2bd67b"/><path d="M286.15,50.71l-.61,2.15.23.47a12.22,12.22,0,0,0,.64-2.75A.91.91,0,0,0,286.15,50.71Z" style="fill:#0c152e"/><path d="M285.5,52.94s-.69-2.64.17-3.29.55,2.5.26,3.85" style="fill:#2bd67b"/><path d="M285.8,51.78s-2-2.24-2.15-1.39.65,2.75,1.67,2.58" style="fill:#2bd67b"/><path d="M285.05,53.41s-1.54.29-1.49-.33.79-1.4,1.38-.71" style="fill:#2bd67b"/><path d="M286,53s-.42-2.12-.73-1.6-.63,1.77.14,2.07" style="fill:#0c152e"/><path d="M286,53.06s-.88-2.32-1.18-1.8-.24,2.11.53,2.41" style="fill:#2bd67b"/><path d="M278.31,54.21c-1.23-.16-1.11-.88-.85-1.39a9.76,9.76,0,0,0,3.83-.22l.13.24A4,4,0,0,1,278.31,54.21Z" style="fill:#2bd67b"/><path d="M277.83,52.27l3.08-.41.38.74a9.76,9.76,0,0,1-3.83.22A3.09,3.09,0,0,1,277.83,52.27Z" style="fill:#0c152e"/><path d="M281,51.79s-2.64-2.81-4.1-1.14,2.57,2.46,4.44,2.4" style="fill:#2bd67b"/><path d="M279,50.58c-.28-1.27.4-1.4,1-1.31A11.38,11.38,0,0,0,281.42,53l-.17.21A4.24,4.24,0,0,1,279,50.58Z" style="fill:#2bd67b"/><path d="M280.52,49.44l1.42,2.93-.52.63a11.38,11.38,0,0,1-1.51-3.73A2.81,2.81,0,0,1,280.52,49.44Z" style="fill:#0c152e"/><path d="M282.05,52.47s1.59-3.58-.4-4.46-1.29,3.39-.6,5.23" style="fill:#2bd67b"/><path d="M281.33,50.89s4.7-3,5-1.89-1.5,3.75-3.87,3.52" style="fill:#2bd67b"/><path d="M283.08,53.11s3.59.39,3.47-.44a2.17,2.17,0,0,0-3.2-1" style="fill:#2bd67b"/><path d="M280.93,52.6s1-2.89,1.68-2.18,1.48,2.41-.31,2.82" style="fill:#0c152e"/><path d="M280.79,52.64s2-3.16,2.74-2.46a2.13,2.13,0,0,1-1.23,3.29" style="fill:#2bd67b"/><rect x="276.62" y="52.35" width="21.76" height="5.04" style="fill:#fff;stroke:#0c152e;stroke-miterlimit:10;stroke-width:0.25px"/></g><g id="Big_Plant-2" data-name="Big Plant"><rect x="326.96" y="126.12" width="21.76" height="1" style="fill:#dfe6f2"/><path d="M347.26,122.94c.67-.12.6-.64.46-1a4.09,4.09,0,0,1-2.09-.17l-.07.18C345.7,122.11,346.38,123.09,347.26,122.94Z" style="fill:#2bd67b"/><path d="M347.52,121.52l-1.68-.31-.21.54a4.09,4.09,0,0,0,2.09.17A2.48,2.48,0,0,0,347.52,121.52Z" style="fill:#0c152e"/><path d="M345.77,121.16s1.44-2.06,2.23-.83-1.4,1.8-2.41,1.76" style="fill:#2bd67b"/><path d="M346.9,120.27c.15-.93-.22-1-.52-1a9.89,9.89,0,0,1-.82,2.74l.1.15A2.92,2.92,0,0,0,346.9,120.27Z" style="fill:#2bd67b"/><path d="M346.05,119.44l-.77,2.15.28.46a9.89,9.89,0,0,0,.82-2.74A1.07,1.07,0,0,0,346.05,119.44Z" style="fill:#0c152e"/><path d="M345.22,121.66s-.86-2.63.22-3.28.7,2.5.33,3.85" style="fill:#2bd67b"/><path d="M345.61,120.5s-2.56-2.23-2.72-1.39.82,2.76,2.11,2.59" style="fill:#2bd67b"/><path d="M344.66,122.13s-2,.29-1.89-.32,1-1.4,1.74-.72" style="fill:#2bd67b"/><path d="M345.83,121.75s-.53-2.12-.92-1.6-.8,1.78.17,2.08" style="fill:#0c152e"/><path d="M345.9,121.79s-1.1-2.33-1.49-1.81-.3,2.12.67,2.42" style="fill:#2bd67b"/><path d="M328.65,122.94c-1.23-.16-1.11-.88-.84-1.4a9.77,9.77,0,0,0,3.83-.22l.12.24A4,4,0,0,1,328.65,122.94Z" style="fill:#2bd67b"/><path d="M328.17,121l3.08-.42.39.74a9.77,9.77,0,0,1-3.83.22A2.53,2.53,0,0,1,328.17,121Z" style="fill:#0c152e"/><path d="M331.38,120.51s-2.64-2.8-4.1-1.13,2.57,2.45,4.44,2.39" style="fill:#2bd67b"/><path d="M329.31,119.31c-.28-1.28.4-1.4.95-1.32a11.21,11.21,0,0,0,1.5,3.74l-.17.2A4.23,4.23,0,0,1,329.31,119.31Z" style="fill:#2bd67b"/><path d="M330.86,118.17l1.43,2.92-.53.64a11.21,11.21,0,0,1-1.5-3.74A2.54,2.54,0,0,1,330.86,118.17Z" style="fill:#0c152e"/><path d="M332.39,121.19s1.59-3.58-.39-4.46-1.3,3.4-.61,5.24" style="fill:#2bd67b"/><path d="M331.68,119.62s4.7-3,5-1.89-1.5,3.75-3.87,3.52" style="fill:#2bd67b"/><path d="M333.43,121.84s3.58.39,3.47-.45a2.18,2.18,0,0,0-3.21-1" style="fill:#2bd67b"/><path d="M331.27,121.32s1-2.88,1.69-2.18,1.47,2.42-.31,2.83" style="fill:#0c152e"/><path d="M331.14,121.37s2-3.16,2.73-2.46a2.13,2.13,0,0,1-1.22,3.29" style="fill:#2bd67b"/><rect x="326.96" y="121.08" width="21.76" height="5.04" style="fill:#fff;stroke:#0c152e;stroke-miterlimit:10;stroke-width:0.25px"/><path d="M332.44,121c.49.06.44.35.34.55a3.84,3.84,0,0,0-1.52.09l-.05-.1A1.6,1.6,0,0,1,332.44,121Z" style="fill:#dfe6f2"/><path d="M332.63,121.76l-1.22.16-.15-.29a3.84,3.84,0,0,1,1.52-.09A2.05,2.05,0,0,1,332.63,121.76Z" style="fill:#dfe6f2"/><path d="M331.36,122s1.05,1.11,1.62.45-1-1-1.76-1" style="fill:#dfe6f2"/><path d="M332.18,122.43c.11.51-.16.56-.38.52a4.42,4.42,0,0,0-.59-1.48l.06-.08A1.62,1.62,0,0,1,332.18,122.43Z" style="fill:#dfe6f2"/><path d="M331.56,122.88l-.56-1.16.21-.25a4.42,4.42,0,0,1,.59,1.48A1,1,0,0,1,331.56,122.88Z" style="fill:#dfe6f2"/><path d="M331,121.68s-.63,1.42.15,1.77.52-1.35.24-2.08" style="fill:#dfe6f2"/><path d="M331.24,122.31s-1.87,1.2-2,.75a1.47,1.47,0,0,1,1.53-1.4" style="fill:#dfe6f2"/><path d="M330.55,121.43s-1.43-.16-1.38.17a.86.86,0,0,0,1.27.39" style="fill:#dfe6f2"/><path d="M331.4,121.63s-.39,1.14-.67.87-.58-1,.13-1.13" style="fill:#dfe6f2"/><path d="M331.45,121.61s-.8,1.26-1.08,1a.85.85,0,0,1,.49-1.31" style="fill:#dfe6f2"/><path d="M335.18,121.43c.11.51-.16.56-.38.52a4.42,4.42,0,0,0-.59-1.48l.06-.08A1.62,1.62,0,0,1,335.18,121.43Z" style="fill:#dfe6f2"/><path d="M334.56,121.88l-.56-1.16.21-.25a4.42,4.42,0,0,1,.59,1.48A1,1,0,0,1,334.56,121.88Z" style="fill:#dfe6f2"/><path d="M334,120.68s-.63,1.42.15,1.77.52-1.35.24-2.08" style="fill:#dfe6f2"/><path d="M334.24,121.31s-1.87,1.2-2,.75a1.47,1.47,0,0,1,1.53-1.4" style="fill:#dfe6f2"/><path d="M333.55,120.43s-1.43-.16-1.38.17a.86.86,0,0,0,1.27.39" style="fill:#dfe6f2"/><path d="M334.4,120.63s-.39,1.14-.67.87-.58-1,.13-1.13" style="fill:#dfe6f2"/><path d="M334.45,120.61s-.8,1.26-1.08,1a.85.85,0,0,1,.49-1.31" style="fill:#dfe6f2"/><path d="M332.23,120.45c.49.06.44.35.34.55a3.84,3.84,0,0,0-1.52.09L331,121A1.55,1.55,0,0,1,332.23,120.45Z" style="fill:#2bd67b"/><path d="M332.42,121.22l-1.22.16-.15-.29a3.84,3.84,0,0,1,1.52-.09A1.13,1.13,0,0,1,332.42,121.22Z" style="fill:#0c152e"/><path d="M331.15,121.41s1.05,1.11,1.63.45-1-1-1.77-1" style="fill:#2bd67b"/><path d="M332,121.89c.11.5-.16.55-.37.52a4.56,4.56,0,0,0-.6-1.48l.07-.09A1.67,1.67,0,0,1,332,121.89Z" style="fill:#2bd67b"/><path d="M331.36,122.34l-.57-1.16.21-.25a4.56,4.56,0,0,1,.6,1.48A1,1,0,0,1,331.36,122.34Z" style="fill:#0c152e"/><path d="M330.75,121.14s-.63,1.42.16,1.77.51-1.35.24-2.08" style="fill:#2bd67b"/><path d="M331,121.76s-1.86,1.21-2,.75a1.47,1.47,0,0,1,1.53-1.39" style="fill:#2bd67b"/><path d="M330.34,120.88s-1.42-.15-1.38.18a.86.86,0,0,0,1.27.39" style="fill:#2bd67b"/><path d="M331.19,121.09s-.39,1.14-.67.86-.58-1,.13-1.12" style="fill:#0c152e"/><path d="M331.25,121.07s-.81,1.25-1.09,1a.85.85,0,0,1,.49-1.31" style="fill:#2bd67b"/><path d="M335.23,119.45c.49.06.44.35.34.55a3.84,3.84,0,0,0-1.52.09L334,120A1.55,1.55,0,0,1,335.23,119.45Z" style="fill:#2bd67b"/><path d="M335.42,120.22l-1.22.16-.15-.29a3.84,3.84,0,0,1,1.52-.09A1.13,1.13,0,0,1,335.42,120.22Z" style="fill:#0c152e"/><path d="M334.15,120.41s1.05,1.11,1.63.45-1-1-1.77-1" style="fill:#2bd67b"/><path d="M335,120.89c.11.5-.16.55-.37.52a4.56,4.56,0,0,0-.6-1.48l.07-.09A1.67,1.67,0,0,1,335,120.89Z" style="fill:#2bd67b"/><path d="M334.36,121.34l-.57-1.16.21-.25a4.56,4.56,0,0,1,.6,1.48A1,1,0,0,1,334.36,121.34Z" style="fill:#0c152e"/><path d="M333.75,120.14s-.63,1.42.16,1.77.51-1.35.24-2.08" style="fill:#2bd67b"/><path d="M334,120.76s-1.86,1.21-2,.75a1.47,1.47,0,0,1,1.53-1.39" style="fill:#2bd67b"/><path d="M333.34,119.88s-1.42-.15-1.38.18a.86.86,0,0,0,1.27.39" style="fill:#2bd67b"/><path d="M334.19,120.09s-.39,1.14-.67.86-.58-1,.13-1.12" style="fill:#0c152e"/><path d="M334.25,120.07s-.81,1.25-1.09,1a.85.85,0,0,1,.49-1.31" style="fill:#2bd67b"/></g></g></g></g><line x1="15" y1="217.15" x2="447" y2="215.73" style="fill:#0c152e;stroke:#0c152e;stroke-miterlimit:10;stroke-width:0.25px"/><rect x="213.31" y="178.09" width="2.54" height="38.26" style="fill:none;stroke:#0c152e;stroke-miterlimit:10;stroke-width:0.25px"/><rect x="228.76" y="165.18" width="2.54" height="28.36" transform="translate(409.39 -50.67) rotate(90)" style="fill:none;stroke:#0c152e;stroke-miterlimit:10;stroke-width:0.25px"/><rect x="223.07" y="177.35" width="15.77" height="26.97" transform="translate(421.79 -40.12) rotate(90)" style="fill:#4070f4;stroke:#131b3a;stroke-miterlimit:10;stroke-width:0.25px"/><line x1="240.02" y1="180.63" x2="240.02" y2="182.95" style="fill:none;stroke:#0c152e;stroke-miterlimit:10;stroke-width:0.25px"/><line x1="221.02" y1="180.63" x2="221.02" y2="182.95" style="fill:none;stroke:#0c152e;stroke-miterlimit:10;stroke-width:0.25px"/><rect x="215.1" y="178.34" width="1.83" height="2.04" style="fill:#fff"/><rect x="222.72" y="188.61" width="6.47" height="1.46" rx="0.73" style="fill:#fff"/><rect x="230.75" y="188.61" width="8.44" height="1.46" rx="0.73" style="fill:#fff"/><rect x="222.72" y="191.61" width="9.09" height="1.46" rx="0.73" style="fill:#fff"/><rect x="233.22" y="191.61" width="5.97" height="1.46" rx="0.73" style="fill:#fff"/><path d="M165.6,130.72l18.2-17.9a4.3,4.3,0,0,1,6.08,0h0a4.3,4.3,0,0,1,0,6.08l-4.95-5.72-18.61,18.1Z" style="fill:#0c152e"/><polygon points="144.22 155.13 150.3 161.21 138.48 166.95 144.22 155.13" style="fill:#fff"/><path d="M144.14,155.06s.05,0,.07-.06.1,0,.13,0l6.08,6.08a.12.12,0,0,1,0,.13.28.28,0,0,1-.12.12l-11.82,5.74c-.06,0-.11,0-.14,0a.1.1,0,0,1,0-.13l5.74-11.83Zm5.9,6.15-5.81-5.82-5.5,11.31Z" style="fill:#0c152e"/><polygon points="141.3 165.59 139.85 164.13 138.48 166.95 141.3 165.59" style="fill:#0c152e"/><path d="M139.84,163.88l1.71,1.71-3.33,1.62Zm1.2,1.7-1.19-1.19-1.12,2.31Z" style="fill:#0c152e"/><rect x="138.84" y="133.63" width="58" height="8.23" transform="translate(383.92 116.46) rotate(135)" style="fill:#c5cfe4"/><path d="M144.17,155.09l41-41c.06-.07.23,0,.37.12l5.82,5.82c.14.14.19.31.12.38l-41,41c-.07.07-.23,0-.37-.13l-5.82-5.82C144.16,155.33,144.11,155.16,144.17,155.09Zm41.27-40.76-40.89,40.89,5.89,5.74,40.81-40.81Z" style="fill:#0c152e"/><path d="M187.75,111.6l2.81-2.81a4.3,4.3,0,0,1,6.08,0h0a4.3,4.3,0,0,1,0,6.08l-2.81,2.81Z" style="fill:#4070f4"/><rect x="187.74" y="111.58" width="3.57" height="8.63" transform="translate(405.48 63.83) rotate(135)" style="fill:#fff"/><path d="M185,114.15l2.77-2.77,6.25,6.25-2.77,2.77Zm2.68-2.37-2.28,2.28,6,5.94,2.27-2.27Z" style="fill:#0c152e"/></svg>