<svg id="Layer_1" data-name="Layer 1" xmlns="http://www.w3.org/2000/svg" viewBox="0 0 475 256"><polyline points="220.59 109.13 192.02 155.69 136.72 53.44 94.34 129.4 71.65 107.68 30.87 160.47" style="fill:none;stroke:#0c152e;stroke-miterlimit:10;stroke-width:0.5px"/><g id="Dude_sitting" data-name="Dude sitting"><polygon points="286.29 185.57 290.81 214.24 303.01 214.94 308.15 186.82 286.29 185.57" style="fill:#dfe6f2"/><path d="M442.75,216l-1.61-37.35c-1.36-28.56-22-45.24-35.63-54.26-45.28-30-77.62,17.28-93.62,50.78-10.71,22.44-6.28,25.32-9,40.95Z" style="fill:#4070f4"/><path d="M375.28,215.34H262.08l0,0c-1.86-1.9-4-11-.42-18.89,4.58-10.21,15.59-11.88,24-11.48,1.38.06,3.38.24,5.93.47,12.11,1.08,34.67,3.1,44.11-2.48l.15.24c-9.53,5.63-32.14,3.61-44.29,2.53-2.54-.23-4.54-.41-5.92-.47-8.34-.4-19.24,1.24-23.75,11.31-3.4,7.58-1.44,16.62.32,18.52H375.11c.57-1.12,7-14.8,2.18-44.44l.28-.05c2.64,16.16,1.89,27.45.8,34.07-1.18,7.19-3,10.6-3.05,10.64Z" style="fill:#4070f4"/><path d="M398.49,188.2c2.72-15-4.62-23.91-9.41-35.06,0,0-1.46,21.21-.26,35.49Z" style="fill:#254898"/><circle cx="330.31" cy="81.37" r="25.88" style="fill:#4070f4"/><path d="M314.27,101.67a25.88,25.88,0,0,0,36.35-4.26A26.58,26.58,0,0,0,353,93.86a25.87,25.87,0,0,0-48.2-16.59A25.86,25.86,0,0,0,314.27,101.67Z" style="fill:#254898"/><circle cx="328.03" cy="91.89" r="24.42" style="fill:#fff"/><path d="M330.87,67.63a24.42,24.42,0,0,1-11,47.28,24.42,24.42,0,1,0,11-47.28Z" style="fill:#dfe6f2"/><path d="M334.76,115.52a25.89,25.89,0,0,1-3.22.68,24.61,24.61,0,0,1-11.7-1.15l-1.19-.42,1.26.14a24.28,24.28,0,0,0,10.91-47l-1.19-.42,1.26.15a24.57,24.57,0,0,1,3.87,48Zm-13.61-.35a24.29,24.29,0,0,0,10.35.75,25.8,25.8,0,0,0,3.19-.68A24.28,24.28,0,0,0,332.11,68a24.57,24.57,0,0,1-11,47.22Z" style="fill:#dfe6f2"/><ellipse cx="355.56" cy="124.05" rx="12.59" ry="2.6" transform="translate(-14.92 191.52) rotate(-29.55)" style="fill:#254898"/><path d="M334.76,115.52a25.89,25.89,0,0,1-3.22.68,24.5,24.5,0,1,1,3.22-.68Zm-13.39-47a24.28,24.28,0,0,0,10.13,47.38,25.8,25.8,0,0,0,3.19-.68,24.28,24.28,0,0,0-13.32-46.7Z" style="fill:#0c152e"/><circle cx="321.9" cy="70.86" r="13.47" style="fill:#4070f4"/><circle cx="311.49" cy="72.21" r="9.35" style="fill:#4070f4"/><path d="M391.56,162.42c6.51,5.86,6.46,22.31,6.46,22.31-10.93,6.46-40.19,2.3-47.83,1.94-29.42-1.4-25.68,25.42-22.42,28.74H435.64s7-12.76,2.13-42.56" style="fill:#fff"/><path d="M435.72,215.55h-108l0,0c-1.77-1.82-3.77-10.5-.39-18,4.36-9.75,14.87-11.34,22.92-11,1.31.06,3.23.23,5.66.45,11.53,1,33,3,42-2.33,0-1.23-.25-16.58-6.41-22.13l.18-.2c6.48,5.83,6.5,22.24,6.5,22.41v.07l-.06,0c-9.09,5.38-30.67,3.45-42.26,2.41-2.42-.21-4.33-.38-5.64-.45-8-.37-18.36,1.19-22.67,10.8-3.24,7.24-1.37,15.86.31,17.67H435.56c.54-1.07,6.7-14.12,2.07-42.4l.27-.05c2.53,15.42,1.81,26.19.77,32.51-1.13,6.86-2.89,10.11-2.91,10.15Z" style="fill:#fff"/><rect x="194.24" y="209.55" width="22.46" height="6.44" style="fill:#f7e36d"/><rect x="197.45" y="203.11" width="22.46" height="6.44" style="fill:#f7e36d"/><rect x="197.45" y="209.55" width="19.25" height="0.82" style="fill:#0c152e"/><rect x="192.16" y="163.54" width="29.37" height="6.73" style="fill:#dfe6f2"/><rect x="192.16" y="171.8" width="29.37" height="44.06" style="fill:none;stroke:#0c152e;stroke-miterlimit:10;stroke-width:0.5px"/><rect x="94.24" y="209.55" width="22.46" height="6.44" style="fill:#f7e36d"/><rect x="91.45" y="203.11" width="22.46" height="6.44" style="fill:#f7e36d"/><rect x="94.45" y="209.55" width="19.46" height="0.82" style="fill:#0c152e"/><rect x="94.45" y="196.67" width="22.46" height="6.44" style="fill:#f7e36d"/><rect x="94.45" y="203.12" width="19.46" height="0.82" style="fill:#0c152e"/><path d="M381.14,114.74s53.69,4.24,61.54,61.07c0,0-45,.95-49.92.41L386,134.78" style="fill:#4070f4"/><polygon points="333.13 215.97 235.63 215.97 198.63 156.85 296.13 156.85 333.13 215.97" style="fill:#fff;stroke:#0c152e;stroke-miterlimit:10;stroke-width:0.5px"/><circle cx="264.12" cy="189.63" r="4.05" style="fill:#3d71ff"/><rect x="160.06" y="209.55" width="22.46" height="6.44" style="fill:#f7e36d"/><rect x="163.28" y="203.11" width="22.46" height="6.44" style="fill:#f7e36d"/><rect x="159.4" y="196.66" width="22.46" height="6.44" style="fill:#f7e36d"/><rect x="163.28" y="209.55" width="19.25" height="0.82" style="fill:#0c152e"/><rect x="163.28" y="203.11" width="18.59" height="0.82" style="fill:#0c152e"/><rect x="160.93" y="189.4" width="22.46" height="6.44" style="fill:#f7e36d"/><rect x="160.93" y="182.96" width="22.46" height="6.44" style="fill:#f7e36d"/><rect x="159.27" y="176.52" width="22.46" height="6.44" style="fill:#f7e36d"/><rect x="160.93" y="195.84" width="20.93" height="0.82" style="fill:#0c152e"/><rect x="160.93" y="189.4" width="22.46" height="0.82" style="fill:#0c152e"/><rect x="160.93" y="182.96" width="20.8" height="0.82" style="fill:#0c152e"/><rect x="157.9" y="163.54" width="29.37" height="6.73" style="fill:#dfe6f2"/><rect x="157.9" y="171.8" width="29.37" height="44.06" style="fill:none;stroke:#0c152e;stroke-miterlimit:10;stroke-width:0.5px"/><path d="M152.05,134.26s17.39-8.6,24.21-9.62l.16-3.9S154.75,124.75,152.05,134.26Z" style="fill:#0c152e"/><path d="M122.66,141.41s11.49,12.84,14.74,21.68c0,0-7.43-25.74-7.66-25.79S122.66,141.41,122.66,141.41Z" style="fill:#0c152e"/><path d="M137.4,163.09s-3.73-14.48-13.81-21c-8.19-5.29,1.11-16.92,11.23-11.1C147.38,138.24,139.79,157,137.4,163.09Z" style="fill:#2bd67b"/><path d="M130.35,141.75s6.78,10,7.05,21.34c.2,8.46.34,17.38-.19,25.4" style="fill:none;stroke:#0c152e;stroke-miterlimit:10;stroke-width:0.5px"/><path d="M152.05,134.26s1.93-29.81,28.33-22c7.54,2.22,1.28,12.24-5.26,12.58C163.06,125.41,153.89,131.58,152.05,134.26Z" style="fill:#2bd67b"/><path d="M145.85,165.81a16,16,0,0,1,4.6-8.76c2.45-2.36,5.85-4.24,9.65-2.33,7.61,3.81-13.06,15.27-15.45,22.77C142.87,183.07,144.77,171.89,145.85,165.81Z" style="fill:#2bd67b"/><path d="M138.82,196.36s2.22-36.45,13.23-62.1c2.06-4.82,9.1-9,20-12.55" style="fill:none;stroke:#0c152e;stroke-miterlimit:10;stroke-width:0.5px"/><path d="M152.69,161.33c-3.73,5.19-10.91,18.15-10.83,29.06" style="fill:none;stroke:#0c152e;stroke-miterlimit:10;stroke-width:0.5px"/><rect x="135.21" y="181.52" width="10.39" height="34.15" style="fill:#254898"/><path d="M136.54,181.52s3,32.8,7.66,34.15h-9V181.52Z" style="fill:#4070f4"/></g><line x1="15" y1="216" x2="447" y2="216" style="fill:#0c152e;stroke:#0c152e;stroke-miterlimit:10;stroke-width:0.5px"/></svg>