<svg xmlns="http://www.w3.org/2000/svg" xmlns:xlink="http://www.w3.org/1999/xlink" viewBox="0 0 475 256"><defs><clipPath id="clip-path"><polygon points="447 215.74 15 217.15 15 5.47 448.77 5.47 447 215.74" style="fill:none"/></clipPath><clipPath id="clip-path-2"><rect x="-52.45" y="39.58" width="385.85" height="217.04" style="fill:none"/></clipPath><clipPath id="clip-path-3"><rect id="SVGID" x="287.55" y="39.58" width="385.85" height="217.04" style="fill:none"/></clipPath></defs><g style="isolation:isolate"><g id="Layer_1" data-name="Layer 1"><g style="clip-path:url(#clip-path)"><g id="ALL"><polyline points="379.67 187.78 379.67 128.36 379.67 96.32 262.02 96.32 262.02 128.36 205.46 128.36 205.46 96.32 86.81 96.32 86.81 128.36 86.81 219.1" style="fill:#fff"/><polygon points="86.97 219.1 86.64 219.1 86.64 96.15 205.62 96.15 205.62 128.2 261.85 128.2 261.85 96.15 379.83 96.15 379.83 187.78 379.5 187.78 379.5 96.48 262.18 96.48 262.18 128.53 205.29 128.53 205.29 96.48 86.97 96.48 86.97 219.1" style="fill:#0c152e"/><polyline points="86.81 218.88 190.97 218.88 190.97 187.38 108.23 187.38" style="fill:#fff"/><polygon points="191.14 219.04 86.81 219.04 86.81 218.71 190.8 218.71 190.8 187.54 108.23 187.54 108.23 187.21 191.14 187.21 191.14 219.04" style="fill:#0c152e"/><polygon points="171.84 218.89 196.22 218.88 195.92 187.28 190.58 187.22 163.5 218.89 171.84 218.89" style="fill:#f7f9fb"/><path d="M171.84,219.06h-8.7l27.36-32,5.58.06.31,31.93Zm-8-.33h32.19l-.3-31.28-5.1-.05Z" style="fill:#0c152e"/><rect x="190.55" y="187.22" width="50.21" height="7.97" style="fill:#fff"/><path d="M240.93,195.36H190.38v-8.3h50.55ZM190.72,195H240.6v-7.64H190.72Z" style="fill:#0c152e"/><rect x="185.74" y="195.19" width="50.21" height="7.97" style="fill:#fff"/><path d="M236.11,203.33H185.57V195h50.54ZM185.9,203h49.88v-7.64H185.9Z" style="fill:#0c152e"/><rect x="180.39" y="202.76" width="50.21" height="7.97" style="fill:#fff"/><path d="M230.77,210.9H180.23v-8.3h50.54Zm-50.21-.33h49.88v-7.64H180.56Z" style="fill:#0c152e"/><rect x="173.96" y="210.7" width="50.21" height="7.97" style="fill:#fff"/><path d="M224.34,218.84H173.8v-8.3h50.54Zm-50.21-.33H224v-7.64H174.13Z" style="fill:#0c152e"/><g style="mix-blend-mode:multiply"><rect x="231.04" y="195.19" width="3.32" height="3.32" style="fill:#c5cfe4"/></g><g style="mix-blend-mode:multiply"><rect x="224.64" y="202.76" width="3.32" height="3.32" style="fill:#c5cfe4"/></g><g style="mix-blend-mode:multiply"><rect x="217.99" y="210.73" width="3.32" height="3.32" style="fill:#c5cfe4"/></g><line x1="379.67" y1="218.88" x2="379.37" y2="187.28" style="fill:#fff"/><rect x="379.35" y="187.28" width="0.33" height="31.6" transform="translate(-1.93 3.65) rotate(-0.55)" style="fill:#0c152e"/><polyline points="355.05 187.28 240.75 187.22 213.67 218.89 221.21 218.89 379.67 218.88" style="fill:#fff"/><polygon points="221.21 219.06 213.31 219.06 240.67 187.06 240.75 187.06 355.05 187.11 355.05 187.44 240.82 187.39 214.03 218.73 379.67 218.72 379.67 219.05 221.21 219.06" style="fill:#0c152e"/><polygon points="187.86 190.15 108.23 190.15 108.23 187.54 190.09 187.54 187.86 190.15" style="fill:#f7f9fb"/><polygon points="238.58 190 355.05 190 355.05 187.39 240.82 187.39 238.58 190" style="fill:#f7f9fb"/><path d="M128.57,122.14h0a5,5,0,0,1,5,5v40.44a0,0,0,0,1,0,0h-10a0,0,0,0,1,0,0V127.13A5,5,0,0,1,128.57,122.14Z" style="fill:#fff"/><path d="M133.72,167.73h-10.3v-40.6a5.15,5.15,0,0,1,10.3,0Zm-10-.33h9.64V127.13a4.82,4.82,0,0,0-9.64,0Z" style="fill:#0c152e"/><rect x="123.58" y="163.19" width="9.97" height="4.94" style="fill:#c5cfe4"/><path d="M133.72,167.73h-10.3v-40.6a5.15,5.15,0,0,1,10.3,0Zm-10-.33h9.64V127.13a4.82,4.82,0,0,0-9.64,0Z" style="fill:#0c152e"/><rect x="179.49" y="141.59" width="14.78" height="2.12" style="fill:#c5cfe4"/><path d="M194.44,143.87H179.32v-2.45h15.12Zm-14.79-.33h14.46v-1.79H179.65Z" style="fill:#101c3d"/><rect x="179.49" y="179.99" width="14.78" height="7.13" style="fill:#c5cfe4"/><path d="M194.44,187.28H179.32v-7.46h15.12ZM179.65,187h14.46v-6.8H179.65Z" style="fill:#101c3d"/><rect x="181.18" y="143.71" width="11.41" height="36.28" style="fill:#f7f9fb"/><path d="M192.75,180.16H181V143.54h11.74Zm-11.41-.34h11.08V143.87H181.34Z" style="fill:#101c3d"/><rect x="183.55" y="146.89" width="0.33" height="20.37" style="fill:#101c3d"/><rect x="190.09" y="159.09" width="0.33" height="11.67" style="fill:#101c3d"/><rect x="211.19" y="141.59" width="14.78" height="2.12" style="fill:#c5cfe4"/><path d="M226.14,143.87H211v-2.45h15.12Zm-14.79-.33H225.8v-1.79H211.35Z" style="fill:#101c3d"/><rect x="211.19" y="179.99" width="14.78" height="7.13" style="fill:#c5cfe4"/><path d="M226.14,187.28H211v-7.46h15.12ZM211.35,187H225.8v-6.8H211.35Z" style="fill:#101c3d"/><rect x="212.88" y="143.71" width="11.41" height="36.28" style="fill:#f7f9fb"/><path d="M224.45,180.16H212.71V143.54h11.74ZM213,179.82h11.07V143.87H213Z" style="fill:#101c3d"/><rect x="215.24" y="146.89" width="0.33" height="20.37" style="fill:#101c3d"/><rect x="242.88" y="141.59" width="14.78" height="2.12" style="fill:#c5cfe4"/><path d="M257.83,143.87H242.72v-2.45h15.11Zm-14.78-.33H257.5v-1.79H243.05Z" style="fill:#101c3d"/><rect x="242.88" y="179.99" width="14.78" height="7.13" style="fill:#c5cfe4"/><path d="M257.83,187.28H242.72v-7.46h15.11ZM243.05,187H257.5v-6.8H243.05Z" style="fill:#101c3d"/><rect x="244.57" y="143.71" width="11.41" height="36.28" style="fill:#f7f9fb"/><path d="M256.14,180.16H244.41V143.54h11.73Zm-11.4-.34h11.07V143.87H244.74Z" style="fill:#101c3d"/><rect x="250.11" y="163.94" width="0.33" height="13.61" style="fill:#101c3d"/><rect x="253.49" y="150.39" width="0.33" height="20.37" style="fill:#101c3d"/><rect x="274.58" y="141.59" width="14.78" height="2.12" style="fill:#c5cfe4"/><path d="M289.53,143.87H274.41v-2.45h15.12Zm-14.78-.33H289.2v-1.79H274.75Z" style="fill:#101c3d"/><rect x="274.58" y="179.99" width="14.78" height="7.13" style="fill:#c5cfe4"/><path d="M289.53,187.28H274.41v-7.46h15.12ZM274.75,187H289.2v-6.8H274.75Z" style="fill:#101c3d"/><rect x="276.27" y="143.71" width="11.41" height="36.28" style="fill:#f7f9fb"/><path d="M287.84,180.16H276.1V143.54h11.74Zm-11.41-.34h11.08V143.87H276.43Z" style="fill:#101c3d"/><rect x="279.56" y="157.01" width="0.33" height="12.1" style="fill:#101c3d"/><polygon points="171.83 128.42 295.64 128.42 233.63 84.17 171.83 128.42" style="fill:#fff"/><path d="M296.16,128.59H171.31L233.64,84l.09.07Zm-123.81-.33H295.12L233.64,84.38Z" style="fill:#101c3d"/><polygon points="233.63 84.17 228.86 87.59 286.08 128.42 295.64 128.42 233.63 84.17" style="fill:#f7f9fb"/><polygon points="296.16 142.25 171.63 142.25 171.63 128.42 295.99 128.42 296.16 142.25" style="fill:#3d71ff;stroke:#101c3d;stroke-miterlimit:10;stroke-width:0.25px"/><rect x="171.83" y="138.51" width="124.18" height="3.52" style="fill:#f7f9fb"/><path d="M296.16,128.59H171.31L233.64,84l.09.07Zm-123.81-.33H295.12L233.64,84.38Z" style="fill:#101c3d"/><rect x="122.6" y="164.29" width="11.93" height="3.84" style="fill:#f7f9fb"/><path d="M134.7,168.3H122.43v-4.18H134.7ZM122.77,168h11.6v-3.51h-11.6Z" style="fill:#101c3d"/><rect x="123.58" y="132.36" width="9.97" height="30.84" style="fill:#f7f9fb"/><path d="M133.72,163.36h-10.3V132.19h10.3Zm-10-.33h9.64V132.52h-9.64Z" style="fill:#101c3d"/><path d="M148.9,122.14h0a5,5,0,0,1,5,5v40.44a0,0,0,0,1,0,0h-10a0,0,0,0,1,0,0V127.13A5,5,0,0,1,148.9,122.14Z" style="fill:#fff"/><path d="M154.05,167.73h-10.3v-40.6a5.15,5.15,0,0,1,10.3,0Zm-10-.33h9.64V127.13a4.82,4.82,0,1,0-9.64,0Z" style="fill:#0c152e"/><rect x="143.92" y="163.19" width="9.97" height="4.94" style="fill:#c5cfe4"/><path d="M154.05,167.73h-10.3v-40.6a5.15,5.15,0,0,1,10.3,0Zm-10-.33h9.64V127.13a4.82,4.82,0,1,0-9.64,0Z" style="fill:#0c152e"/><rect x="142.94" y="164.29" width="11.93" height="3.84" style="fill:#f7f9fb"/><path d="M155,168.3H142.77v-4.18H155ZM143.1,168h11.6v-3.51H143.1Z" style="fill:#101c3d"/><rect x="143.92" y="127.52" width="9.97" height="35.68" style="fill:#f7f9fb"/><path d="M154.05,163.36h-10.3v-36h10.3Zm-10-.33h9.64V127.68h-9.64Z" style="fill:#101c3d"/><path d="M317.7,122.14h0a5,5,0,0,1,5,5v40.44a0,0,0,0,1,0,0h-10a0,0,0,0,1,0,0V127.13a5,5,0,0,1,5-5Z" style="fill:#fff"/><path d="M322.85,167.73h-10.3v-40.6a5.15,5.15,0,0,1,10.3,0Zm-10-.33h9.64V127.13a4.82,4.82,0,0,0-9.64,0Z" style="fill:#0c152e"/><rect x="312.71" y="163.19" width="9.97" height="4.94" style="fill:#c5cfe4"/><path d="M322.85,167.73h-10.3v-40.6a5.15,5.15,0,0,1,10.3,0Zm-10-.33h9.64V127.13a4.82,4.82,0,0,0-9.64,0Z" style="fill:#0c152e"/><rect x="311.73" y="164.29" width="11.93" height="3.84" style="fill:#f7f9fb"/><path d="M323.83,168.3H311.57v-4.18h12.26ZM311.9,168h11.6v-3.51H311.9Z" style="fill:#101c3d"/><rect x="312.71" y="157.71" width="9.97" height="5.48" style="fill:#f7f9fb"/><path d="M322.85,163.36h-10.3v-5.81h10.3Zm-10-.33h9.64v-5.15h-9.64Z" style="fill:#101c3d"/><path d="M358.37,122.14h0a5,5,0,0,1,5,5v40.44a0,0,0,0,1,0,0h-10a0,0,0,0,1,0,0V127.13a5,5,0,0,1,5-5Z" style="fill:#fff"/><path d="M363.52,167.73h-10.3v-40.6a5.15,5.15,0,1,1,10.3,0Zm-10-.33h9.64V127.13a4.82,4.82,0,1,0-9.64,0Z" style="fill:#0c152e"/><rect x="353.39" y="163.19" width="9.97" height="4.94" style="fill:#c5cfe4"/><path d="M363.52,167.73h-10.3v-40.6a5.15,5.15,0,1,1,10.3,0Zm-10-.33h9.64V127.13a4.82,4.82,0,1,0-9.64,0Z" style="fill:#0c152e"/><rect x="352.4" y="164.29" width="11.93" height="3.84" style="fill:#f7f9fb"/><path d="M364.5,168.3H352.24v-4.18H364.5ZM352.57,168h11.6v-3.51h-11.6Z" style="fill:#101c3d"/><rect x="353.39" y="137.2" width="9.97" height="25.99" style="fill:#f7f9fb"/><path d="M363.52,163.36h-10.3V137h10.3Zm-10-.33h9.64V137.36h-9.64Z" style="fill:#101c3d"/><path d="M338,122.14h0a5,5,0,0,1,5,5v40.44a0,0,0,0,1,0,0H333a0,0,0,0,1,0,0V127.13A5,5,0,0,1,338,122.14Z" style="fill:#fff"/><path d="M343.18,167.73h-10.3v-40.6a5.15,5.15,0,0,1,10.3,0Zm-10-.33h9.63V127.13a4.82,4.82,0,1,0-9.63,0Z" style="fill:#0c152e"/><rect x="333.05" y="163.19" width="9.97" height="4.94" style="fill:#c5cfe4"/><path d="M343.18,167.73h-10.3v-40.6a5.15,5.15,0,0,1,10.3,0Zm-10-.33h9.63V127.13a4.82,4.82,0,1,0-9.63,0Z" style="fill:#0c152e"/><rect x="332.07" y="164.29" width="11.93" height="3.84" style="fill:#f7f9fb"/><path d="M344.17,168.3H331.9v-4.18h12.27ZM332.23,168h11.6v-3.51h-11.6Z" style="fill:#101c3d"/><rect x="333.05" y="160.99" width="9.97" height="2.2" style="fill:#f7f9fb"/><path d="M343.18,163.36h-10.3v-2.54h10.3Zm-10-.33h9.63v-1.87h-9.63Z" style="fill:#101c3d"/><path d="M108.23,122.14h0a5,5,0,0,1,5,5v40.44a0,0,0,0,1,0,0h-10a0,0,0,0,1,0,0V127.13A5,5,0,0,1,108.23,122.14Z" style="fill:#fff"/><path d="M113.38,167.73h-10.3v-40.6a5.15,5.15,0,0,1,10.3,0Zm-10-.33h9.64V127.13a4.82,4.82,0,0,0-9.64,0Z" style="fill:#0c152e"/><rect x="103.25" y="163.19" width="9.97" height="4.94" style="fill:#c5cfe4"/><path d="M113.38,167.73h-10.3v-40.6a5.15,5.15,0,0,1,10.3,0Zm-10-.33h9.64V127.13a4.82,4.82,0,0,0-9.64,0Z" style="fill:#0c152e"/><rect x="102.26" y="164.29" width="11.93" height="3.84" style="fill:#f7f9fb"/><path d="M114.36,168.3H102.1v-4.18h12.26ZM102.43,168H114v-3.51h-11.6Z" style="fill:#101c3d"/><rect x="103.25" y="153.06" width="9.97" height="10.13" style="fill:#f7f9fb"/><path d="M113.38,163.36h-10.3V152.89h10.3Zm-10-.33h9.64v-9.81h-9.64Z" style="fill:#101c3d"/><rect x="379.44" y="96.18" width="22.65" height="122.23" style="fill:#dfe6f2"/><path d="M402.25,218.58h-23V96h23Zm-22.65-.33h22.32V96.34H379.6Z" style="fill:#101c3d"/><rect x="135.26" y="78.21" width="0.33" height="17.96" style="fill:#0c152e"/><path d="M135.43,78.21s5.8-1.1,9.95,0a11.74,11.74,0,0,0,6.91,0v10a27.83,27.83,0,0,1-7.19-1.1c-3.59-1.11-9.67,1.1-9.67,1.1Z" style="fill:#3d71ff"/><path d="M135.26,88.4V78.08l.14,0c.06,0,5.89-1.1,10,0a11.76,11.76,0,0,0,6.81,0l.23-.09V88.33h-.17a28,28,0,0,1-7.24-1.11c-3.49-1.08-9.5,1.08-9.56,1.1Zm7.44-1.82a8.35,8.35,0,0,1,2.45.32,27.49,27.49,0,0,0,7,1.09V78.45a12.34,12.34,0,0,1-6.78-.08c-3.72-1-8.85-.17-9.74,0v9.58A24.61,24.61,0,0,1,142.7,86.58Z" style="fill:#0c152e"/><rect x="331.11" y="78.21" width="0.33" height="17.96" style="fill:#0c152e"/><path d="M331.27,78.21s5.81-1.1,10,0a11.74,11.74,0,0,0,6.91,0v10a27.73,27.73,0,0,1-7.18-1.1c-3.6-1.11-9.68,1.1-9.68,1.1Z" style="fill:#3d71ff"/><path d="M331.11,88.4V78.08l.13,0c.06,0,5.89-1.1,10,0a11.75,11.75,0,0,0,6.8,0l.23-.09V88.33h-.17a28,28,0,0,1-7.23-1.11c-3.5-1.08-9.51,1.08-9.57,1.1Zm7.43-1.82a8.46,8.46,0,0,1,2.46.32A27.38,27.38,0,0,0,348,88V78.45a12.38,12.38,0,0,1-6.79-.08c-3.71-1-8.85-.17-9.74,0v9.58A24.69,24.69,0,0,1,338.54,86.58Z" style="fill:#0c152e"/><rect x="68.69" y="218.11" width="349.72" height="37.43" style="fill:#f7f9fb"/><rect x="68.69" y="217.94" width="349.72" height="0.33" style="fill:#0c152e"/><polygon points="207.01 22.51 189.52 15.07 182.25 32.98 199.74 40.42 207.01 22.51" style="fill:#fff"/><path d="M199.74,40.59h-.07l-17.49-7.45a.17.17,0,0,1-.09-.21L189.36,15a.18.18,0,0,1,.09-.1.2.2,0,0,1,.13,0l17.49,7.44a.16.16,0,0,1,.09.22l-7.27,17.91a.2.2,0,0,1-.09.09Zm-17.28-7.7,17.19,7.31,7.14-17.6-17.18-7.31Z" style="fill:#131b3a"/><polygon points="210.19 31.1 203.06 48.67 199.74 40.42 207.01 22.51 210.19 31.1" style="fill:#f7f9fb"/><path d="M203.06,48.84h0a.15.15,0,0,1-.15-.11l-3.33-8.24a.29.29,0,0,1,0-.13l7.27-17.91a.17.17,0,0,1,.16-.1.15.15,0,0,1,.15.11l3.19,8.59a.24.24,0,0,1,0,.12l-7.14,17.56A.15.15,0,0,1,203.06,48.84Zm-3.14-8.42,3.14,7.81,7-17.13L207,23Z" style="fill:#131b3a"/><polygon points="203.06 48.67 199.74 40.42 182.25 32.98 185.53 41.13 203.06 48.67" style="fill:#f7f9fb"/><path d="M203.06,48.84l-.06,0-17.53-7.53a.2.2,0,0,1-.09-.09L182.09,33a.17.17,0,0,1,0-.18.15.15,0,0,1,.18,0l17.49,7.44a.2.2,0,0,1,.09.09l3.32,8.25a.17.17,0,0,1,0,.18A.18.18,0,0,1,203.06,48.84ZM185.66,41l17.1,7.35-3.15-7.81-17.06-7.26Z" style="fill:#131b3a"/><polygon points="293.26 77.64 267.66 84.85 260.62 58.64 286.22 51.43 293.26 77.64" style="fill:#fff"/><path d="M267.55,85.06l-7.13-26.54.16,0,25.76-7.26,7.12,26.54-.15,0Zm-6.73-26.31,7,25.9,25.28-7.12-7-25.9Z" style="fill:#131b3a"/><polygon points="299.16 66.27 292.26 40.56 286.22 51.43 293.26 77.64 299.16 66.27" style="fill:#f7f9fb"/><path d="M293.26,77.81h0a.18.18,0,0,1-.14-.13l-7-26.21a.13.13,0,0,1,0-.12l6-10.87a.18.18,0,0,1,.17-.09.19.19,0,0,1,.14.12l6.9,25.72a.11.11,0,0,1,0,.11l-5.9,11.38A.19.19,0,0,1,293.26,77.81ZM286.4,51.45l6.91,25.74L299,66.25,292.2,41Z" style="fill:#131b3a"/><polygon points="292.26 40.56 286.22 51.43 260.62 58.64 266.59 47.89 292.26 40.56" style="fill:#f7f9fb"/><path d="M260.62,58.81a.17.17,0,0,1-.13-.07.15.15,0,0,1,0-.18l6-10.75a.14.14,0,0,1,.1-.08l25.66-7.33a.17.17,0,0,1,.18.05.19.19,0,0,1,0,.19l-6,10.87a.19.19,0,0,1-.1.08l-25.6,7.21ZM266.7,48,261,58.37l25.15-7.08,5.81-10.46Z" style="fill:#131b3a"/><g style="clip-path:url(#clip-path-2)"><line x1="123.6" y1="205.58" x2="123.52" y2="197.94" style="fill:#dde4f0"/></g><path d="M80.9,218.19a3.61,3.61,0,1,0,3.61-3.61,3.61,3.61,0,0,0-3.61,3.61" style="fill:#2bd57b"/><path d="M75,216.36a4.56,4.56,0,1,0,4.56-4.56A4.56,4.56,0,0,0,75,216.36" style="fill:#2bd57b"/><path d="M70,219.4a4.56,4.56,0,0,0,9,.8,4.25,4.25,0,0,0,.07-.8,4.33,4.33,0,0,0-.09-.89,4.46,4.46,0,0,0-1-2.07,4.56,4.56,0,0,0-7.94,2.07,4.33,4.33,0,0,0-.09.89" style="fill:#2bd57b"/><path d="M41,180.86v-5.24a1.83,1.83,0,0,1,2-1.6h.86a1.83,1.83,0,0,1,2,1.6v5.27a.42.42,0,0,1-.46.37h-3.9a.43.43,0,0,1-.46-.37" style="fill:#fff"/><g id="tree"><path d="M66.66,172.4a14.06,14.06,0,1,1-14-14.06,14,14,0,0,1,14,14.06" style="fill:#2bd57b"/><rect x="52.52" y="165.94" width="0.55" height="52.3" style="fill:#0c152e"/><rect x="51.54" y="174.15" width="8.05" height="0.55" transform="translate(-107.07 90.38) rotate(-45)" style="fill:#0c152e"/></g><path d="M1.71,218.44A3.74,3.74,0,0,0-2,215H-6.93a3.75,3.75,0,0,0-3.73,3.42Z" style="fill:#fff"/><path d="M1.82,218.44H-10.76v-.18A3.78,3.78,0,0,1-7,214.82h5a3.76,3.76,0,0,1,3.75,3.44Zm-12.47-.2H1.61A3.64,3.64,0,0,0-2,215H-6.93a3.63,3.63,0,0,0-3.62,3.22" style="fill:#0c152e"/><path d="M145.54,218.19a3.61,3.61,0,1,0,3.61-3.61,3.61,3.61,0,0,0-3.61,3.61" style="fill:#2bd57b"/><path d="M139.63,216.36a4.56,4.56,0,1,0,4.56-4.56,4.56,4.56,0,0,0-4.56,4.56" style="fill:#2bd57b"/><path d="M134.62,219.4a4.56,4.56,0,0,0,9,.8,4.25,4.25,0,0,0,.07-.8,4.33,4.33,0,0,0-.09-.89,4.66,4.66,0,0,0-1-2.07,4.56,4.56,0,0,0-7.94,2.07,4.33,4.33,0,0,0-.09.89" style="fill:#2bd57b"/><g id="tree-2" data-name="tree"><path d="M66.15,168.9c-8.69,1.67-14.35.92-22.89-7l1-.81c12.18,0,10,7.25,21.6,6.62" style="fill:#0c152e"/><path d="M82.66,146.29a22.06,22.06,0,1,1-22-22.06,22,22,0,0,1,22,22.06" style="fill:#2bd57b"/><rect x="60.48" y="136.15" width="0.57" height="82.08" style="fill:#0c152e"/><rect x="56.14" y="137" width="0.86" height="12.63" transform="translate(-84.77 81.98) rotate(-45)" style="fill:#0c152e"/><polygon points="60.96 160.24 60.4 159.58 64.36 155.7 64.92 156.35 60.96 160.24" style="fill:#0c152e"/></g><path d="M56.54,216a6.67,6.67,0,0,1-.12,1.27,6.09,6.09,0,0,1-.21.89,7.5,7.5,0,0,1-.57,1.33,7.23,7.23,0,0,1-13.22-1.33,6.27,6.27,0,0,1-.21-.88h0a6.26,6.26,0,0,1-.12-1.23,7.23,7.23,0,1,1,14.45,0" style="fill:#2bd57b"/><path d="M60.12,216a3.61,3.61,0,1,1-3.6-3.61,3.6,3.6,0,0,1,3.6,3.61" style="fill:#2bd57b"/><path d="M67.61,216a4.56,4.56,0,1,1-4.56-4.56A4.56,4.56,0,0,1,67.61,216" style="fill:#2bd57b"/><path d="M75.57,218.19a4.56,4.56,0,0,1-9,.8,4.18,4.18,0,0,1-.07-.8,4.57,4.57,0,0,1,1.09-2.95,4.56,4.56,0,0,1,7.94,2.06,4.41,4.41,0,0,1,.09.89" style="fill:#2bd57b"/><path d="M64.7,179.38s-4.65-8.23.59-15.83c.65-1,3.63-4.35,5.52-4.79,6-1.4-6.67,10.41-4.61,17.68" style="fill:#0c152e"/><path d="M92.73,171.05a14.34,14.34,0,1,1-14.34-14.34,14.34,14.34,0,0,1,14.34,14.34" style="fill:#2bd57b"/><rect x="78.3" y="164.46" width="0.37" height="53.37" style="fill:#0c152e"/><rect x="75.48" y="165.02" width="0.56" height="8.21" transform="translate(-97.4 103.11) rotate(-45)" style="fill:#0c152e"/><polygon points="78.62 180.13 78.25 179.7 80.83 177.17 81.19 177.6 78.62 180.13" style="fill:#0c152e"/><g id="tree-3" data-name="tree"><path d="M96.83,188.15a8.93,8.93,0,1,1-8.93-8.94,8.93,8.93,0,0,1,8.93,8.94" style="fill:#2bd57b"/><rect x="87.85" y="184.04" width="0.35" height="33.24" style="fill:#0c152e"/><rect x="87.22" y="189.26" width="5.11" height="0.35" transform="translate(-107.66 118.98) rotate(-45)" style="fill:#0c152e"/></g><path d="M90.4,216.88a4.43,4.43,0,0,1-.07.81,4,4,0,0,1-.14.57,4.43,4.43,0,0,1-.36.84,4.59,4.59,0,0,1-8.4-.84,4,4,0,0,1-.14-.57h0a4.11,4.11,0,0,1-.07-.78,4.59,4.59,0,0,1,8.61-2.25,4.5,4.5,0,0,1,.57,2.22" style="fill:#2bd57b"/><path d="M92.68,216.88a2.29,2.29,0,1,1-2.29-2.3,2.3,2.3,0,0,1,2.29,2.3" style="fill:#2bd57b"/><path d="M97.44,216.88a2.9,2.9,0,1,1-2.9-2.9,2.9,2.9,0,0,1,2.9,2.9" style="fill:#2bd57b"/><path d="M102.5,218.26a2.9,2.9,0,0,1-5.75.5,2.73,2.73,0,0,1,0-.5,2.62,2.62,0,0,1,.06-.57,2.9,2.9,0,0,1,5.68,0,2.62,2.62,0,0,1,.06.57" style="fill:#2bd57b"/><g style="clip-path:url(#clip-path-3)"><line x1="463.6" y1="205.58" x2="463.52" y2="197.94" style="fill:#dde4f0"/></g><path d="M420.9,218.19a3.61,3.61,0,1,0,3.61-3.61,3.61,3.61,0,0,0-3.61,3.61" style="fill:#2bd57b"/><path d="M415,216.36a4.56,4.56,0,1,0,4.56-4.56,4.56,4.56,0,0,0-4.56,4.56" style="fill:#2bd57b"/><path d="M410,219.4a4.56,4.56,0,0,0,9,.8,4.25,4.25,0,0,0,.07-.8,4.33,4.33,0,0,0-.09-.89,4.46,4.46,0,0,0-1-2.07,4.56,4.56,0,0,0-7.94,2.07,4.33,4.33,0,0,0-.09.89" style="fill:#2bd57b"/><g id="tree-4" data-name="tree"><path d="M406.6,185.54a10,10,0,1,1-10-10,10,10,0,0,1,10,10" style="fill:#2bd57b"/><rect x="396.52" y="180.94" width="0.39" height="37.3" style="fill:#0c152e"/><rect x="395.81" y="186.79" width="5.74" height="0.39" transform="translate(-15.44 336.7) rotate(-45)" style="fill:#0c152e"/></g><path d="M383.71,216.44A3.74,3.74,0,0,0,380,213h-4.91a3.75,3.75,0,0,0-3.73,3.42Z" style="fill:#fff"/><path d="M383.82,216.44H371.24v-.18a3.78,3.78,0,0,1,3.76-3.44h5a3.76,3.76,0,0,1,3.75,3.44Zm-12.47-.2h12.26A3.64,3.64,0,0,0,380,213h-4.92a3.63,3.63,0,0,0-3.62,3.22" style="fill:#0c152e"/><path d="M425.54,218.19a3.61,3.61,0,1,0,3.61-3.61,3.61,3.61,0,0,0-3.61,3.61" style="fill:#2bd57b"/><path d="M419.63,216.36a4.56,4.56,0,1,0,4.56-4.56,4.56,4.56,0,0,0-4.56,4.56" style="fill:#2bd57b"/><path d="M413.62,218.4a4.56,4.56,0,0,0,9.05.8,4.25,4.25,0,0,0,.07-.8,4.33,4.33,0,0,0-.09-.89,4.66,4.66,0,0,0-1-2.07,4.56,4.56,0,0,0-7.94,2.07,4.33,4.33,0,0,0-.09.89" style="fill:#2bd57b"/><path d="M396.54,216a6.67,6.67,0,0,1-.12,1.27,6.09,6.09,0,0,1-.21.89,7.5,7.5,0,0,1-.57,1.33,7.23,7.23,0,0,1-13.22-1.33,6.27,6.27,0,0,1-.21-.88h0a6.26,6.26,0,0,1-.12-1.23,7.23,7.23,0,1,1,14.45,0" style="fill:#2bd57b"/><path d="M400.12,216a3.61,3.61,0,1,1-3.6-3.61,3.6,3.6,0,0,1,3.6,3.61" style="fill:#2bd57b"/><path d="M407.61,216a4.56,4.56,0,1,1-4.56-4.56,4.56,4.56,0,0,1,4.56,4.56" style="fill:#2bd57b"/><path d="M415.57,218.19a7.72,7.72,0,0,1-15.33,1.35,7.53,7.53,0,0,1-.12-1.35,6.91,6.91,0,0,1,.16-1.51,7.7,7.7,0,0,1,7.56-6.21,7.72,7.72,0,0,1,7.58,6.21,7.58,7.58,0,0,1,.15,1.51" style="fill:#2bd57b"/><path d="M432.73,171.05a14.34,14.34,0,1,1-14.34-14.34,14.34,14.34,0,0,1,14.34,14.34" style="fill:#2bd57b"/><rect x="418.3" y="164.46" width="0.37" height="53.37" style="fill:#0c152e"/><rect x="415.48" y="165.02" width="0.56" height="8.21" transform="translate(2.19 343.54) rotate(-45)" style="fill:#0c152e"/><polygon points="418.62 180.13 418.25 179.7 420.83 177.17 421.19 177.6 418.62 180.13" style="fill:#0c152e"/></g></g><line x1="15" y1="217.15" x2="447" y2="215.73" style="fill:#0c152e;stroke:#0c152e;stroke-miterlimit:10;stroke-width:0.25px"/></g></g></svg>