<svg id="Layer_1" data-name="Layer 1" xmlns="http://www.w3.org/2000/svg" xmlns:xlink="http://www.w3.org/1999/xlink" viewBox="0 0 475 256"><defs><clipPath id="clip-path"><rect id="mask" x="21.62" y="12.42" width="428.8" height="203.32" style="fill:none"/></clipPath><clipPath id="clip-path-2"><rect x="187.47" y="57.79" width="53.98" height="89.72" style="fill:none"/></clipPath><clipPath id="clip-path-3"><rect x="209.51" y="40.1" width="170.75" height="176.18" style="fill:none"/></clipPath></defs><line x1="15" y1="216" x2="447" y2="216" style="fill:#0c152e;stroke:#0c152e;stroke-miterlimit:10;stroke-width:0.5px"/><g style="clip-path:url(#clip-path)"><g id="Stetoscoop"><path d="M83.15,148.75c-1.21,1.27-10.18.9-11.34-.94-1.42-2.26-1-6.58-1.14-8.82-.14-3-1-2.51-.94-2.77.28-1,15.23-1.53,15.41.37a16.33,16.33,0,0,0-.32,3.75c.1,4.34-.85,8.37-1.76,8.47" style="fill:#4070f4;stroke:#101c3d;stroke-miterlimit:10;stroke-width:0.5px"/><path d="M59.45,63.62H54.16a1.69,1.69,0,0,1-1.69-1.69V51.23a1.69,1.69,0,0,1,1.69-1.69h5.29a1.69,1.69,0,0,1,1.69,1.69v10.7A1.69,1.69,0,0,1,59.45,63.62Z" style="fill:#4070f4;stroke:#101c3d;stroke-miterlimit:10;stroke-width:0.5px"/><path d="M52.14,56.46H47.82a1.89,1.89,0,0,0-1.9,1.87c-.13,9.08-.73,44.68-.18,50.49,1.69,17.64,16,23.71,21.89,25.83a4.72,4.72,0,0,1,3,4.45c.13,4.81-1.43,10.87,7.08,10.38,6.4.41,7.22-.36,7.07-10.38a4.61,4.61,0,0,1,3-4.45c5.93-2.12,21.94-11.59,21.89-25.83,0-4.5,0-41.41-.17-50.49a1.91,1.91,0,0,0-1.91-1.87h-4.32" style="fill:none;stroke:#101c3d;stroke-miterlimit:10;stroke-width:0.5px"/><path d="M77.74,150c0,9.22-.56,30.13,24.11,31.08,26.8,1,28.36-18.52,28.22-36.14-.09-11.2-.7-44.77-.7-44.77s.58-25.5,22.15-25.89c17.18-.31,21.73,16.69,21.69,25,0,6.65-1,31,19.6,29,1.89-.19,6.1-2.91,6.1-2.91" style="fill:none;stroke:#101c3d;stroke-miterlimit:10;stroke-width:0.5px"/><path d="M101.45,63.62H96.16a1.69,1.69,0,0,1-1.69-1.69V51.23a1.69,1.69,0,0,1,1.69-1.69h5.29a1.69,1.69,0,0,1,1.69,1.69v10.7A1.69,1.69,0,0,1,101.45,63.62Z" style="fill:#4070f4;stroke:#101c3d;stroke-miterlimit:10;stroke-width:0.5px"/><path d="M199,121.67s-1.79.71-1.51,1.6c.43,1.35,2.49,3.77,3.34,4,1,.28,1.85-1.07,1.85-1.07s-1.44-1.35-1.85-1.85S199,121.67,199,121.67Z" style="fill:#fff;stroke:#0c152e;stroke-miterlimit:10;stroke-width:0.5px"/></g><g style="clip-path:url(#clip-path-2)"><circle cx="226.22" cy="103.9" r="32.89" style="fill:#4070f4;stroke:#0c152e;stroke-miterlimit:10;stroke-width:0.5px"/><polygon id="cross" points="249.73 97.85 233.69 97.84 233.7 81.79 220.55 81.78 220.53 97.83 204.49 97.81 204.48 110.97 220.52 110.98 220.51 127.02 233.66 127.03 233.68 110.99 249.72 111.01 249.73 97.85" style="fill:#fff"/></g><g id="illu"><path d="M373.9,191.49l0,2.9s-2.8,6.29-.78,8.14c2.5,2.29-2.24,4.71-2.46,7.63h3a18.09,18.09,0,0,1,.35,1.78,3.62,3.62,0,0,1,3.56,3.72H374.3s23,0,23,0c-.32-4.49-1.12-6.9-7.7-7.12a5.7,5.7,0,0,1-3-1,2.6,2.6,0,0,1-1-1c-1.77-4.1-.48-7.74-7.4-7.75C374.28,198.78,373.9,191.49,373.9,191.49Z" style="fill:#2bd67b"/><rect x="360.13" y="160.46" width="19.23" height="55.18" style="fill:#dde4f0"/><circle cx="221.27" cy="189.18" r="10.07" style="fill:#2bd67b"/><rect x="221.09" y="184.29" width="0.36" height="37.65" style="fill:#0c152e"/><rect x="220.32" y="190.46" width="5.76" height="0.36" transform="translate(-69.41 213.93) rotate(-45.05)" style="fill:#0c152e"/><path d="M211.43,217.68a13.67,13.67,0,0,1-.23,2.5,12.89,12.89,0,0,1-.42,1.76,14,14,0,0,1-1.12,2.6,14.18,14.18,0,0,1-25.93-2.6,12.75,12.75,0,0,1-.42-1.75h0a12.85,12.85,0,0,1-.23-2.5,14.17,14.17,0,0,1,26.58-6.85A14,14,0,0,1,211.43,217.68Z" style="fill:#2bd67b"/><circle cx="211.43" cy="217.68" r="7.08" style="fill:#2bd67b"/><circle cx="224.26" cy="217.68" r="8.95" style="fill:#2bd67b"/><path d="M248.82,221.94a9,9,0,0,1-17.9,0,8.54,8.54,0,0,1,.18-1.76,8.95,8.95,0,0,1,17.55,0A8.54,8.54,0,0,1,248.82,221.94Z" style="fill:#2bd67b"/><g style="clip-path:url(#clip-path-3)"><g style="clip-path:url(#clip-path-3)"><path d="M312.61,216.28h-71.5a.29.29,0,0,1-.28-.28V47.55a.28.28,0,0,1,.28-.27h71.5a.27.27,0,1,1,0,.54H241.38V215.73h71.23a.28.28,0,0,1,.28.27.29.29,0,0,1-.28.28" style="fill:#0c152e"/><rect x="349.88" y="124.05" width="3.19" height="20.03" style="fill:#0c152e"/><path d="M353.34,144.36H322.65V123.77h30.69Zm-30.14-.55h29.59V124.32H323.2Z" style="fill:#0c152e"/><rect x="349.88" y="90.9" width="3.19" height="20.03" style="fill:#0c152e"/><path d="M353.34,111.21H322.65V90.62h30.69Zm-30.14-.55h29.59V91.17H323.2Z" style="fill:#0c152e"/><rect x="349.88" y="59.37" width="3.19" height="20.03" style="fill:#0c152e"/><path d="M353.34,79.68H322.65V59.1h30.69Zm-30.14-.55h29.59V59.65H323.2Z" style="fill:#0c152e"/><path d="M359.57,216.27h-47a.27.27,0,0,1-.27-.27V47.55a.27.27,0,0,1,.27-.27h47a.27.27,0,0,1,.27.27V216a.27.27,0,0,1-.27.27m-46.68-.54h46.4V47.82h-46.4Z" style="fill:#0c152e"/><rect x="270.45" y="57.75" width="12.81" height="20.03" style="fill:#fff"/><path d="M283.54,78.05H270.18V57.47h13.36Zm-12.81-.54H283V58H270.73Z" style="fill:#0c152e"/><rect x="270.45" y="57.75" width="1" height="20.03" style="fill:#0c152e"/><rect x="290.04" y="57.75" width="12.81" height="20.03" style="fill:#fff"/><path d="M303.12,78.05H289.76V57.47h13.36Zm-12.81-.54h12.27V58H290.31Z" style="fill:#0c152e"/><rect x="290.04" y="57.75" width="1" height="20.03" style="fill:#0c152e"/><rect x="250.87" y="57.75" width="12.81" height="20.03" style="fill:#fff"/><path d="M264,78.05H250.6V57.47H264Zm-12.81-.54h12.26V58H251.15Z" style="fill:#0c152e"/><rect x="250.87" y="57.75" width="1" height="20.03" style="fill:#0c152e"/><path d="M353.34,216.29H340.48V190.47h12.86ZM341,215.74h11.76V191H341Z" style="fill:#0c152e"/><path d="M316.37,47.82H239V40.1h77.36Zm-76.81-.54h76.26V40.65H239.56Z" style="fill:#0c152e"/><rect x="316.09" y="40.38" width="46.37" height="7.17" style="fill:#0c152e"/><path d="M362.74,47.82H315.82V40.1h46.92Zm-46.37-.54h45.82V40.65H316.37Z" style="fill:#0c152e"/><path d="M289.45,216.28H276.59V190.47h12.86Zm-12.32-.55H288.9V191H277.13Z" style="fill:#0c152e"/><path d="M277.13,216.28H264.28V190.47h12.85Zm-12.31-.55h11.77V191H264.82Z" style="fill:#0c152e"/><rect x="251.87" y="57.91" width="11.61" height="15.93" style="fill:#dfe6f2"/><rect x="271.5" y="57.91" width="11.61" height="15.93" style="fill:#dfe6f2"/><rect x="291.04" y="57.91" width="11.61" height="15.93" style="fill:#dfe6f2"/><rect x="251.9" y="91.05" width="11.61" height="9.2" style="fill:#dfe6f2"/><rect x="271.46" y="91.06" width="11.61" height="4.59" style="fill:#dfe6f2"/><rect x="291.04" y="90.98" width="11.61" height="12.21" style="fill:#dfe6f2"/><rect x="251.87" y="124.05" width="11.61" height="14.45" style="fill:#dfe6f2"/><rect x="271.2" y="124.05" width="12.06" height="18.87" style="fill:#dfe6f2"/><rect x="291.04" y="124.05" width="11.61" height="1.99" style="fill:#dfe6f2"/><rect x="251.87" y="157.14" width="11.67" height="1.99" style="fill:#dfe6f2"/><path d="M283.54,144.36H270.18V123.77h13.36Zm-12.81-.55H283V124.32H270.73Z" style="fill:#0c152e"/><rect x="270.45" y="124.05" width="1" height="20.03" style="fill:#0c152e"/><path d="M303.12,144.36H289.76V123.77h13.36Zm-12.81-.55h12.27V124.32H290.31Z" style="fill:#0c152e"/><rect x="290.04" y="124.05" width="1" height="20.03" style="fill:#0c152e"/><path d="M264,144.36H250.6V123.77H264Zm-12.81-.55h12.26V124.32H251.15Z" style="fill:#0c152e"/><rect x="250.87" y="124.05" width="1" height="20.03" style="fill:#0c152e"/><rect x="270.45" y="157.2" width="12.81" height="20.03" style="fill:#fff"/><path d="M283.54,177.51H270.18V156.92h13.36ZM270.73,177H283V157.47H270.73Z" style="fill:#0c152e"/><rect x="270.45" y="157.2" width="1" height="20.03" style="fill:#0c152e"/><rect x="290.04" y="157.2" width="12.81" height="20.03" style="fill:#fff"/><path d="M303.12,177.51H289.76V156.92h13.36ZM290.31,177h12.27V157.47H290.31Z" style="fill:#0c152e"/><rect x="290.04" y="157.2" width="1" height="20.03" style="fill:#0c152e"/><path d="M264,177.51H250.6V156.92H264ZM251.15,177h12.26V157.47H251.15Z" style="fill:#0c152e"/><rect x="250.87" y="157.2" width="1" height="20.03" style="fill:#0c152e"/><path d="M283.54,111.21H270.18V90.62h13.36Zm-12.81-.55H283V91.17H270.73Z" style="fill:#0c152e"/><rect x="270.45" y="90.9" width="1" height="20.03" style="fill:#0c152e"/><path d="M303.12,111.21H289.76V90.62h13.36Zm-12.81-.55h12.27V91.17H290.31Z" style="fill:#0c152e"/><rect x="290.04" y="90.9" width="1" height="20.03" style="fill:#0c152e"/><path d="M264,111.21H250.6V90.62H264Zm-12.81-.55h12.26V91.17H251.15Z" style="fill:#0c152e"/><rect x="250.87" y="90.9" width="1" height="20.03" style="fill:#0c152e"/><rect x="231.07" y="161.18" width="0.55" height="55.04" style="fill:#101c3d"/><path d="M240.57,161.25H224.16a7.13,7.13,0,1,1,.06-14.25h16.35a2.28,2.28,0,0,1,2.28,2.27V159a2.28,2.28,0,0,1-2.28,2.28" style="fill:#101c3d"/><path d="M240.57,161.39H224.16a7.27,7.27,0,0,1,.06-14.53h16.35a2.42,2.42,0,0,1,2.42,2.41V159a2.43,2.43,0,0,1-2.42,2.42m-16.35-14.26a7,7,0,1,0-.06,14h16.41a2.14,2.14,0,0,0,2.14-2.14v-9.7a2.14,2.14,0,0,0-2.14-2.14Z" style="fill:#2e407d"/><path d="M238.5,161.25H227A7.13,7.13,0,0,1,227,147H238.5a7.13,7.13,0,1,1,0,14.25" style="fill:#2bd67b"/><path d="M238.5,161.52H227a7.4,7.4,0,1,1,0-14.8H238.5a7.4,7.4,0,1,1,0,14.8M227,147.27A6.86,6.86,0,0,0,227,161H238.5a6.86,6.86,0,1,0,0-13.71Z" style="fill:#2bd67b"/><path d="M233.66,192.73h-2.31v-.55h2.31a5.93,5.93,0,0,0,5.92-5.92v-9.35h.55v9.35a6.47,6.47,0,0,1-6.47,6.47" style="fill:#101c3d"/><path d="M243.65,180.47h-6.79a2.9,2.9,0,0,1-2.91-2.9,3,3,0,0,1,3-3h6.71a1,1,0,0,1,1,1v3.95a1,1,0,0,1-1,1" style="fill:#101c3d"/><path d="M243.65,180.61h-6.79a3,3,0,0,1-3.05-3,3.13,3.13,0,0,1,3.13-3.13h6.71a1.11,1.11,0,0,1,1.1,1.11v3.95a1.11,1.11,0,0,1-1.1,1.11m-6.71-5.89a2.86,2.86,0,0,0-2.85,2.85,2.78,2.78,0,0,0,2.77,2.77h6.79a.84.84,0,0,0,.83-.84v-3.95a.83.83,0,0,0-.83-.83Z" style="fill:#2e407d"/><path d="M242.82,180.47h-4.77a2.95,2.95,0,1,1,0-5.89h4.77a2.95,2.95,0,1,1,0,5.89" style="fill:#2bd67b"/><path d="M242.82,180.75h-4.77a3.23,3.23,0,0,1,0-6.45h4.77a3.23,3.23,0,0,1,0,6.45m-4.77-5.9a2.68,2.68,0,0,0,0,5.35h4.77a2.68,2.68,0,0,0,0-5.35Z" style="fill:#2bd67b"/><path d="M380.26,216.29H209.51a.29.29,0,0,1-.28-.28.28.28,0,0,1,.28-.27H380.26a.27.27,0,0,1,.27.27.28.28,0,0,1-.27.28" style="fill:#0c152e"/></g></g></g><polyline points="115.77 -43.69 132 -21.43 163.41 -70.32 201.69 0 216.67 -28.09 223.54 -19.14 239.35 -49.72" style="fill:none;stroke:#4070f4;stroke-miterlimit:10"/><path d="M394.24,95.28s3.31,19.71,4.61,23.94,4,22.06,1.43,23.81" style="fill:#fff"/><path d="M400.42,143.24l-.28-.41c2.33-1.61-.2-19.25-1.53-23.54s-4.48-23.17-4.62-24l.49-.08c0,.19,3.33,19.74,4.61,23.9S403.2,141.33,400.42,143.24Z" style="fill:#101c3d"/><path d="M401,152.06l-.14.11a7.31,7.31,0,0,1-10.4-9.78c.34-3.68-1.14-14.67-2.14-17.9C386.93,120,384,103,383.47,99.6a7.31,7.31,0,0,1,14.41-2.42c1.34,8,3.58,20.4,4.38,23a89,89,0,0,1,2.46,14.27C405.59,143.28,405.26,149,401,152.06Z" style="fill:#fff"/><path d="M396.73,153.69a7.55,7.55,0,0,1-6.53-11.38c.34-3.83-1.17-14.66-2.13-17.75-1.38-4.48-4.28-21.55-4.85-24.92a7.55,7.55,0,0,1,14.9-2.5c1.34,8,3.59,20.38,4.38,23A91,91,0,0,1,405,134.42c.88,8.94.54,14.73-3.83,17.85l-.15.1A7.48,7.48,0,0,1,396.73,153.69Zm-6-62.36a8.07,8.07,0,0,0-1.19.1,7.08,7.08,0,0,0-5.79,8.13c.57,3.37,3.46,20.41,4.84,24.85,1,3.14,2.5,14.18,2.15,18l0,.1a7.06,7.06,0,0,0,10,9.45l.14-.1c4.18-3,4.49-8.63,3.63-17.39A89.69,89.69,0,0,0,402,120.24c-.81-2.6-3.06-15-4.4-23a7.07,7.07,0,0,0-6.94-5.89Z" style="fill:#101c3d"/><circle cx="382.62" cy="67.86" r="6.9" style="fill:#fff"/><path d="M382.63,75a7,7,0,0,1-1.69-.2,7.07,7.07,0,0,1-4.42-3.22,7.15,7.15,0,0,1,12.2-7.45h0A7.16,7.16,0,0,1,386.34,74,7,7,0,0,1,382.63,75Zm0-13.8a6.66,6.66,0,0,0-5.66,10.12,6.65,6.65,0,1,0,11.35-6.93h0a6.61,6.61,0,0,0-4.11-3A7,7,0,0,0,382.6,61.21Z" style="fill:#0c152e"/><path d="M380.81,64.43a4.29,4.29,0,0,1-2.25-2.14A4.63,4.63,0,0,1,379,62a6.9,6.9,0,0,1,7.38.11h0A4.28,4.28,0,0,1,380.81,64.43Z" style="fill:#c5cfe4"/><polygon points="359.98 98.1 362.84 100.02 362.93 106.96 356.91 126.64 363.69 109.57 364.72 106.96 379.88 98.62 359.98 98.1" style="fill:#c5cfe4"/><polygon points="422.04 183.09 434.46 215.74 427.55 215.74 422.52 203.45 420.32 215.75 407.89 215.74 394.93 183.09 422.04 183.09" style="fill:#4070f4"/><path d="M420.53,216H407.72l-.06-.16-13.1-33h27.65l.06.16,12.55,33h-7.43l-4.78-11.65Zm-12.47-.51h12.06l2.3-12.94,5.3,12.93h6.38l-12.23-32.15H395.3Z" style="fill:#4070f4"/><path d="M364.72,80.94h28.14a0,0,0,0,1,0,0V92.89A14.07,14.07,0,0,1,378.79,107h0a14.07,14.07,0,0,1-14.07-14.07V80.94A0,0,0,0,1,364.72,80.94Z" transform="translate(757.58 187.9) rotate(180)" style="fill:#dfe6f2"/><polygon points="352.8 137.66 352.34 137.48 364.55 106.71 392.86 106.71 392.86 107.21 364.89 107.21 352.8 137.66" style="fill:#101c3d"/><polygon points="362.32 183.09 349.9 215.74 343.13 215.74 347.45 203.55 336.94 215.74 321.55 215.74 334.51 183.09 348.61 183.09 362.32 183.09" style="fill:#4070f4"/><path d="M350.08,216h-7.3l4-11.27L337.05,216H321.18l13.16-33.15h28.35Zm-6.6-.5h6.25L362,183.34H334.68l-12.76,32.15h14.91l11.3-13.11Z" style="fill:#4070f4"/><path d="M392.86,103c-.06-.07-28.31,0-28.31,0v-1.14h28.31Z" style="fill:#c5cfe4"/><path d="M388.45,83.2c-2.18-.82-3.78-2.24-4.23-3.58a22.29,22.29,0,0,1,9.44,3.82A7.27,7.27,0,0,1,388.45,83.2Z" style="fill:#254898"/><circle cx="382.12" cy="59.36" r="4.28" style="fill:#4070f4"/><polyline points="378.19 140.9 394.93 183.09 422.04 183.09 393.07 106.96 364.72 106.96 351.83 139.45" style="fill:#fff"/><polyline points="379.88 145.4 388.54 128.22 385.36 131.04 381.17 133.56 378.19 140.9 380.85 147.61" style="fill:#dfe6f2"/><path d="M388.54,128.22a25.33,25.33,0,0,1-7.37,5.34l-18.85,49.53H334.51l18.06-45.52" style="fill:#fff"/><path d="M362.5,183.34H334.14l18.2-45.86.46.18-17.92,45.18h27.27L381,133.38l.09,0a25.35,25.35,0,0,0,7.3-5.29l.37.34a25.57,25.57,0,0,1-7.36,5.35Z" style="fill:#101c3d"/><polygon points="422.4 183.34 394.76 183.34 394.7 183.18 378.05 141.23 378.52 141.05 395.1 182.84 421.68 182.84 404.21 136.95 392.69 107.21 364.89 107.21 352.8 137.66 352.34 137.48 364.55 106.71 393.03 106.71 393.1 106.87 404.68 136.77 422.4 183.34" style="fill:#101c3d"/><path d="M371.56,81.28a22.5,22.5,0,0,1,31.64,20.53H358.25a22.49,22.49,0,0,1,13.31-20.53" style="fill:#2bd67b"/><path d="M380.34,80.52c-1.9,0-3.5-.32-4-.75a22.5,22.5,0,0,1,8-.13C384.13,80.14,382.42,80.52,380.34,80.52Z" style="fill:#254898"/><path d="M383.38,58.35s13.86-3.89,19.82,14c3.11,9.34,19.54,7.2,18.23,20.1-1.1,10.94-22.58,11.92-31.43,3.89-10.09-9.13-4.32-16.82-8.76-25.89C374.84,57.43,383.38,58.35,383.38,58.35Z" style="fill:#4070f4"/><path d="M380.84,96.1s-1.62,19.92-1.38,24.34-1.53,22.36-4.44,23.44" style="fill:#fff"/><path d="M375.1,144.11l-.17-.47c2.65-1,4.52-18.71,4.28-23.19s1.31-23.56,1.38-24.37l.5,0c0,.2-1.61,20-1.38,24.3S378.27,142.94,375.1,144.11Z" style="fill:#101c3d"/><path d="M373.49,152.81l-.16.06a7.3,7.3,0,0,1-7.69-12c1.23-3.48,2.48-14.5,2.31-17.88-.25-4.67,1.11-21.91,1.39-25.32a7.3,7.3,0,1,1,14.56,1.18c-.65,8.07-1.51,20.66-1.37,23.37a89.63,89.63,0,0,1-1.11,14.44C380.1,145.42,378.38,150.9,373.49,152.81Z" style="fill:#fff"/><path d="M369,153.35a7.56,7.56,0,0,1-3.54-12.64c1.26-3.63,2.45-14.5,2.28-17.73-.25-4.68,1.12-21.94,1.39-25.35a7.57,7.57,0,0,1,8.14-6.92,7.55,7.55,0,0,1,6.92,8.14c-.65,8.07-1.51,20.64-1.37,23.33a90.22,90.22,0,0,1-1.11,14.5c-1.33,8.88-3.08,14.41-8.08,16.36l-.18.07A7.47,7.47,0,0,1,369,153.35Zm9.4-61.95a7.51,7.51,0,0,0-1.17-.19,7.06,7.06,0,0,0-7.6,6.46c-.28,3.41-1.64,20.64-1.39,25.28.17,3.29-1,14.36-2.32,18l-.06.1a7.05,7.05,0,0,0,7.42,11.61l.16-.06c4.78-1.87,6.47-7.27,7.77-16a89.08,89.08,0,0,0,1.11-14.39c-.14-2.72.72-15.32,1.37-23.4a7,7,0,0,0-5.29-7.41Z" style="fill:#101c3d"/><g id="cross-2" data-name="cross"><polygon points="382.26 119.91 368.17 119.91 368.9 106.98 383.02 106.98 382.26 119.91" style="fill:#4070f4"/><polygon id="cross-3" data-name="cross" points="380.36 111.9 376.98 111.89 376.99 108.52 374.22 108.52 374.22 111.89 370.84 111.89 370.84 114.66 374.21 114.66 374.21 118.03 376.98 118.03 376.98 114.66 380.35 114.66 380.36 111.9" style="fill:#fff"/></g></g></svg>