<svg id="Layer_1" data-name="Layer 1" xmlns="http://www.w3.org/2000/svg" xmlns:xlink="http://www.w3.org/1999/xlink" viewBox="0 0 475 256"><defs><clipPath id="clip-path"><rect x="15.51" y="5.47" width="433.27" height="211.07" style="fill:none"/></clipPath><clipPath id="clip-path-2"><rect x="15.51" y="11.5" width="508.83" height="250.5" style="fill:none"/></clipPath><clipPath id="clip-path-3"><rect x="44" y="-54" width="585" height="329.06" style="fill:none"/></clipPath><clipPath id="clip-path-4"><rect x="316.87" y="21.13" width="128.71" height="61.02" style="fill:none"/></clipPath></defs><g style="clip-path:url(#clip-path)"><g id="ALL"><g id="Foggy_tree" data-name="Foggy tree"><circle cx="184.26" cy="142.72" r="15.34" style="fill:#dde4f0"/><line x1="183.86" y1="234.48" x2="183.86" y2="156.8" style="fill:none;stroke:#dde4f0;stroke-miterlimit:10"/></g><g id="Foggy_tree-2" data-name="Foggy tree"><circle cx="262.36" cy="124.22" r="23.45" style="fill:#dde4f0"/><line x1="261.76" y1="264.48" x2="261.76" y2="145.74" style="fill:none;stroke:#dde4f0;stroke-miterlimit:10"/></g><g id="Foggy_tree-3" data-name="Foggy tree"><circle cx="162.36" cy="119.22" r="23.45" style="fill:#dee5f1"/><line x1="161.76" y1="259.48" x2="161.76" y2="140.74" style="fill:none;stroke:#dee5f1;stroke-miterlimit:10;stroke-width:0.75px"/></g><path d="M95.29,209.31a6,6,0,0,0,3.13-1,2.87,2.87,0,0,0,1-1.07c1.85-4.28.81-8.09,7.3-8.09h18.11v17.62c-6.1,0-37.62,0-37.61,0,.33-4.69,1.16-7.21,8.05-7.44" style="fill:#2bd57b"/><g id="Windmill"><polygon points="100.1 216.77 103.8 120.7 107.71 121.01 111.99 216.77 100.1 216.77" style="fill:#f7f9fb;stroke:#000d2b;stroke-miterlimit:10;stroke-width:0.25px"/><path d="M105.33,118.57l63.19,12.92s.88,3.67-2.71,3.93c-2.87.2-32.21.86-43.9,1.12a9.85,9.85,0,0,1-7.86-3.64C109.6,127.43,102.25,117.94,105.33,118.57Z" style="fill:#f7f9fb;stroke:#000d2b;stroke-miterlimit:10;stroke-width:0.25px"/><path d="M107.79,120.46,56.82,160s-3.36-1.74-1.21-4.62c1.71-2.31,20.33-25,27.75-34a9.81,9.81,0,0,1,7.88-3.59C98.29,117.94,110.27,118.54,107.79,120.46Z" style="fill:#f7f9fb;stroke:#000d2b;stroke-miterlimit:10;stroke-width:0.25px"/><path d="M105.48,120.24,79.3,61.29s2.49-2.85,4.78-.07c1.83,2.22,19.4,25.72,26.4,35.08a9.86,9.86,0,0,1,1.6,8.52C110.21,111.62,106.75,123.11,105.48,120.24Z" style="fill:#f7f9fb;stroke:#000d2b;stroke-miterlimit:10;stroke-width:0.25px"/><path d="M103.66,127.93s2.42,1.26,4.17,0l0-2.17s-2.48.12-4.07,0Z" style="fill:#99a7bc"/><circle cx="105.69" cy="119.95" r="6.46" style="fill:#f7f9fb;stroke:#000d2b;stroke-miterlimit:10;stroke-width:0.25px"/></g><rect x="151.37" y="174.79" width="106.69" height="41.75" style="fill:#fff"/><polyline points="124 216.54 124 182.36 124.02 182.33 138.44 163.23 138.63 163.36 124.23 182.43 124.23 216.31" style="fill:#0c152e"/><polygon points="138.55 163.29 169.26 163.52 225.81 163.52 244.92 163.52 258.37 182.31 151.44 182.58 138.55 163.29" style="fill:#dee5f1"/><path d="M258.19,182.63H151.47l0,0-13-19.35,30.18.15H244.4l0,0Zm-106.67-.23h106l-13.45-18.79H168.75l-29.83-.14Z" style="fill:#0c152e"/><line x1="182.17" y1="182.46" x2="168.62" y2="163.36" style="fill:#dee5f1"/><line x1="225.13" y1="163.38" x2="184.77" y2="163.28" style="fill:#f6f8fa"/><path d="M225.12,163.38l-.1.23H184.53m.27-.23,40.09.1" style="fill:#0c152e"/><path d="M258.06,216.77H151.13V182.4H258.06Zm-106.69-.23H257.83V182.63H151.37Z" style="fill:#0c152e"/><g style="clip-path:url(#clip-path-2)"><path d="M168.53,163.61m.23-.23" style="fill:#0c152e"/><rect x="233.24" y="198.68" width="16.7" height="17.86" style="fill:#f6f8fa"/><path d="M250.17,216.54H233.24V198.45h16.93Zm-16.69,0h16.46V198.68H233.48Z" style="fill:#0c152e"/><rect x="248.09" y="198.68" width="2.09" height="17.86" style="fill:#dfe6f2"/><path d="M250.17,216.54h-2.31V198.45h2.31Zm-2.08,0h1.85V198.68h-1.85Z" style="fill:#0c152e"/><rect x="158.79" y="198.68" width="16.7" height="17.86" style="fill:#f6f8fa"/><path d="M175.49,216.54H158.56V198.45h16.93Zm-16.7,0h16.47V198.68H158.79Z" style="fill:#0c152e"/><rect x="173.4" y="198.68" width="2.09" height="17.86" style="fill:#dfe6f2"/><path d="M175.72,216.54H173.4V198.45h2.32Zm-2.09,0h1.86V198.68h-1.86Z" style="fill:#0c152e"/></g><g style="clip-path:url(#clip-path-3)"><line x1="310.91" y1="197.67" x2="310.79" y2="186.09" style="fill:#dde4f0"/><rect x="293.54" y="168.42" width="3.66" height="9.45" style="fill:#dde4f0"/><rect x="301.16" y="168.42" width="3.66" height="9.45" style="fill:#dde4f0"/><rect x="268.55" y="169.64" width="5.48" height="0.91" style="fill:#dde4f0"/><rect x="280.44" y="169.64" width="5.48" height="0.91" style="fill:#dde4f0"/><polygon points="328.36 216.64 284.05 216.64 284.05 146.46 328.36 124.46 328.36 216.64" style="fill:#dde4f0"/></g><rect x="289.27" y="158.98" width="7.31" height="3.96" style="fill:#fff"/><rect x="289.27" y="165.98" width="7.31" height="3.96" style="fill:#fff"/><rect x="289.27" y="172.99" width="7.31" height="3.96" style="fill:#fff"/><rect x="289.27" y="180" width="7.31" height="3.96" style="fill:#fff"/><path d="M187.08,213.09A.81.81,0,0,1,187,212a1.84,1.84,0,0,1,1.35-.85,2.61,2.61,0,0,1-.4,1.74A.59.59,0,0,1,187.08,213.09Z" style="fill:#2bd67b"/><path d="M192.43,198.37a2.53,2.53,0,0,1,1,3.2,6.65,6.65,0,0,1-3.47,4,8.27,8.27,0,0,1-.08-5.71C190.3,198.51,191.48,197.91,192.43,198.37Z" style="fill:#2bd67b"/><path d="M192.35,215.52h0a0,0,0,0,0,0-.06l-2.79-8.6,1.8-6.47s0,0,0,0a0,0,0,0,0,0,0l-1.8,6.48a0,0,0,0,0,0,0l2.79,8.62Z" style="fill:#0c152e"/><path d="M184.2,201.29c1-.88,2.32-.52,3.11.75a9.23,9.23,0,0,1,1.21,6.16,6.46,6.46,0,0,1-4.64-3.17A3,3,0,0,1,184.2,201.29Z" style="fill:#2bd67b"/><path d="M192.35,215.52s0,0,0,0a0,0,0,0,0,0-.06l-5.6-10.65a0,0,0,0,0,0,0,0,0,0,0,0,0,.07l5.59,10.65Z" style="fill:#0c152e"/><path d="M191.33,213.8h0s0,0,0-.06l-2.46-3.14,0,0h0l0,0L187.74,212s0,.05,0,.06a0,0,0,0,0,.05,0l1.07-1.38,2.44,3.11S191.32,213.8,191.33,213.8Z" style="fill:#0c152e"/><rect x="277.7" y="158.98" width="7.31" height="3.96" style="fill:#fff"/><path d="M246.18,216.79a5.47,5.47,0,1,0,5.47-5.47,5.47,5.47,0,0,0-5.47,5.47" style="fill:#2bd57b"/><path d="M237.21,214a6.92,6.92,0,1,0,6.92-6.92,6.91,6.91,0,0,0-6.92,6.92" style="fill:#2bd57b"/><path d="M229.62,218.63a6.92,6.92,0,0,0,13.83,0,7,7,0,0,0-1.66-4.49,6.92,6.92,0,0,0-12,3.13,6.82,6.82,0,0,0-.13,1.36" style="fill:#2bd57b"/><rect x="277.7" y="165.98" width="7.31" height="3.96" style="fill:#fff"/><rect x="277.7" y="172.99" width="7.31" height="3.96" style="fill:#fff"/><rect x="277.7" y="180" width="7.31" height="3.96" style="fill:#fff"/><path d="M185.68,160.2v-7.95a2.76,2.76,0,0,1,3-2.41H190a2.76,2.76,0,0,1,3,2.41v8a.64.64,0,0,1-.69.55h-5.92a.64.64,0,0,1-.7-.55" style="fill:#fff"/><g id="tree"><path d="M224.58,147.37a21.31,21.31,0,1,1-21.3-21.31,21.3,21.3,0,0,1,21.3,21.31" style="fill:#2bd57b"/><rect x="203.15" y="137.58" width="0.83" height="79.29" style="fill:#0c152e"/><rect x="201.66" y="150.03" width="12.2" height="0.83" transform="translate(-45.53 190.98) rotate(-45)" style="fill:#0c152e"/></g><path d="M126.11,217.17a5.67,5.67,0,0,0-5.65-5.18H113a5.69,5.69,0,0,0-5.66,5.18Z" style="fill:#fff"/><path d="M126.27,217.17H107.2l0-.27a5.71,5.71,0,0,1,5.69-5.21h7.64a5.71,5.71,0,0,1,5.69,5.21Zm-18.89-.3H126a5.49,5.49,0,0,0-5.49-4.88H113a5.5,5.5,0,0,0-5.49,4.88" style="fill:#0c152e"/><g id="Koeltoren"><g id="smoke"><circle cx="378.18" cy="69.07" r="13.08" style="fill:#dfe6f2"/><g style="clip-path:url(#clip-path-4)"><circle cx="368.68" cy="84.49" r="18.78" style="fill:#dfe6f2"/></g><circle cx="363.97" cy="56.86" r="6.88" style="fill:#dfe6f2"/></g><g id="Koeltoren-2" data-name="Koeltoren"><polygon points="400.27 99.41 342.8 105.79 341.75 87.69 400.27 87.69 400.27 99.41" style="fill:#dde4f0"/><path d="M422.17,216s-14.64-43.77-17.59-53.27c-6.52-21-4.77-48.55-4.47-61.91.15-6.79.32-13.11.32-13.11H341.75c1.8,35.59,4.13,43-2.84,71.62-3,12.3-16.33,56.67-16.33,56.67Z" style="fill:none;stroke:#0c152e;stroke-miterlimit:10;stroke-width:0.25px"/><rect x="338.91" y="82.51" width="63.25" height="5.04" rx="1.57" style="fill:none;stroke:#0c152e;stroke-miterlimit:10;stroke-width:0.25px"/></g><rect x="361.91" y="192.95" width="6.86" height="13.58" rx="3.43" style="fill:none;stroke:#0c152e;stroke-miterlimit:10;stroke-width:0.25px"/><rect x="371.91" y="192.95" width="6.86" height="13.58" rx="3.43" style="fill:none;stroke:#0c152e;stroke-miterlimit:10;stroke-width:0.25px"/><rect x="381.91" y="192.95" width="6.86" height="13.58" rx="3.43" style="fill:none;stroke:#0c152e;stroke-miterlimit:10;stroke-width:0.25px"/><rect x="391.91" y="192.95" width="6.86" height="13.58" rx="3.43" style="fill:none;stroke:#0c152e;stroke-miterlimit:10;stroke-width:0.25px"/></g><g id="Kotteke"><rect x="253.67" y="164.05" width="90.04" height="52.48" style="fill:#fff;stroke:#0c152e;stroke-miterlimit:10;stroke-width:0.25px"/><path d="M334.11,190.94H304.7v-4.27h29.41Zm-29.1-.32H333.8V187L305,187Z" style="fill:#0c152e"/><path d="M334.11,198.94H304.7v-4.27h29.41Zm-29.1-.32H333.8V195L305,195Z" style="fill:#0c152e"/><rect x="246.49" y="159.61" width="102.42" height="4.33" style="fill:#f6f8fa;stroke:#0c152e;stroke-miterlimit:10;stroke-width:0.25px"/><rect x="253.8" y="164.05" width="89.8" height="4.03" style="fill:#dde4f0"/></g><path d="M344.18,216.79a5.47,5.47,0,1,0,5.47-5.47,5.47,5.47,0,0,0-5.47,5.47" style="fill:#2bd57b"/><path d="M335.21,214a6.92,6.92,0,1,0,6.92-6.92,6.91,6.91,0,0,0-6.92,6.92" style="fill:#2bd57b"/><path d="M327.62,218.63a6.92,6.92,0,0,0,13.83,0,7,7,0,0,0-1.66-4.49,6.92,6.92,0,0,0-12,3.13,6.82,6.82,0,0,0-.13,1.36" style="fill:#2bd57b"/><g id="tree-2" data-name="tree"><path d="M223.82,142.06c-13.19,2.54-21.77,1.4-34.71-10.61l1.51-1.22c18.47,0,15.19,11,32.75,10" style="fill:#0c152e"/><path d="M248.85,107.79a33.44,33.44,0,1,1-33.44-33.44,33.44,33.44,0,0,1,33.44,33.44" style="fill:#2bd57b"/><rect x="215.21" y="92.42" width="0.87" height="124.45" style="fill:#0c152e"/><rect x="208.63" y="93.71" width="1.31" height="19.14" transform="translate(-11.73 178.25) rotate(-45)" style="fill:#0c152e"/><polygon points="215.94 128.93 215.09 127.94 221.09 122.05 221.94 123.04 215.94 128.93" style="fill:#0c152e"/></g><path d="M233,218.09a.73.73,0,0,0,.06-1.06,2.29,2.29,0,0,0-1.59-.85,2.22,2.22,0,0,0,.47,1.74A.76.76,0,0,0,233,218.09Z" style="fill:#2bd67b"/><path d="M226.7,203.37a2.33,2.33,0,0,0-1.13,3.2,7.28,7.28,0,0,0,4.1,4,7.18,7.18,0,0,0,.09-5.71A2.4,2.4,0,0,0,226.7,203.37Z" style="fill:#2bd67b"/><path d="M226.79,220.52h0a0,0,0,0,1,0-.06l3.29-8.6-2.12-6.47s0,0,0,0a0,0,0,0,1,.06,0l2.13,6.48v0l-3.3,8.62S226.81,220.52,226.79,220.52Z" style="fill:#0c152e"/><path d="M236.43,206.29a2.58,2.58,0,0,0-3.68.75,8,8,0,0,0-1.43,6.16,7.92,7.92,0,0,0,5.47-3.17A2.67,2.67,0,0,0,236.43,206.29Z" style="fill:#2bd67b"/><path d="M226.79,220.52h0a0,0,0,0,1,0-.06l7.72-11.87h0s.86-1.3-.09,0l-7.55,11.94A.05.05,0,0,1,226.79,220.52Z" style="fill:#0c152e"/><path d="M228,218.8h0a0,0,0,0,1,0-.06l2.91-3.14,0,0h0l0,0,1.3,1.41s0,.05,0,.06a0,0,0,0,1-.06,0l-1.27-1.38L228,218.79Z" style="fill:#0c152e"/><path d="M209.24,213.52a10.27,10.27,0,0,1-.18,1.93,8.84,8.84,0,0,1-.32,1.35,11,11,0,0,1-20.9,0,9.71,9.71,0,0,1-.33-1.34h0a10.49,10.49,0,0,1-.18-1.87,11,11,0,0,1,20.54-5.36,10.78,10.78,0,0,1,1.37,5.3" style="fill:#2bd57b"/><path d="M214.67,213.52a5.47,5.47,0,1,1-5.47-5.47,5.47,5.47,0,0,1,5.47,5.47" style="fill:#2bd57b"/><path d="M226,213.52a6.92,6.92,0,1,1-6.92-6.92,6.91,6.91,0,0,1,6.92,6.92" style="fill:#2bd57b"/><path d="M238.1,216.8a6.92,6.92,0,0,1-13.84,0,6.72,6.72,0,0,1,.14-1.35,6.8,6.8,0,0,1,1.52-3.13,6.91,6.91,0,0,1,12,3.13,6.72,6.72,0,0,1,.14,1.35" style="fill:#2bd57b"/><path d="M221.61,158s-7.05-12.48.89-24c1-1.44,5.5-6.59,8.37-7.26,9-2.11-10.11,15.78-7,26.8" style="fill:#0c152e"/><path d="M264.11,145.33a21.75,21.75,0,1,1-21.74-21.74,21.74,21.74,0,0,1,21.74,21.74" style="fill:#2bd57b"/><rect x="242.24" y="135.34" width="0.56" height="80.92" style="fill:#0c152e"/><rect x="237.96" y="136.18" width="0.85" height="12.45" transform="translate(-30.87 210.28) rotate(-45)" style="fill:#0c152e"/><polygon points="242.72 159.08 242.16 158.44 246.06 154.61 246.62 155.25 242.72 159.08" style="fill:#0c152e"/><g id="tree-3" data-name="tree"><path d="M96.83,188.15a8.93,8.93,0,1,1-8.93-8.94,8.93,8.93,0,0,1,8.93,8.94" style="fill:#2bd57b"/><rect x="87.85" y="184.04" width="0.35" height="33.24" style="fill:#0c152e"/><rect x="87.22" y="189.26" width="5.11" height="0.35" transform="translate(-107.66 118.98) rotate(-45)" style="fill:#0c152e"/></g><path d="M90.4,215.88a4.43,4.43,0,0,1-.07.81,4,4,0,0,1-.14.57,4.43,4.43,0,0,1-.36.84,4.59,4.59,0,0,1-8.4-.84,4,4,0,0,1-.14-.57h0a4.11,4.11,0,0,1-.07-.78,4.59,4.59,0,0,1,8.61-2.25,4.5,4.5,0,0,1,.57,2.22" style="fill:#2bd57b"/><path d="M92.68,215.88a2.29,2.29,0,1,1-2.29-2.3,2.3,2.3,0,0,1,2.29,2.3" style="fill:#2bd57b"/><path d="M97.44,215.88a2.9,2.9,0,1,1-2.9-2.9,2.9,2.9,0,0,1,2.9,2.9" style="fill:#2bd57b"/><path d="M102.5,217.26a2.9,2.9,0,0,1-5.75.5,2.73,2.73,0,0,1,0-.5,2.62,2.62,0,0,1,.06-.57,2.9,2.9,0,0,1,5.68,0,2.62,2.62,0,0,1,.06.57" style="fill:#2bd57b"/></g></g><line x1="15" y1="217.15" x2="447" y2="215.73" style="fill:#0c152e;stroke:#0c152e;stroke-miterlimit:10;stroke-width:0.25px"/></svg>