<svg id="Layer_1" data-name="Layer 1" xmlns="http://www.w3.org/2000/svg" xmlns:xlink="http://www.w3.org/1999/xlink" viewBox="0 0 475 256"><defs><clipPath id="clip-path"><rect x="79" y="11.5" width="445.33" height="250.5" style="fill:none"/></clipPath><clipPath id="clip-path-3"><rect x="44" y="-54" width="585" height="329.06" style="fill:none"/></clipPath><clipPath id="clip-path-6"><rect x="47.25" y="156.58" width="25.34" height="46.12" style="fill:none"/></clipPath></defs><rect x="328.27" y="123.06" width="3.97" height="10.36" transform="translate(408.54 -217.29) rotate(81.54)" style="fill:#dfe6f2;stroke:#0c152e;stroke-miterlimit:10;stroke-width:0.15px"/><path d="M325.37,131l-.59-4,10.36-1.54.59,4Zm-.46-3.94.57,3.82,10.12-1.5-.56-3.83Z" style="fill:#0c152e;stroke:#0c152e;stroke-miterlimit:10;stroke-width:0.15px"/><rect x="327.16" y="128.94" width="7.93" height="10.36" transform="matrix(0.15, 0.99, -0.99, 0.15, 415.1, -213.13)" style="fill:#fff;stroke:#0c152e;stroke-miterlimit:10;stroke-width:0.15px"/><path d="M326.54,138.86l-1.18-7.94,10.36-1.54,1.18,7.94ZM325.49,131l1.15,7.75,10.13-1.5-1.15-7.76Z" style="fill:#0c152e;stroke:#0c152e;stroke-miterlimit:10;stroke-width:0.15px"/><g style="clip-path:url(#clip-path)"><path d="M95,209.07a5.89,5.89,0,0,0,3.13-1,2.66,2.66,0,0,0,1-1.07c1.85-4.28.81-8.09,7.3-8.09h18.12v17.62c-6.1,0-37.62,0-37.62,0,.33-4.69,1.17-7.21,8-7.45" style="fill:#2bd57b"/></g><rect x="225.13" y="174.79" width="32.94" height="41.75" style="fill:#fff"/><polygon points="152.29 216.54 124 216.54 124 122.36 124.02 122.33 138.44 103.23 138.63 103.36 124.23 122.43 124.23 216.31 152.29 216.31 152.29 216.54" style="fill:#0c152e"/><polygon points="137.91 103.38 168.62 103.61 225.17 103.61 244.28 103.61 257.73 122.4 151.52 122.4 137.91 103.38" style="fill:#dee5f1"/><path d="M258.19,122.63H151.47l0,0-13.75-19.2H244.4l0,0Zm-106.4-.23H257.51l-13.45-18.79H168.75l-30.35.08Z" style="fill:#0c152e"/><line x1="182.17" y1="122.46" x2="168.62" y2="103.36" style="fill:#dee5f1"/><line x1="225.13" y1="103.38" x2="184.77" y2="103.28" style="fill:#f6f8fa"/><path d="M225.12,103.38l-.1.23H184.53m.27-.23,40.09.1" style="fill:#0c152e"/><path d="M258.06,216.77H151.13V122.4H258.06Zm-106.69-.23H257.83V122.63H151.37Z" style="fill:#0c152e"/><g style="clip-path:url(#clip-path)"><path d="M168.53,103.61m.23-.23" style="fill:#0c152e"/><rect x="233.24" y="198.68" width="16.7" height="17.86" style="fill:#f6f8fa"/><path d="M250.17,216.54H233.24V198.45h16.93Zm-16.69,0h16.46V198.68H233.48Z" style="fill:#0c152e"/><rect x="248.09" y="198.68" width="2.09" height="17.86" style="fill:#dfe6f2"/><path d="M250.17,216.54h-2.31V198.45h2.31Zm-2.08,0h1.85V198.68h-1.85Z" style="fill:#0c152e"/><rect x="158.79" y="198.68" width="16.7" height="17.86" style="fill:#f6f8fa"/><path d="M175.49,216.54H158.56V198.45h16.93Zm-16.7,0h16.47V198.68H158.79Z" style="fill:#0c152e"/><rect x="173.4" y="198.68" width="2.09" height="17.86" style="fill:#dfe6f2"/><path d="M175.72,216.54H173.4V198.45h2.32Zm-2.09,0h1.86V198.68h-1.86Z" style="fill:#0c152e"/></g><g style="clip-path:url(#clip-path-3)"><polyline points="219.55 216.33 223.79 81.59 233.86 81.59 238.04 217.29" style="fill:#f6f8fa"/><polygon points="225.81 216.36 219.53 216.43 223.78 81.59 226.81 81.59 225.81 216.36" style="fill:#dfe6f2"/><rect x="223.77" y="74.58" width="3.05" height="5.48" style="fill:#dfe6f2"/><path d="M234.12,80.37H223.77V74.58h10.35Zm-10.05-.31h9.75V74.88h-9.75Z" style="fill:#0c152e"/><g style="clip-path:url(#clip-path-3)"><polygon points="219.7 216.49 219.4 216.48 223.65 81.59 234.01 81.59 234.01 81.73 238.63 217.15 238.33 217.16 233.71 81.89 223.94 81.89 219.7 216.49" style="fill:#0c152e"/><rect x="163.13" y="180.3" width="0.91" height="35.65" style="fill:#dde4f0"/><rect x="141.5" y="185.79" width="4.27" height="5.48" style="fill:#dde4f0"/><path d="M143.78,186.09l-3.7,0h0c0-1,1.66-1.74,3.7-1.74s3.7.78,3.7,1.72Z" style="fill:#dde4f0"/><rect x="139.98" y="191.27" width="7.31" height="0.61" style="fill:#dde4f0"/><rect x="153.38" y="185.79" width="4.27" height="5.48" style="fill:#dde4f0"/><path d="M155.41,186.09l-3.7,0h0c0-1,1.65-1.74,3.7-1.74s3.7.78,3.7,1.72Z" style="fill:#dde4f0"/><rect x="151.86" y="191.27" width="7.31" height="0.61" style="fill:#dde4f0"/><rect x="141.5" y="195.84" width="4.27" height="5.48" style="fill:#dde4f0"/><path d="M143.78,196.45l-3.7,0h0c0-.95,1.66-1.75,3.7-1.75s3.7.78,3.7,1.73Z" style="fill:#dde4f0"/><rect x="139.98" y="201.33" width="7.31" height="0.61" style="fill:#dde4f0"/><rect x="153.38" y="195.84" width="4.27" height="5.48" style="fill:#dde4f0"/><path d="M155.41,196.45l-3.7,0h0c0-.95,1.65-1.75,3.7-1.75s3.7.78,3.7,1.73Z" style="fill:#dde4f0"/><rect x="151.86" y="201.33" width="7.31" height="0.61" style="fill:#dde4f0"/><rect x="140" y="179.64" width="42" height="36.62" style="fill:#dde4f0"/><rect x="244" y="175.13" width="77.83" height="41.44" style="fill:#dde4f0"/><rect x="316.09" y="180.61" width="4.27" height="6.4" style="fill:#dde4f0"/><path d="M318.08,181.22l-3.76,0h0c0-1.1,1.68-2,3.76-2s3.75.9,3.75,2Z" style="fill:#dde4f0"/><rect x="314.26" y="187.01" width="7.62" height="0.61" style="fill:#dde4f0"/><rect x="316.09" y="193.1" width="4.27" height="6.4" style="fill:#dde4f0"/><path d="M318.08,193.71l-3.76,0h0c0-1.1,1.68-2,3.76-2s3.75.9,3.75,2Z" style="fill:#dde4f0"/><rect x="314.26" y="199.5" width="7.62" height="0.61" style="fill:#dde4f0"/><rect x="172.13" y="159.59" width="45.7" height="56.98" style="fill:#dde4f0"/><rect x="212.19" y="162.63" width="3.66" height="2.44" style="fill:#dde4f0"/><rect x="212.19" y="166.9" width="3.66" height="2.44" style="fill:#dde4f0"/><rect x="212.19" y="171.16" width="3.66" height="2.44" style="fill:#dde4f0"/><rect x="212.19" y="175.73" width="3.66" height="2.44" style="fill:#dde4f0"/><rect x="206.7" y="162.63" width="3.66" height="2.44" style="fill:#dde4f0"/><rect x="206.7" y="166.9" width="3.66" height="2.44" style="fill:#dde4f0"/><rect x="206.7" y="171.16" width="3.66" height="2.44" style="fill:#dde4f0"/><rect x="206.7" y="175.73" width="3.66" height="2.44" style="fill:#dde4f0"/><rect x="172" y="157.79" width="47.41" height="2.1" style="fill:#dde4f0"/><polyline points="311.21 197.4 311.21 175.46 311.21 161.14 281.1 161.14 281.1 175.46 263.69 175.46 263.69 170.59 244.59 170.59 244.59 175.46 244.59 208.98" style="fill:#dde4f0"/><rect x="248.75" y="186.09" width="18.89" height="3.05" style="fill:#dde4f0"/><rect x="246.92" y="189.14" width="18.89" height="3.05" style="fill:#dde4f0"/><rect x="245.09" y="191.88" width="18.89" height="3.05" style="fill:#dde4f0"/><rect x="242.66" y="194.63" width="18.89" height="3.05" style="fill:#dde4f0"/><line x1="310.91" y1="197.67" x2="310.79" y2="186.09" style="fill:#dde4f0"/><polyline points="317 186.09 267.76 186.07 257.66 197.67 260.47 197.67 310.91 197.67" style="fill:#dde4f0"/><rect x="293.54" y="168.42" width="3.66" height="9.45" style="fill:#dde4f0"/><rect x="301.16" y="168.42" width="3.66" height="9.45" style="fill:#dde4f0"/><rect x="244.79" y="169.64" width="5.48" height="0.91" style="fill:#dde4f0"/><rect x="244.79" y="183.66" width="5.48" height="2.74" style="fill:#dde4f0"/><rect x="245.4" y="170.25" width="4.27" height="13.41" style="fill:#dde4f0"/><rect x="256.67" y="169.64" width="5.48" height="0.91" style="fill:#dde4f0"/><rect x="256.67" y="183.66" width="5.48" height="2.74" style="fill:#dde4f0"/><rect x="257.28" y="170.25" width="4.27" height="13.41" style="fill:#dde4f0"/><rect x="268.55" y="169.64" width="5.48" height="0.91" style="fill:#dde4f0"/><rect x="268.55" y="183.66" width="5.48" height="2.74" style="fill:#dde4f0"/><rect x="269.16" y="170.25" width="4.27" height="13.41" style="fill:#dde4f0"/><rect x="280.44" y="169.64" width="5.48" height="0.91" style="fill:#dde4f0"/><rect x="280.44" y="183.66" width="5.48" height="2.74" style="fill:#dde4f0"/><rect x="281.05" y="170.25" width="4.27" height="13.41" style="fill:#dde4f0"/><polygon points="288.36 179.64 244.05 179.64 244.05 146.46 288.36 124.46 288.36 179.64" style="fill:#dde4f0"/><path d="M313.3,178.61c0,2.37-2.38,4.29-5.32,4.29s-5.32-1.92-5.32-4.29,2.38-4.29,5.32-4.29,5.32,1.92,5.32,4.29" style="fill:#dde4f0"/><rect x="171.96" y="159.13" width="28.95" height="54.84" style="fill:#dde4f0"/><rect x="182.02" y="159.13" width="28.95" height="54.84" style="fill:#dde4f0"/><path d="M181.11,170.86V165a1.76,1.76,0,0,1,1.75-1.74h.76a1.76,1.76,0,0,1,1.76,1.74v5.78a.41.41,0,0,1-.41.4h-3.45a.4.4,0,0,1-.41-.4" style="fill:#dde4f0"/><path d="M187.2,170.86V165a1.76,1.76,0,0,1,1.76-1.74h.76a1.76,1.76,0,0,1,1.75,1.74v5.78a.4.4,0,0,1-.41.4h-3.45a.4.4,0,0,1-.41-.4" style="fill:#dde4f0"/><path d="M193.6,170.86V165a1.76,1.76,0,0,1,1.75-1.74h.76a1.76,1.76,0,0,1,1.76,1.74v5.78a.4.4,0,0,1-.41.4H194a.4.4,0,0,1-.41-.4" style="fill:#dde4f0"/></g><g style="clip-path:url(#clip-path-3)"><rect x="253.63" y="153.8" width="49.36" height="62.46" style="fill:#fff"/><path d="M303,216.56H253.32V153.8H303Zm-49.36-.3h49.06V154.1H253.62Z" style="fill:#0c152e"/><rect x="289.27" y="158.98" width="7.31" height="3.96" style="fill:#fff"/><path d="M296.89,162.94h-7.62v-4.27h7.62Zm-7.31-.31h7V159h-7Z" style="fill:#0c152e"/><rect x="289.27" y="165.98" width="7.31" height="3.96" style="fill:#fff"/><path d="M296.89,170h-7.62v-4.27h7.62Zm-7.31-.31h7V166h-7Z" style="fill:#0c152e"/><rect x="289.27" y="172.99" width="7.31" height="3.96" style="fill:#fff"/><path d="M296.89,177.26h-7.62V173h7.62Zm-7.31-.31h7V173.3h-7Z" style="fill:#0c152e"/><rect x="289.27" y="180" width="7.31" height="3.96" style="fill:#fff"/><path d="M296.89,184.27h-7.62V180h7.62Zm-7.31-.31h7V180.3h-7Z" style="fill:#0c152e"/><rect x="277.7" y="158.98" width="7.31" height="3.96" style="fill:#fff"/><path d="M285.31,162.94H277.7v-4.27h7.61Zm-7.31-.31h7V159h-7Z" style="fill:#0c152e"/><rect x="277.7" y="165.98" width="7.31" height="3.96" style="fill:#fff"/><path d="M285.31,170H277.7v-4.27h7.61Zm-7.31-.31h7V166h-7Z" style="fill:#0c152e"/><rect x="277.7" y="172.99" width="7.31" height="3.96" style="fill:#fff"/><path d="M285.31,177.26H277.7V173h7.61ZM278,177h7V173.3h-7Z" style="fill:#0c152e"/><rect x="277.7" y="180" width="7.31" height="3.96" style="fill:#fff"/><path d="M285.31,184.27H277.7V180h7.61ZM278,184h7V180.3h-7Z" style="fill:#0c152e"/><rect x="253.63" y="154.1" width="2.74" height="62.46" style="fill:#dee5f1"/><rect x="250.27" y="151.05" width="55.76" height="3.35" style="fill:#fff"/><path d="M306.34,154.71H250.27v-3.66h56.07Zm-55.76-.3H306v-3H250.58Z" style="fill:#0c152e"/><rect x="250.27" y="151.05" width="14.02" height="3.35" style="fill:#dee5f1"/><path d="M306.34,154.71H250.27v-3.66h56.07Zm-55.76-.3H306v-3H250.58Z" style="fill:#0c152e"/><rect x="137.54" y="140.09" width="49.05" height="76.78" style="fill:#dfe6f2"/><path d="M186.59,217.17H137.23V140.09h49.36Zm-49.05-.3h48.75V140.39H137.54Z" style="fill:#101c3d"/><rect x="154.3" y="140.09" width="49.05" height="76.78" style="fill:#fff"/><path d="M203.35,217.17H154V140.09h49.36Zm-49-.3h48.75V140.39H154.3Z" style="fill:#101c3d"/><rect x="146.68" y="187.01" width="3.96" height="0.3" style="fill:#101c3d"/><rect x="147.9" y="187.01" width="0.3" height="1.83" style="fill:#101c3d"/><rect x="151.86" y="188.84" width="0.3" height="1.83" style="fill:#101c3d"/><rect x="146.07" y="188.84" width="7.31" height="0.3" style="fill:#101c3d"/><rect x="148.81" y="190.36" width="4.87" height="0.3" style="fill:#101c3d"/><path d="M164.35,160.2v-7.95a2.76,2.76,0,0,1,3-2.41h1.3a2.76,2.76,0,0,1,3,2.41v8a.64.64,0,0,1-.69.55h-5.92a.64.64,0,0,1-.7-.55" style="fill:#fff"/><path d="M171.05,160.8H165.2a.78.78,0,0,1-.85-.71v-8a2.91,2.91,0,0,1,3.16-2.57h1.3A2.91,2.91,0,0,1,172,152.1v8a.78.78,0,0,1-.85.71m-3.61-11a2.61,2.61,0,0,0-2.85,2.26v8c0,.23.24.41.54.41h5.92c.3,0,.54-.18.54-.41v-8a2.61,2.61,0,0,0-2.85-2.26Z" style="fill:#0c152e"/><path d="M175,160.2v-7.95a2.76,2.76,0,0,1,3-2.41h1.3a2.76,2.76,0,0,1,3,2.41v8a.64.64,0,0,1-.7.55h-5.92a.64.64,0,0,1-.69-.55" style="fill:#fff"/><path d="M181.72,160.8h-5.85a.78.78,0,0,1-.85-.71v-8a2.9,2.9,0,0,1,3.15-2.57h1.3a2.91,2.91,0,0,1,3.16,2.57v8a.78.78,0,0,1-.85.71m-3.61-11a2.61,2.61,0,0,0-2.85,2.26v8c0,.23.24.41.54.41h5.93c.29,0,.54-.18.54-.41v-8a2.61,2.61,0,0,0-2.85-2.26Z" style="fill:#0c152e"/><path d="M185.68,160.2v-7.95a2.76,2.76,0,0,1,3-2.41H190a2.76,2.76,0,0,1,3,2.41v8a.64.64,0,0,1-.69.55h-5.92a.64.64,0,0,1-.7-.55" style="fill:#fff"/><path d="M192.38,160.8h-5.85a.78.78,0,0,1-.85-.71v-8a2.91,2.91,0,0,1,3.16-2.57h1.3a2.91,2.91,0,0,1,3.16,2.57v8a.78.78,0,0,1-.85.71m-3.61-11A2.61,2.61,0,0,0,186,152.1v8c0,.23.25.41.55.41h5.92c.3,0,.54-.18.54-.41v-8a2.61,2.61,0,0,0-2.85-2.26Z" style="fill:#0c152e"/><path d="M164.35,178.78v-7.95a2.77,2.77,0,0,1,3-2.41h1.3a2.77,2.77,0,0,1,3,2.41v8a.64.64,0,0,1-.69.56h-5.92a.64.64,0,0,1-.7-.56" style="fill:#fff"/><path d="M171.05,179.7H165.2a.79.79,0,0,1-.85-.72v-8a2.91,2.91,0,0,1,3.16-2.57h1.3A2.91,2.91,0,0,1,172,171v8a.79.79,0,0,1-.85.72m-3.61-11a2.61,2.61,0,0,0-2.85,2.26v8c0,.23.24.41.54.41h5.92c.3,0,.54-.18.54-.41v-8a2.61,2.61,0,0,0-2.85-2.26Z" style="fill:#0c152e"/><path d="M175,178.78v-7.95a2.77,2.77,0,0,1,3-2.41h1.3a2.77,2.77,0,0,1,3,2.41v8a.64.64,0,0,1-.7.56h-5.92a.64.64,0,0,1-.69-.56" style="fill:#fff"/><path d="M181.72,179.7h-5.85A.79.79,0,0,1,175,179v-8a2.9,2.9,0,0,1,3.15-2.57h1.3a2.91,2.91,0,0,1,3.16,2.57v8a.79.79,0,0,1-.85.72m-3.61-11a2.61,2.61,0,0,0-2.85,2.26v8c0,.23.24.41.54.41h5.93c.29,0,.54-.18.54-.41v-8a2.61,2.61,0,0,0-2.85-2.26Z" style="fill:#0c152e"/><path d="M185.68,178.78v-7.95a2.77,2.77,0,0,1,3-2.41H190a2.77,2.77,0,0,1,3,2.41v8a.64.64,0,0,1-.69.56h-5.92a.64.64,0,0,1-.7-.56" style="fill:#fff"/><path d="M192.38,179.7h-5.85a.79.79,0,0,1-.85-.72v-8a2.91,2.91,0,0,1,3.16-2.57h1.3A2.91,2.91,0,0,1,193.3,171v8a.79.79,0,0,1-.85.72m-3.61-11A2.61,2.61,0,0,0,186,171v8c0,.23.25.41.55.41h5.92c.3,0,.54-.18.54-.41v-8a2.61,2.61,0,0,0-2.85-2.26Z" style="fill:#0c152e"/><rect x="140.28" y="166.9" width="3.96" height="0.3" style="fill:#101c3d"/><rect x="141.5" y="167.2" width="0.3" height="1.83" style="fill:#101c3d"/><rect x="145.46" y="169.03" width="0.3" height="1.83" style="fill:#101c3d"/><rect x="139.98" y="168.73" width="7.31" height="0.3" style="fill:#101c3d"/><rect x="142.41" y="170.55" width="4.88" height="0.3" style="fill:#101c3d"/><path d="M224.58,191.5a7.78,7.78,0,1,1-7.77-7.78,7.77,7.77,0,0,1,7.77,7.78" style="fill:#2bd57b"/><rect x="216.76" y="187.92" width="0.3" height="28.95" style="fill:#0c152e"/><rect x="216.07" y="192.47" width="4.45" height="0.3" transform="translate(-72.26 210.79) rotate(-45)" style="fill:#0c152e"/><path d="M209.24,213.52a10.27,10.27,0,0,1-.18,1.93,8.84,8.84,0,0,1-.32,1.35,11,11,0,0,1-20.9,0,9.71,9.71,0,0,1-.33-1.34h0a10.49,10.49,0,0,1-.18-1.87,11,11,0,0,1,20.54-5.36,10.78,10.78,0,0,1,1.37,5.3" style="fill:#2bd57b"/><path d="M214.67,213.52a5.47,5.47,0,1,1-5.47-5.47,5.47,5.47,0,0,1,5.47,5.47" style="fill:#2bd57b"/><path d="M226,213.52a6.92,6.92,0,1,1-6.92-6.92,6.91,6.91,0,0,1,6.92,6.92" style="fill:#2bd57b"/><path d="M238.1,216.8a6.92,6.92,0,0,1-13.84,0,6.72,6.72,0,0,1,.14-1.35,6.8,6.8,0,0,1,1.52-3.13,6.91,6.91,0,0,1,12,3.13,6.72,6.72,0,0,1,.14,1.35" style="fill:#2bd57b"/><path d="M304.18,216.79a5.47,5.47,0,1,0,5.47-5.47,5.47,5.47,0,0,0-5.47,5.47" style="fill:#2bd57b"/><path d="M295.21,214a6.92,6.92,0,1,0,6.92-6.92,6.91,6.91,0,0,0-6.92,6.92" style="fill:#2bd57b"/><path d="M287.62,218.63a6.92,6.92,0,0,0,13.83,0,7,7,0,0,0-1.66-4.49,6.92,6.92,0,0,0-12,3.13,6.82,6.82,0,0,0-.13,1.36" style="fill:#2bd57b"/><path d="M126.11,217.17a5.67,5.67,0,0,0-5.65-5.18H113a5.69,5.69,0,0,0-5.66,5.18Z" style="fill:#fff"/><path d="M126.27,217.17H107.2l0-.27a5.71,5.71,0,0,1,5.69-5.21h7.64a5.71,5.71,0,0,1,5.69,5.21Zm-18.89-.3H126a5.49,5.49,0,0,0-5.49-4.88H113a5.5,5.5,0,0,0-5.49,4.88" style="fill:#0c152e"/><rect x="101.89" y="216.56" width="253.5" height="10.36" style="fill:#fff"/><path d="M355.7,227.23H101.89V216.56H355.7Zm-253.5-.31H355.39v-10H102.2Z" style="fill:#fff"/></g><circle cx="241.99" cy="56.37" r="6.37" style="fill:#dfe6f2"/><circle cx="250.14" cy="48.22" r="9.14" style="fill:#dfe6f2"/></g><line x1="15" y1="217.15" x2="447" y2="215.73" style="fill:#0c152e;stroke:#0c152e;stroke-miterlimit:10;stroke-width:0.25px"/><g id="Truck"><rect x="44.68" y="153.58" width="30.96" height="52.51" style="fill:#fff"/><rect x="44.68" y="153.58" width="30.96" height="52.51" style="fill:none;stroke:#0c152e;stroke-miterlimit:10;stroke-width:0.25px"/><rect x="75.44" y="153.78" width="71.32" height="52.51" style="fill:#4070f4"/><rect x="75.64" y="153.58" width="71.32" height="52.51" style="fill:none;stroke:#0c152e;stroke-miterlimit:10;stroke-width:0.25px"/><polygon points="146.85 166.51 158.27 166.71 169.44 188.13 173.8 189.78 173.8 206.29 146.76 206.29 146.85 166.51" style="fill:#fff"/><polygon points="146.96 166.51 158.61 166.51 169.63 187.93 174 189.58 174 206.09 146.96 206.09 146.96 166.51" style="fill:none;stroke:#0c152e;stroke-miterlimit:10;stroke-width:0.25px"/><path d="M101.54,206.44a9.19,9.19,0,1,1-9.18-9.19,9.19,9.19,0,0,1,9.18,9.19" style="fill:#fff"/><path d="M101.54,206.44a9.19,9.19,0,1,1-9.18-9.19A9.19,9.19,0,0,1,101.54,206.44Z" style="fill:none;stroke:#0c152e;stroke-miterlimit:10;stroke-width:0.25px"/><path d="M96.49,206.39a4.14,4.14,0,1,1-4.13-4.13,4.13,4.13,0,0,1,4.13,4.13" style="fill:#dde4f0"/><path d="M96.49,206.39a4.14,4.14,0,1,1-4.13-4.13A4.13,4.13,0,0,1,96.49,206.39Z" style="fill:none;stroke:#0c152e;stroke-miterlimit:10;stroke-width:0.25px"/><path d="M169.07,206.44a9.19,9.19,0,1,1-9.19-9.19,9.19,9.19,0,0,1,9.19,9.19" style="fill:#fff"/><path d="M169.07,206.44a9.19,9.19,0,1,1-9.19-9.19A9.19,9.19,0,0,1,169.07,206.44Z" style="fill:none;stroke:#0c152e;stroke-miterlimit:10;stroke-width:0.25px"/><path d="M164,206.39a4.14,4.14,0,1,1-4.14-4.13,4.14,4.14,0,0,1,4.14,4.13" style="fill:#dde4f0"/><path d="M164,206.39a4.14,4.14,0,1,1-4.14-4.13A4.14,4.14,0,0,1,164,206.39Z" style="fill:none;stroke:#0c152e;stroke-miterlimit:10;stroke-width:0.25px"/><polyline points="160.87 170.82 152.06 170.82 160.32 188.07 169.1 188.07" style="fill:none;stroke:#0c152e;stroke-miterlimit:10;stroke-width:0.25px"/><rect x="171.26" y="191.99" width="2.74" height="7.45" style="fill:none;stroke:#0c152e;stroke-miterlimit:10;stroke-width:0.25px"/><rect x="47.03" y="156.32" width="25.86" height="46.63" style="fill:none;stroke:#0c152e;stroke-miterlimit:10;stroke-width:0.25px"/><g style="clip-path:url(#clip-path-6)"><g id="Boxes"><rect x="64.44" y="192.48" width="4.83" height="10.36" style="fill:#dfe6f2;stroke:#0c152e;stroke-miterlimit:10;stroke-width:0.15px"/><path d="M69.34,202.89h-5V192.42h5Zm-4.84-.12h4.72V192.53H64.5Z" style="fill:#0c152e;stroke:#0c152e;stroke-miterlimit:10;stroke-width:0.15px"/><rect x="69.28" y="192.48" width="9.66" height="10.36" style="fill:#fff;stroke:#0c152e;stroke-miterlimit:10;stroke-width:0.15px"/><path d="M79,202.89H69.22V192.42H79Zm-9.66-.12h9.54V192.53H69.34Z" style="fill:#0c152e;stroke:#0c152e;stroke-miterlimit:10;stroke-width:0.15px"/><rect x="59.17" y="182.12" width="4.83" height="10.36" style="fill:#dfe6f2;stroke:#0c152e;stroke-miterlimit:10;stroke-width:0.15px"/><path d="M64.06,192.53h-5V182.06h5Zm-4.84-.11h4.72V182.18H59.22Z" style="fill:#0c152e;stroke:#0c152e;stroke-miterlimit:10;stroke-width:0.15px"/><rect x="64" y="182.12" width="9.66" height="10.36" style="fill:#fff;stroke:#0c152e;stroke-miterlimit:10;stroke-width:0.15px"/><path d="M73.72,192.53H63.94V182.06h9.78Zm-9.66-.11H73.6V182.18H64.06Z" style="fill:#0c152e;stroke:#0c152e;stroke-miterlimit:10;stroke-width:0.15px"/><rect x="52.36" y="192.48" width="4.83" height="10.36" style="fill:#dfe6f2;stroke:#0c152e;stroke-miterlimit:10;stroke-width:0.15px"/><path d="M57.26,202.89H52.31V192.42h4.95Zm-4.84-.12h4.72V192.53H52.42Z" style="fill:#0c152e;stroke:#0c152e;stroke-miterlimit:10;stroke-width:0.15px"/><rect x="57.2" y="192.48" width="9.66" height="10.36" style="fill:#fff;stroke:#0c152e;stroke-miterlimit:10;stroke-width:0.15px"/><path d="M66.92,202.89H57.14V192.42h9.78Zm-9.66-.12H66.8V192.53H57.26Z" style="fill:#0c152e;stroke:#0c152e;stroke-miterlimit:10;stroke-width:0.15px"/></g></g></g><path d="M367.81,64.94l1.93-.27,1.48-.15-1.84.26A22.34,22.34,0,0,0,350.33,90l.31,2.21-1.57.22-.32-2.27A22.36,22.36,0,0,1,367.81,64.94Z" style="fill:#c5cfe4"/><polygon points="387.16 92.27 387.02 91.76 411.74 88.38 407.09 54.95 407.49 54.85 412.21 88.78 411.81 88.83 387.16 92.27" style="fill:#0c152e"/><polygon points="401.47 56.1 400.62 50.01 401.16 49.91 401.9 55.51 411.47 54.18 410.79 48.58 411.2 48.53 412.05 54.63 401.47 56.1" style="fill:#0c152e"/><rect x="406.1" y="62.27" width="5.67" height="9.32" transform="matrix(-0.99, 0.14, -0.14, -0.99, 823.21, 76.81)" style="fill:#4070f4"/><path d="M401.24,85.2A31.49,31.49,0,0,1,341,93.59Z" style="fill:#2bd67b"/><path d="M346.2,92.87a34.25,34.25,0,0,0,27.28,19.72,31.57,31.57,0,0,1-32.47-19Z" style="fill:#0c152e"/><ellipse cx="372.08" cy="79.67" rx="7.8" ry="7.84" transform="translate(-7.43 52.09) rotate(-7.93)" style="fill:#fff"/><ellipse cx="372.08" cy="79.67" rx="7.8" ry="7.84" transform="translate(-7.43 52.09) rotate(-7.93)" style="fill:#fff"/><path d="M368.3,72.81a7.85,7.85,0,0,0,6.79,13.12,7.65,7.65,0,0,0,2.69-.91,7.82,7.82,0,1,1-9.48-12.21Z" style="fill:#dfe6f2"/><ellipse cx="375.06" cy="79.25" rx="3.01" ry="3.03" transform="translate(-7.35 52.49) rotate(-7.93)" style="fill:#4070f4"/><polygon points="328.06 126.68 324.37 100.2 324.77 100.14 351.42 96.72 351.42 97.07 324.85 100.52 328.53 126.62 328.06 126.68" style="fill:#0c152e"/><polygon points="325.11 131.64 324.36 126.78 335.46 125.2 336.21 130.3 335.93 130.36 335.25 125.69 324.74 127.14 325.4 131.6 325.11 131.64" style="fill:#0c152e"/><ellipse cx="351.35" cy="97.01" rx="1.13" ry="1.14" transform="translate(-10.02 49.39) rotate(-7.93)" style="fill:#3d71ff"/><path d="M351.35,98.55a1.55,1.55,0,0,1-1.52-1.33h0a1.54,1.54,0,0,1,1.31-1.74,1.52,1.52,0,0,1,1.14.3,1.53,1.53,0,0,1,.59,1,1.53,1.53,0,0,1-1.31,1.74Zm-.72-1.44a.74.74,0,0,0,.82.63.72.72,0,0,0,.48-.29.7.7,0,0,0,.14-.54.69.69,0,0,0-.28-.49.71.71,0,0,0-.54-.14.73.73,0,0,0-.62.83Z" style="fill:#0c152e"/><polygon points="401.92 53.17 408.61 52.23 407.6 45.01 404.21 45.48 400.92 45.94 401.92 53.17" style="fill:#fff"/><path d="M401.58,53.62l-1.12-8,7.49-1,1.11,8ZM401,46l1,7.07,6.32-.93-1.07-7Z" style="fill:#0c152e"/><polygon points="408.61 52.23 411.26 51.87 410.25 44.64 408.91 44.83 407.6 45.01 408.61 52.23" style="fill:#dfe6f2"/><path d="M408.27,52.69l-1.12-8,3.45-.48,1.11,8Zm-.53-7.52,1,6.93,2.44-.31-1-7Z" style="fill:#0c152e"/><path d="M372.08,87.91A8.24,8.24,0,0,1,364,80.8h0a8.19,8.19,0,1,1,9.26,7A8.57,8.57,0,0,1,372.08,87.91Zm-7.33-7.22A7.41,7.41,0,0,0,373.1,87a7.44,7.44,0,0,0-2.05-14.74,7.42,7.42,0,0,0-6.3,8.39Z" style="fill:#0c152e"/><path d="M349.4,92.36,397,85.88l-.11-.8c-1.1-7.92-7.67-15.63-13.26-18.21,0,0-8.48-3.45-15.41-2.17-8.31,1.54-12.14,5.73-12.14,5.73-4.89,3.14-7.9,13.21-6.8,21.13Z" style="fill:#dfe6f2"/><path d="M367.68,65.12l1.92-.27q.73-.09,1.47-.15l-1.83.26c-12.12,1.69-19.58,12.71-17.89,24.83l.31,2.19-2.55.38-.32-2.24A22.16,22.16,0,0,1,367.68,65.12Z" style="fill:#c5cfe4"/><ellipse cx="371.7" cy="79.79" rx="6.95" ry="6.98" transform="translate(-7.45 52.03) rotate(-7.93)" style="fill:#fff"/><path d="M368.24,74.19a6.61,6.61,0,0,0,5.71,11,6.69,6.69,0,0,0,2.27-.76,6.59,6.59,0,1,1-8-10.29Z" style="fill:#dfe6f2"/><ellipse cx="373.55" cy="81.09" rx="1.87" ry="1.88" transform="translate(-7.61 52.3) rotate(-7.93)" style="fill:#4070f4"/><path d="M371.46,87.24a7.36,7.36,0,0,1-7.24-6.34h0a7.3,7.3,0,1,1,13.07,3.42,7.22,7.22,0,0,1-4.82,2.85A6.86,6.86,0,0,1,371.46,87.24Zm-6.53-6.44a6.59,6.59,0,1,0,5.61-7.47,6.61,6.61,0,0,0-5.61,7.47Z" style="fill:#0c152e"/><line x1="295.66" y1="90.37" x2="309.85" y2="88.44" style="fill:none;stroke:#000;stroke-miterlimit:10;stroke-width:0.5px"/><line x1="282.87" y1="98.43" x2="304.66" y2="95.46" style="fill:none;stroke:#000;stroke-miterlimit:10;stroke-width:0.5px"/></svg>