<?xml version="1.0" encoding="utf-8"?>
<!-- Generator: Adobe Illustrator 24.0.1, SVG Export Plug-In . SVG Version: 6.00 Build 0)  -->
<svg version="1.1" id="レイヤー_1" xmlns="http://www.w3.org/2000/svg" xmlns:xlink="http://www.w3.org/1999/xlink" x="0px"
	 y="0px" viewBox="0 0 201.9 36.9" style="enable-background:new 0 0 201.9 36.9;" xml:space="preserve">
<style type="text/css">
	.st0{fill:#05112A;}
</style>
<g>
	<g>
		<path class="st0" d="M12,36.8l4.7-5.3c0.1-0.1,0-0.2-0.1-0.2h-5.2c0,0-0.1,0-0.1,0l-4.4-5c0,0,0-0.1,0-0.2l7.4-12.6
			c0,0,0-0.1,0-0.1l-3.1-5.3C11.1,8,11,8,10.9,8.1L0,26.8c0,0,0,0.1,0,0.2l8.8,9.8c0,0,0.1,0,0.1,0L12,36.8
			C11.9,36.9,11.9,36.8,12,36.8"/>
		<path class="st0" d="M15.2,0.7L12.1,6c0,0,0,0.1,0,0.1l3.2,5.5l8.4,14.5c0,0.1,0,0.1,0,0.2l-4.5,5h0l-4.8,5.4
			c-0.1,0.1,0,0.2,0.1,0.2h7.1c0,0,0.1,0,0.1,0l8.8-9.8c0,0,0-0.1,0-0.2L15.4,0.7C15.4,0.7,15.3,0.7,15.2,0.7"/>
	</g>
	<g>
		<path class="st0" d="M44.5,17.6v4.3h8.3v4.9h-8.3V35h-5.1V12.7H53v4.9H44.5z"/>
		<path class="st0" d="M65.4,18.8v5.4c-2-0.3-4.8,0.5-4.8,3.6V35h-4.8V19.1h4.8v2.8C61.3,19.8,63.4,18.8,65.4,18.8z"/>
	</g>
	<g>
		<path class="st0" d="M83.5,19.1V35h-4.8v-1.5c-1.1,1.2-2.6,1.9-4.8,1.9c-4.2,0-7.6-3.7-7.6-8.4s3.4-8.4,7.6-8.4
			c2.1,0,3.7,0.7,4.8,1.9v-1.5H83.5z M78.7,27.1c0-2.4-1.6-3.9-3.8-3.9c-2.2,0-3.8,1.5-3.8,3.9s1.6,3.9,3.8,3.9
			C77.1,30.9,78.7,29.4,78.7,27.1z"/>
		<path class="st0" d="M111,25.2V35h-4.8v-9.4c0-1.6-0.8-2.6-2.3-2.6c-1.6,0-2.5,1.1-2.5,3v9h-4.8v-9.4c0-1.6-0.8-2.6-2.3-2.6
			c-1.6,0-2.5,1.1-2.5,3v9H87V19.1h4.8v1.5c0.7-1.1,2.1-1.9,4.3-1.9c1.9,0,3.3,0.8,4.2,2.1c0.9-1.3,2.4-2.1,4.6-2.1
			C108.6,18.6,111,21.2,111,25.2z"/>
	</g>
	<g>
		<path class="st0" d="M122.3,31.2c1.3,0,2.4-0.5,3.1-1.2l3.8,2.2c-1.6,2.2-3.9,3.3-7,3.3c-5.5,0-8.8-3.7-8.8-8.4s3.4-8.4,8.5-8.4
			c4.7,0,8.1,3.6,8.1,8.4c0,0.7-0.1,1.3-0.2,1.9h-11.3C119.1,30.6,120.6,31.2,122.3,31.2z M125.3,25.4c-0.5-1.8-1.9-2.5-3.4-2.5
			c-1.8,0-3,0.9-3.5,2.5H125.3z"/>
		<path class="st0" d="M155.4,19.1L150.3,35h-4.5l-2.6-8.5l-2.6,8.5h-4.5l-5.1-15.9h5.1l2.3,8.5l2.5-8.5h4.5l2.5,8.5l2.3-8.5H155.4z
			"/>
	</g>
	<g>
		<path class="st0" d="M155.2,27.1c0-4.8,3.8-8.4,8.5-8.4c4.7,0,8.5,3.7,8.5,8.4s-3.8,8.4-8.5,8.4C159,35.5,155.2,31.8,155.2,27.1z
			 M167.3,27.1c0-2.3-1.6-3.8-3.7-3.8c-2.1,0-3.7,1.5-3.7,3.8s1.6,3.8,3.7,3.8C165.7,30.8,167.3,29.3,167.3,27.1z"/>
		<path class="st0" d="M184.4,18.8v5.4c-2-0.3-4.8,0.5-4.8,3.6V35h-4.8V19.1h4.8v2.8C180.3,19.8,182.4,18.8,184.4,18.8z"/>
	</g>
	<g>
		<path class="st0" d="M196.5,35l-5.1-7v7h-4.8V12.7h4.8v13.4l4.8-7h5.6l-5.8,8l6,8H196.5z"/>
	</g>
</g>
</svg>
