<svg xmlns="http://www.w3.org/2000/svg" viewBox="0 0 127.46 127.46"><g style="isolation:isolate"><g id="Layer_2" data-name="Layer 2"><g id="Text"><polygon points="100.32 27.17 100.32 100.3 27.19 100.3 27.19 126.96 126.99 126.96 126.99 27.17 100.32 27.17" style="fill:#dfe6f2"/><polygon points="100.32 27.17 100.32 100.3 27.19 100.3 27.19 126.96 126.99 126.96 126.99 27.17 100.32 27.17" style="fill:#dfe6f2"/><rect x="27.14" y="27.17" width="24.38" height="24.38" style="fill:#dfe6f2"/><rect x="75.89" y="27.17" width="24.38" height="24.38" style="fill:#dfe6f2"/><rect x="51.52" y="51.54" width="24.38" height="24.38" style="fill:#dfe6f2"/><rect x="27.14" y="75.92" width="24.38" height="24.38" style="fill:#dfe6f2"/><rect x="75.89" y="75.92" width="24.38" height="24.38" style="fill:#dfe6f2"/><g style="mix-blend-mode:multiply"><rect x="27.14" y="27.17" width="24.38" height="24.38" style="fill:#dfe6f2"/><rect x="75.89" y="27.17" width="24.38" height="24.38" style="fill:#dfe6f2"/><rect x="51.52" y="51.54" width="24.38" height="24.38" style="fill:#dfe6f2"/><rect x="27.14" y="75.92" width="24.38" height="24.38" style="fill:#dfe6f2"/><rect x="75.89" y="75.92" width="24.38" height="24.38" style="fill:#dfe6f2"/></g><polyline points="100.3 27.17 100.3 0.5 0.5 0.5 0.5 100.3 27.17 100.3" style="fill:none;stroke:#4070f4;stroke-linecap:round;stroke-miterlimit:10"/><polyline points="27.17 100.3 27.17 126.96 126.96 126.96 126.96 27.17 100.3 27.17" style="fill:none;stroke:#4070f4;stroke-miterlimit:10"/><rect x="27.17" y="27.17" width="73.13" height="73.13" style="fill:none;stroke:#4070f4;stroke-miterlimit:10"/></g></g></g></svg>