<svg xmlns="http://www.w3.org/2000/svg" viewBox="0 0 110.06 126.55"><g id="Layer_2" data-name="Layer 2"><g id="Text"><path d="M26.84,39.13V27.9A27.88,27.88,0,0,1,56,0c15,.66,26.6,13.67,26.6,28.74V39.13H73.3V28.64c0-10-7.72-18.74-17.75-19.18A18.61,18.61,0,0,0,36.84,22.87a18.92,18.92,0,0,0-.73,5.19V39.13Z" style="fill:#dfe6f2"/><rect x="16.1" y="32.38" width="87.21" height="100.71" transform="translate(142.44 23.03) rotate(90)" style="fill:#dfe6f2"/><line x1="36.11" y1="39.13" x2="26.84" y2="39.13" style="fill:none;stroke:#4070f4;stroke-miterlimit:10;stroke-width:2px"/><line x1="73.3" y1="39.13" x2="82.57" y2="39.13" style="fill:none;stroke:#4070f4;stroke-miterlimit:10;stroke-width:2px"/><polyline points="41.29 85.77 55.59 102.93 86.33 62.17" style="fill:none;stroke:#4070f4;stroke-miterlimit:10;stroke-width:2px"/><rect y="39.13" width="9.35" height="87.42" style="fill:#c5cfe4"/></g></g></svg>