<svg xmlns="http://www.w3.org/2000/svg" viewBox="0 0 127.32 122.82"><g id="Layer_2" data-name="Layer 2"><g id="Text"><path d="M124,70.86l-5.36-4.67a53.57,53.57,0,0,0-.27-12.78l5.22-4.95a4.13,4.13,0,0,0,1-4.68l-7-15.26a4.12,4.12,0,0,0-4.12-2.47l-7.15.55a53.67,53.67,0,0,0-9.21-8.8V10.65a4.14,4.14,0,0,0-2.61-4L85.68,3.22c-1.63-.67-2.91.86-4.07,2.19L73.73,9.47c-4.26-.42-16.4-2.72-20.63-2.12l-1-6a4.13,4.13,0,0,0-4.68-1L28.22,8.18a4.12,4.12,0,0,0-2.48,4.12l.55,7.15a54,54,0,0,0-8.8,9.07H10.35a4.14,4.14,0,0,0-4,2.61L.31,46.67a4.12,4.12,0,0,0,1.1,4.67L6.77,56A53.07,53.07,0,0,0,7.05,68.8L2,73.61a4.13,4.13,0,0,0-1,4.68L7.73,93.68a4.14,4.14,0,0,0,4.13,2.48L19,95.61a53.67,53.67,0,0,0,9.21,8.8v7.14a4.11,4.11,0,0,0,2.61,4l19.35,7,1.52.27a4.14,4.14,0,0,0,3.16-1.37l1.81-7.28c4.25.42,16.18-3.83,20.41-4.43l4,5.26c1.19,1.28,7.93-.3,5.3,4.07l10.91-4.77a4.13,4.13,0,0,0,2.47-4.12L99.26,103a53.67,53.67,0,0,0,8.8-9.21h7.15a4.12,4.12,0,0,0,4-2.61l5.91-15.67A4.12,4.12,0,0,0,124,70.86ZM64.62,93.41c-17.84,0-36.13-14.47-36.13-32.31S46.78,28.8,64.62,28.8a32.31,32.31,0,0,1,0,64.61Z" style="fill:#c5cfe4"/><path d="M125.91,70.86l-5.36-4.67a53.57,53.57,0,0,0-.27-12.78l5.22-4.95a4.13,4.13,0,0,0,1-4.68l-7-15.26a4.12,4.12,0,0,0-4.12-2.47l-7.15.55A53.67,53.67,0,0,0,99,17.8V10.65a4.14,4.14,0,0,0-2.61-4L81,.62a4.1,4.1,0,0,0-4.67,1.1L71.61,7.08a53.58,53.58,0,0,0-12.78.27L54,2.27a4.13,4.13,0,0,0-4.68-1L34,8.18a4.12,4.12,0,0,0-2.48,4.12L32,19.45a54,54,0,0,0-8.8,9.07H16.08a4.14,4.14,0,0,0-4,2.61L6,46.67a4.12,4.12,0,0,0,1.1,4.67L12.5,56a53.07,53.07,0,0,0,.28,12.78L7.69,73.61a4.13,4.13,0,0,0-1,4.68l6.73,15.39a4.14,4.14,0,0,0,4.13,2.48l7.15-.55a53.67,53.67,0,0,0,9.21,8.8v7.14a4.11,4.11,0,0,0,2.61,4l15.53,6,1.52.28a4.15,4.15,0,0,0,3.16-1.38l4.67-5.36a53.67,53.67,0,0,0,12.79-.28l4.94,5.23a4.13,4.13,0,0,0,4.68,1l15.4-6.74a4.13,4.13,0,0,0,2.47-4.12l-.55-7.15a53.67,53.67,0,0,0,8.8-9.21h7.15a4.12,4.12,0,0,0,4-2.61L127,75.54A4.12,4.12,0,0,0,125.91,70.86ZM66.53,93.41A32.31,32.31,0,1,1,98.83,61.1,32.32,32.32,0,0,1,66.53,93.41Z" style="fill:#dfe6f2"/><line x1="66.27" y1="30.86" x2="66.27" y2="36.49" style="fill:none;stroke:#4070f4;stroke-miterlimit:10;stroke-width:2px"/><line x1="46.63" y1="38.01" x2="50.25" y2="42.33" style="fill:none;stroke:#4070f4;stroke-miterlimit:10;stroke-width:2px"/><line x1="36.18" y1="56.12" x2="41.72" y2="57.09" style="fill:none;stroke:#4070f4;stroke-miterlimit:10;stroke-width:2px"/><line x1="39.81" y1="76.7" x2="44.68" y2="73.89" style="fill:none;stroke:#4070f4;stroke-miterlimit:10;stroke-width:2px"/><line x1="55.82" y1="90.14" x2="57.75" y2="84.85" style="fill:none;stroke:#4070f4;stroke-miterlimit:10;stroke-width:2px"/><line x1="76.72" y1="90.14" x2="74.8" y2="84.85" style="fill:none;stroke:#4070f4;stroke-miterlimit:10;stroke-width:2px"/><line x1="92.74" y1="76.7" x2="87.86" y2="73.89" style="fill:none;stroke:#4070f4;stroke-miterlimit:10;stroke-width:2px"/><line x1="96.37" y1="56.12" x2="90.82" y2="57.09" style="fill:none;stroke:#4070f4;stroke-miterlimit:10;stroke-width:2px"/><line x1="85.92" y1="38.01" x2="82.3" y2="42.33" style="fill:none;stroke:#4070f4;stroke-miterlimit:10;stroke-width:2px"/><circle cx="66.27" cy="60.62" r="4.55" style="fill:#4070f4"/><polyline points="65.78 56.1 80.75 47.75 70.6 62.01" style="fill:#4070f4"/></g></g></svg>