<svg xmlns="http://www.w3.org/2000/svg" viewBox="0 0 126.51 109.05"><g id="Layer_2" data-name="Layer 2"><g id="Text"><polygon points="0 64.89 55.2 64.89 44.16 59.37 0 59.37 0 64.89" style="fill:#c5cfe4"/><rect x="11.04" y="64.89" width="44.16" height="44.16" transform="translate(66.24 173.94) rotate(-180)" style="fill:#dfe6f2"/><polygon points="0 103.53 11.04 109.05 11.04 64.89 0 59.37 0 103.53" style="fill:#c5cfe4"/><polygon points="71.31 64.89 126.5 64.89 115.47 59.37 71.31 59.37 71.31 64.89" style="fill:#c5cfe4"/><rect x="82.34" y="64.89" width="44.16" height="44.16" transform="translate(208.85 173.94) rotate(-180)" style="fill:#dfe6f2"/><polygon points="71.31 103.53 82.34 109.05 82.34 64.89 71.31 59.37 71.31 103.53" style="fill:#c5cfe4"/><polygon points="35.58 5.52 90.78 5.52 79.74 0 35.58 0 35.58 5.52" style="fill:#c5cfe4"/><rect x="46.62" y="5.52" width="44.16" height="44.16" transform="translate(137.39 55.2) rotate(-180)" style="fill:#dfe6f2"/><polygon points="35.58 44.16 46.62 49.68 46.62 5.52 35.58 0 35.58 44.16" style="fill:#c5cfe4"/><circle cx="69.84" cy="27.99" r="4.41" style="fill:#4070f4;stroke:#4070f4;stroke-linecap:round;stroke-miterlimit:10"/><circle cx="32.96" cy="87.33" r="4.41" style="fill:#4070f4;stroke:#4070f4;stroke-linecap:round;stroke-miterlimit:10"/><circle cx="104.66" cy="87.33" r="4.41" style="fill:#4070f4;stroke:#4070f4;stroke-linecap:round;stroke-miterlimit:10"/><line x1="69.51" y1="27.45" x2="104.87" y2="85.55" style="fill:none;stroke:#4070f4;stroke-linecap:round;stroke-miterlimit:10;stroke-width:2px"/><line x1="69.51" y1="27.45" x2="33.17" y2="88.03" style="fill:none;stroke:#4070f4;stroke-linecap:round;stroke-miterlimit:10;stroke-width:2px"/><line x1="104.87" y1="88.03" x2="33.17" y2="88.03" style="fill:none;stroke:#4070f4;stroke-linecap:round;stroke-miterlimit:10;stroke-width:2px"/></g></g></svg>