<?xml version="1.0" encoding="utf-8"?>
<!-- Generator: Adobe Illustrator 24.0.1, SVG Export Plug-In . SVG Version: 6.00 Build 0)  -->
<svg version="1.1" id="レイヤー_1" xmlns="http://www.w3.org/2000/svg" xmlns:xlink="http://www.w3.org/1999/xlink" x="0px"
	 y="0px" viewBox="0 0 469 258" style="enable-background:new 0 0 469 258;" xml:space="preserve">
<style type="text/css">
	.st0{fill:#4070F4;}
	.st1{enable-background:new    ;}
	.st2{fill:#FFFFFF;}
</style>
<g transform="translate(59 60)">
	<path class="st0" d="M45.1,104.8l17.8-20c0.3-0.3,0.1-0.8-0.4-0.8H42.9c-0.1,0-0.3-0.1-0.4-0.2L25.9,65.2c-0.1-0.2-0.2-0.4-0.1-0.6
		l27.8-47.7c0.1-0.2,0.1-0.4,0-0.5L42.1-3.4c-0.2-0.3-0.7-0.3-0.9,0L0.1,67.2c-0.1,0.2-0.1,0.4,0,0.6l33,37.1
		c0.1,0.1,0.2,0.2,0.4,0.2h11.2C44.8,105,45,104.9,45.1,104.8z"/>
	<path class="st0" d="M57.3-31L45.7-11.2c-0.1,0.2-0.1,0.4,0,0.5l12,20.6l31.8,54.6c0.1,0.2,0.1,0.4-0.1,0.6L72.6,83.9l-17.9,20.2
		c-0.3,0.3-0.1,0.8,0.4,0.8h26.8c0.1,0,0.3-0.1,0.4-0.2l33-37.1c0.1-0.2,0.2-0.4,0.1-0.6L58.1-31C58-31.4,57.5-31.4,57.3-31z
		 M164.8,77.2V13.6c0-0.5-0.6-0.7-0.9-0.3L144.5,35c-0.1,0.1-0.1,0.2-0.1,0.3v62.4c0,0.3,0.2,0.5,0.5,0.5h19.9h29.1
		c0.3,0,0.5-0.2,0.5-0.5V78.2c0-0.3-0.2-0.5-0.5-0.5h-28.6C165.1,77.7,164.8,77.5,164.8,77.2z M222.6,97.7V38.1
		c0-0.5-0.6-0.7-0.9-0.3l-19.4,21.7c-0.1,0.1-0.1,0.2-0.1,0.3v37.9c0,0.3,0.2,0.5,0.5,0.5h19.4C222.4,98.2,222.6,97.9,222.6,97.7z
		 M327.6,67.8c-0.1-0.2-0.1-0.4,0-0.6l19.9-29.6c0.2-0.3,0-0.8-0.4-0.8h-22.3c-0.2,0-0.3,0.1-0.4,0.2l-14.7,23.8
		c-0.3,0.4-0.9,0.2-0.9-0.3v-47c0-0.5-0.6-0.7-0.9-0.3l-19.4,21.7c-0.1,0.1-0.1,0.2-0.1,0.3v62.5c0,0.3,0.2,0.5,0.5,0.5h19.4
		c0.3,0,0.5-0.2,0.5-0.5v-20v-3.9c0-0.5,0.6-0.7,0.9-0.3L326,98c0.1,0.1,0.3,0.2,0.4,0.2H348c0.4,0,0.6-0.5,0.4-0.8L327.6,67.8z
		 M255.5,99.4c12.6,0,26-5.3,26-20.1S269.1,61.7,260,59.6c-5-1.2-9-2.1-9-4.8c0-2.1,1.9-3.4,5-3.4c3.2,0,5.8,1.6,7.6,4.7
		c0.1,0.2,0.4,0.3,0.6,0.2l15.4-6.9c0.3-0.1,0.4-0.4,0.2-0.7c-4.7-8.6-12.9-13-24.3-13c-16.5-0.1-24,10-24,20
		c0,13.7,12.2,16.8,21.1,19.1c5.2,1.3,8.9,2.3,8.9,4.9c0,1.7-1,3.8-6,3.8c-4.6,0-7.9-2-9.6-6c-0.1-0.3-0.4-0.4-0.7-0.3l-15.9,8
		c-0.3,0.1-0.4,0.4-0.2,0.7C233.6,95,242.3,99.4,255.5,99.4z"/>
</g>
<path id="長方形_4" class="st0" d="M86.4,183.1h296.3c13.9,0,25.2,11,25.2,24.6v0c0,13.6-11.3,24.6-25.2,24.6H86.4
	c-13.9,0-25.2-11-25.2-24.6v0C61.2,194.1,72.5,183.1,86.4,183.1z"/>
<g class="st1">
	<path class="st2" d="M118.4,210.6c0,2.1-1.7,3.5-3.8,3.5h-5v-11.9h4.7c2.1,0,3.8,1.3,3.8,3.4c0,1-0.4,1.8-1,2.3
		C117.8,208.4,118.4,209.4,118.4,210.6z M112.2,204.7v2.1h1.9c0.6,0,1-0.4,1-1.1c0-0.6-0.4-1.1-1-1.1H112.2z M115.6,210.4
		c0-0.7-0.4-1.1-1.1-1.1h-2.3v2.3h2.3C115.2,211.5,115.6,211,115.6,210.4z"/>
	<path class="st2" d="M119.6,201.6h2.6v12.4h-2.6V201.6z"/>
	<path class="st2" d="M123.6,209.8c0-2.5,2-4.5,4.5-4.5c2.5,0,4.5,2,4.5,4.5c0,2.5-2,4.5-4.5,4.5
		C125.7,214.3,123.6,212.3,123.6,209.8z M130.1,209.8c0-1.2-0.9-2-2-2s-2,0.8-2,2s0.9,2,2,2S130.1,211,130.1,209.8z"/>
	<path class="st2" d="M133.7,209.8c0-2.5,1.9-4.5,4.5-4.5c1.7,0,3.1,0.9,3.8,2.2l-2.2,1.3c-0.3-0.6-0.9-1-1.7-1
		c-1.1,0-1.9,0.8-1.9,2c0,1.2,0.8,2,1.9,2c0.7,0,1.4-0.4,1.7-1l2.2,1.3c-0.7,1.3-2.2,2.2-3.8,2.2
		C135.6,214.3,133.7,212.3,133.7,209.8z"/>
	<path class="st2" d="M148.3,214.1l-2.7-3.8v3.8h-2.6v-11.9h2.6v7.1l2.6-3.7h3l-3.1,4.3l3.2,4.3H148.3z"/>
	<path class="st2" d="M151.2,209.8c0-2.5,1.9-4.5,4.5-4.5c1.7,0,3.1,0.9,3.8,2.2l-2.2,1.3c-0.3-0.6-0.9-1-1.7-1
		c-1.1,0-1.9,0.8-1.9,2c0,1.2,0.8,2,1.9,2c0.7,0,1.4-0.4,1.7-1l2.2,1.3c-0.7,1.3-2.2,2.2-3.8,2.2
		C153.2,214.3,151.2,212.3,151.2,209.8z"/>
	<path class="st2" d="M168.8,208.8v5.2h-2.6v-4.9c0-1.1-0.7-1.5-1.5-1.5c-0.9,0-1.6,0.5-1.6,1.8v4.6h-2.6v-11.9h2.6v4.2
		c0.5-0.6,1.3-1,2.4-1C167.3,205.3,168.8,206.5,168.8,208.8z"/>
	<path class="st2" d="M179.3,205.5v8.5h-2.6v-0.8c-0.6,0.6-1.4,1-2.5,1c-2.2,0-4.1-2-4.1-4.5c0-2.5,1.8-4.5,4.1-4.5
		c1.1,0,2,0.4,2.5,1v-0.8H179.3z M176.7,209.8c0-1.3-0.9-2.1-2-2.1c-1.2,0-2,0.8-2,2.1c0,1.3,0.9,2.1,2,2.1
		C175.9,211.9,176.7,211.1,176.7,209.8z"/>
	<path class="st2" d="M180.9,203.3c0-0.8,0.7-1.5,1.5-1.5s1.5,0.7,1.5,1.5c0,0.8-0.7,1.5-1.5,1.5S180.9,204.1,180.9,203.3z
		 M181.2,205.5h2.6v8.5h-2.6V205.5z"/>
	<path class="st2" d="M193.8,208.8v5.2h-2.6v-4.9c0-1.1-0.7-1.5-1.5-1.5c-0.9,0-1.6,0.5-1.6,1.8v4.6h-2.6v-8.5h2.6v0.8
		c0.5-0.6,1.3-1,2.4-1C192.3,205.3,193.8,206.5,193.8,208.8z"/>
	<path class="st2" d="M206.8,212.2h-4.4l-0.6,1.9h-3l4.1-11.9h3.5l4.1,11.9h-3L206.8,212.2z M206,209.6l-1.4-4.4l-1.4,4.4H206z"/>
	<path class="st2" d="M220.5,209.8c0,2.5-1.8,4.5-4.1,4.5c-1.1,0-2-0.4-2.5-1v4.2h-2.6v-11.9h2.6v0.8c0.6-0.6,1.4-1,2.5-1
		C218.7,205.3,220.5,207.3,220.5,209.8z M217.9,209.8c0-1.3-0.9-2.1-2-2.1c-1.2,0-2,0.8-2,2.1c0,1.3,0.9,2.1,2,2.1
		C217.1,211.9,217.9,211.1,217.9,209.8z"/>
	<path class="st2" d="M231.1,209.8c0,2.5-1.8,4.5-4.1,4.5c-1.1,0-2-0.4-2.5-1v4.2h-2.6v-11.9h2.6v0.8c0.6-0.6,1.4-1,2.5-1
		C229.3,205.3,231.1,207.3,231.1,209.8z M228.6,209.8c0-1.3-0.9-2.1-2-2.1c-1.2,0-2,0.8-2,2.1c0,1.3,0.9,2.1,2,2.1
		C227.7,211.9,228.6,211.1,228.6,209.8z"/>
	<path class="st2" d="M232.6,201.6h2.6v12.4h-2.6V201.6z"/>
	<path class="st2" d="M236.7,203.3c0-0.8,0.7-1.5,1.5-1.5c0.8,0,1.5,0.7,1.5,1.5c0,0.8-0.7,1.5-1.5,1.5
		C237.4,204.8,236.7,204.1,236.7,203.3z M237,205.5h2.6v8.5H237V205.5z"/>
	<path class="st2" d="M241,209.8c0-2.5,1.9-4.5,4.5-4.5c1.7,0,3.1,0.9,3.8,2.2l-2.2,1.3c-0.3-0.6-0.9-1-1.7-1c-1.1,0-1.9,0.8-1.9,2
		c0,1.2,0.8,2,1.9,2c0.7,0,1.4-0.4,1.7-1l2.2,1.3c-0.7,1.3-2.2,2.2-3.8,2.2C242.9,214.3,241,212.3,241,209.8z"/>
	<path class="st2" d="M258.9,205.5v8.5h-2.6v-0.8c-0.6,0.6-1.4,1-2.5,1c-2.2,0-4.1-2-4.1-4.5c0-2.5,1.8-4.5,4.1-4.5
		c1.1,0,2,0.4,2.5,1v-0.8H258.9z M256.4,209.8c0-1.3-0.9-2.1-2-2.1s-2,0.8-2,2.1c0,1.3,0.9,2.1,2,2.1S256.4,211.1,256.4,209.8z"/>
	<path class="st2" d="M264,208v3c0,0.7,0.6,0.8,1.8,0.7v2.3c-3.3,0.3-4.3-0.7-4.3-3v-3h-1.4v-2.5h1.4v-1.6l2.6-0.8v2.4h1.8v2.5H264z
		"/>
	<path class="st2" d="M267,203.3c0-0.8,0.7-1.5,1.5-1.5c0.8,0,1.5,0.7,1.5,1.5c0,0.8-0.7,1.5-1.5,1.5
		C267.7,204.8,267,204.1,267,203.3z M267.2,205.5h2.6v8.5h-2.6V205.5z"/>
	<path class="st2" d="M271.2,209.8c0-2.5,2-4.5,4.5-4.5s4.5,2,4.5,4.5c0,2.5-2,4.5-4.5,4.5S271.2,212.3,271.2,209.8z M277.7,209.8
		c0-1.2-0.9-2-2-2c-1.1,0-2,0.8-2,2s0.9,2,2,2C276.9,211.8,277.7,211,277.7,209.8z"/>
	<path class="st2" d="M289.9,208.8v5.2h-2.6v-4.9c0-1.1-0.7-1.5-1.5-1.5c-0.9,0-1.6,0.5-1.6,1.8v4.6h-2.6v-8.5h2.6v0.8
		c0.5-0.6,1.3-1,2.4-1C288.4,205.3,289.9,206.5,289.9,208.8z"/>
	<path class="st2" d="M304.7,206.2c0,2.3-1.8,4.1-4.2,4.1h-1.8v3.7H296v-11.9h4.5C302.8,202.1,304.7,204,304.7,206.2z M301.9,206.2
		c0-0.9-0.6-1.5-1.4-1.5h-1.8v3.1h1.8C301.3,207.8,301.9,207.1,301.9,206.2z"/>
	<path class="st2" d="M305.9,201.6h2.6v12.4h-2.6V201.6z"/>
	<path class="st2" d="M319.1,205.5v8.5h-2.6v-0.8c-0.6,0.6-1.4,1-2.5,1c-2.2,0-4.1-2-4.1-4.5c0-2.5,1.8-4.5,4.1-4.5
		c1.1,0,2,0.4,2.5,1v-0.8H319.1z M316.5,209.8c0-1.3-0.9-2.1-2-2.1s-2,0.8-2,2.1c0,1.3,0.9,2.1,2,2.1S316.5,211.1,316.5,209.8z"/>
	<path class="st2" d="M324.2,208v3c0,0.7,0.6,0.8,1.8,0.7v2.3c-3.3,0.3-4.3-0.7-4.3-3v-3h-1.4v-2.5h1.4v-1.6l2.6-0.8v2.4h1.8v2.5
		H324.2z"/>
	<path class="st2" d="M330.1,205.5h1.6v2.5h-1.6v6.1h-2.6V208h-1.1v-2.5h1.1c0-2.4,1.3-3.8,4.1-3.6v2.5
		C330.7,204.3,330.1,204.6,330.1,205.5z"/>
	<path class="st2" d="M331.9,209.8c0-2.5,2-4.5,4.5-4.5s4.5,2,4.5,4.5c0,2.5-2,4.5-4.5,4.5S331.9,212.3,331.9,209.8z M338.4,209.8
		c0-1.2-0.9-2-2-2c-1.1,0-2,0.8-2,2s0.9,2,2,2C337.5,211.8,338.4,211,338.4,209.8z"/>
	<path class="st2" d="M347.5,205.4v2.9c-1.1-0.2-2.6,0.3-2.6,1.9v3.8h-2.6v-8.5h2.6v1.5C345.3,205.9,346.4,205.4,347.5,205.4z"/>
	<path class="st2" d="M361.5,208.8v5.2h-2.6v-5c0-0.9-0.4-1.4-1.2-1.4c-0.9,0-1.3,0.6-1.3,1.6v4.8h-2.6v-5c0-0.9-0.4-1.4-1.2-1.4
		c-0.9,0-1.3,0.6-1.3,1.6v4.8h-2.6v-8.5h2.6v0.8c0.4-0.6,1.1-1,2.3-1c1,0,1.8,0.4,2.2,1.1c0.5-0.7,1.3-1.1,2.5-1.1
		C360.2,205.3,361.5,206.7,361.5,208.8z"/>
</g>
</svg>
