<?xml version="1.0" standalone="no"?>
<!DOCTYPE svg PUBLIC "-//W3C//DTD SVG 20010904//EN"
 "http://www.w3.org/TR/2001/REC-SVG-20010904/DTD/svg10.dtd">
<svg version="1.0" xmlns="http://www.w3.org/2000/svg"
 width="569.000000pt" height="569.000000pt" viewBox="0 0 569.000000 569.000000"
 preserveAspectRatio="xMidYMid meet">
<metadata>
Created by potrace 1.11, written by Peter Selinger 2001-2013
</metadata>
<g transform="translate(0.000000,569.000000) scale(0.100000,-0.100000)"
fill="#000000" stroke="none">
<path d="M2675 5423 c-83 -142 -155 -267 -162 -278 -7 -11 -16 -27 -20 -35 -4
-8 -40 -71 -81 -140 -65 -108 -73 -128 -65 -150 5 -14 124 -221 263 -460 267
-458 341 -586 370 -635 9 -16 128 -221 265 -455 136 -234 256 -439 266 -457
10 -17 153 -263 318 -546 164 -282 308 -531 320 -552 l20 -38 -20 -26 c-11
-14 -35 -42 -53 -61 -18 -19 -54 -60 -81 -90 -70 -80 -166 -188 -195 -220 -14
-15 -53 -58 -86 -96 -62 -70 -294 -331 -351 -395 -17 -19 -74 -83 -128 -144
-93 -104 -228 -255 -250 -279 -6 -6 -42 -47 -80 -91 -97 -110 -136 -154 -161
-180 -32 -33 -57 -75 -50 -83 4 -4 264 -7 577 -7 l570 0 137 154 c75 84 146
163 157 176 11 12 49 55 85 96 36 40 106 119 155 174 50 55 201 224 335 375
260 292 299 336 315 354 6 6 44 49 85 96 41 47 81 91 88 98 38 41 45 26 -188
422 -87 148 -104 177 -128 220 -11 19 -113 195 -227 390 -114 195 -217 371
-227 390 -24 42 -306 526 -423 725 -45 77 -115 198 -156 268 -41 70 -81 140
-90 155 -9 15 -67 115 -129 222 -62 107 -151 260 -198 340 -128 218 -182 311
-204 350 -11 19 -44 76 -73 125 -29 50 -62 106 -73 125 -153 271 -246 420
-261 420 -12 0 -64 -82 -166 -257z"/>
<path d="M2153 4521 c-11 -12 -29 -40 -42 -63 -12 -24 -26 -50 -31 -58 -26
-40 -410 -701 -410 -706 0 -3 -9 -17 -19 -32 -10 -15 -157 -265 -326 -557
-169 -291 -336 -577 -370 -635 -34 -58 -74 -127 -89 -155 -16 -27 -37 -63 -47
-80 -68 -106 -379 -653 -379 -665 0 -8 17 -33 36 -55 20 -22 62 -69 93 -104
31 -35 61 -69 66 -75 107 -119 204 -228 260 -291 39 -44 90 -102 115 -129 25
-28 61 -69 81 -91 92 -103 146 -164 174 -196 238 -268 533 -597 546 -609 14
-13 55 -16 259 -15 l242 0 31 35 c16 19 49 56 71 81 23 25 71 79 108 120 378
423 538 607 538 622 0 16 -26 17 -418 17 -391 0 -419 1 -438 18 -10 10 -48 52
-84 92 -104 118 -163 185 -169 190 -3 3 -21 23 -40 45 -18 22 -52 60 -75 85
-23 25 -77 86 -121 135 -43 50 -96 108 -116 130 -62 67 -81 95 -77 113 3 10
85 154 183 322 98 168 186 321 197 340 16 28 87 149 153 262 6 9 25 43 44 75
18 32 154 266 302 520 148 254 269 469 269 479 0 10 -49 101 -109 203 -60 102
-118 202 -128 221 -78 138 -237 407 -248 418 -10 12 -16 10 -32 -7z"/>
</g>
</svg>
