<?xml version="1.0" encoding="utf-8"?>
<!-- Generator: Adobe Illustrator 24.0.1, SVG Export Plug-In . SVG Version: 6.00 Build 0)  -->
<svg version="1.1" id="レイヤー_1" xmlns="http://www.w3.org/2000/svg" xmlns:xlink="http://www.w3.org/1999/xlink" x="0px"
	 y="0px" viewBox="0 0 99.5 36.5" style="enable-background:new 0 0 99.5 36.5;" xml:space="preserve">
<style type="text/css">
	.st0{fill:#05112A;}
</style>
<g>
	<g>
		<path class="st0" d="M38.6,29.6l4.4-2.6c0.8,1.9,2.2,3.1,4.7,3.1c2.4,0,3.1-1,3.1-1.8c0-1.4-1.3-1.9-4.7-2.9
			c-3.3-0.9-6.6-2.5-6.6-6.9c0-4.3,3.7-6.9,7.6-6.9c3.7,0,6.6,1.8,8.2,5.1L51,19.3c-0.8-1.6-1.8-2.6-3.9-2.6c-1.6,0-2.4,0.8-2.4,1.7
			c0,1,0.5,1.7,4.1,2.8c3.4,1,7.2,2.2,7.2,7c0,4.3-3.5,6.9-8.4,6.9C42.9,35.1,39.9,32.9,38.6,29.6"/>
		<path class="st0" d="M73.4,23.4c0-3.9-2.4-6.3-6-6.3h-3.9v12.6h3.9C71,29.7,73.4,27.3,73.4,23.4 M78.4,23.4
			c0,6.4-4.7,11.3-10.9,11.3h-9V12.2h9C73.7,12.2,78.4,17,78.4,23.4"/>
	</g>
	<polygon class="st0" points="93.6,34.7 86.4,24.3 86.4,34.7 81.3,34.7 81.3,12.1 86.4,12.1 86.4,21.9 93.3,12.1 99.2,12.1 
		91.6,23.1 99.5,34.7 	"/>
	<g>
		<path class="st0" d="M12.1,36.5l4.8-5.4c0.1-0.1,0-0.2-0.1-0.2h-5.2c0,0-0.1,0-0.1,0l-4.5-5c0,0,0-0.1,0-0.2l7.4-12.8
			c0,0,0-0.1,0-0.1l-3.1-5.3c-0.1-0.1-0.2-0.1-0.2,0L0,26.4c0,0.1,0,0.1,0,0.2l8.8,9.9c0,0,0.1,0,0.1,0h3
			C12,36.5,12.1,36.5,12.1,36.5"/>
		<path class="st0" d="M15.3,0.1l-3.1,5.3c0,0,0,0.1,0,0.1l3.2,5.5L24,25.7c0,0.1,0,0.1,0,0.2l-4.5,5l-4.8,5.4
			c-0.1,0.1,0,0.2,0.1,0.2h7.2c0,0,0.1,0,0.1,0l8.8-9.9c0,0,0-0.1,0-0.2L15.6,0.1C15.5,0,15.4,0,15.3,0.1"/>
	</g>
</g>
</svg>
